<svg width="260.118652" height="291.549805" viewBox="0 0 260.119 291.55" fill="none" xmlns="http://www.w3.org/2000/svg" xmlns:xlink="http://www.w3.org/1999/xlink">
	<desc>
			Created with Pixso.
	</desc>
	<defs/>
	<path id="Vector" d="M43.75 49.26C43.75 48.72 43.54 48.2 43.16 47.82C42.77 47.44 42.26 47.23 41.72 47.23C41.18 47.23 40.66 47.44 40.28 47.82C39.9 48.2 39.69 48.72 39.69 49.26L43.75 49.26ZM87.16 177.56C87.39 177.69 87.65 177.78 87.91 177.82C88.18 177.86 88.45 177.84 88.71 177.77C88.97 177.7 89.21 177.58 89.42 177.42C89.64 177.26 89.81 177.05 89.95 176.82C90.08 176.59 90.17 176.33 90.2 176.07C90.24 175.8 90.22 175.53 90.15 175.27C90.08 175.02 89.96 174.77 89.79 174.56C89.63 174.35 89.43 174.17 89.19 174.04L87.16 177.56ZM39.69 49.41C39.69 49.95 39.9 50.47 40.28 50.85C40.66 51.23 41.18 51.45 41.72 51.45C42.26 51.45 42.77 51.23 43.16 50.85C43.54 50.47 43.75 49.95 43.75 49.41L39.69 49.41ZM43.75 57.61C43.75 57.07 43.54 56.56 43.16 56.17C42.77 55.79 42.26 55.58 41.72 55.58C41.18 55.58 40.66 55.79 40.28 56.17C39.9 56.56 39.69 57.07 39.69 57.61L43.75 57.61ZM39.69 57.92C39.69 58.46 39.9 58.98 40.28 59.36C40.66 59.74 41.18 59.95 41.72 59.95C42.26 59.95 42.77 59.74 43.16 59.36C43.54 58.98 43.75 58.46 43.75 57.92L39.69 57.92ZM43.75 66.12C43.75 65.58 43.54 65.06 43.16 64.68C42.77 64.3 42.26 64.09 41.72 64.09C41.18 64.09 40.66 64.3 40.28 64.68C39.9 65.06 39.69 65.58 39.69 66.12L43.75 66.12ZM39.69 66.43C39.69 66.96 39.9 67.48 40.28 67.86C40.66 68.24 41.18 68.46 41.72 68.46C42.26 68.46 42.77 68.24 43.16 67.86C43.54 67.48 43.75 66.96 43.75 66.43L39.69 66.43ZM43.75 74.62C43.75 74.08 43.54 73.57 43.16 73.19C42.77 72.81 42.26 72.59 41.72 72.59C41.18 72.59 40.66 72.81 40.28 73.19C39.9 73.57 39.69 74.08 39.69 74.62L43.75 74.62ZM39.69 74.93C39.69 75.47 39.9 75.99 40.28 76.37C40.66 76.75 41.18 76.96 41.72 76.96C42.26 76.96 42.77 76.75 43.16 76.37C43.54 75.99 43.75 75.47 43.75 74.93L39.69 74.93ZM43.75 83.13C43.75 82.59 43.54 82.07 43.16 81.69C42.77 81.31 42.26 81.1 41.72 81.1C41.18 81.1 40.66 81.31 40.28 81.69C39.9 82.07 39.69 82.59 39.69 83.13L43.75 83.13ZM39.69 83.44C39.69 83.98 39.9 84.49 40.28 84.87C40.66 85.25 41.18 85.47 41.72 85.47C42.26 85.47 42.77 85.25 43.16 84.87C43.54 84.49 43.75 83.98 43.75 83.44L39.69 83.44ZM43.75 91.64C43.75 91.1 43.54 90.58 43.16 90.2C42.77 89.82 42.26 89.6 41.72 89.6C41.18 89.6 40.66 89.82 40.28 90.2C39.9 90.58 39.69 91.1 39.69 91.64L43.75 91.64ZM39.69 91.94C39.69 92.48 39.9 93 40.28 93.38C40.66 93.76 41.18 93.97 41.72 93.97C42.26 93.97 42.77 93.76 43.16 93.38C43.54 93 43.75 92.48 43.75 91.94L39.69 91.94ZM43.75 100.14C43.75 99.6 43.54 99.09 43.16 98.71C42.77 98.32 42.26 98.11 41.72 98.11C41.18 98.11 40.66 98.32 40.28 98.71C39.9 99.09 39.69 99.6 39.69 100.14L43.75 100.14ZM39.69 100.45C39.69 100.99 39.9 101.51 40.28 101.89C40.66 102.27 41.18 102.48 41.72 102.48C42.26 102.48 42.77 102.27 43.16 101.89C43.54 101.51 43.75 100.99 43.75 100.45L39.69 100.45ZM43.75 108.65C43.75 108.11 43.54 107.59 43.16 107.21C42.77 106.83 42.26 106.62 41.72 106.62C41.18 106.62 40.66 106.83 40.28 107.21C39.9 107.59 39.69 108.11 39.69 108.65L43.75 108.65ZM39.69 108.96C39.69 109.5 39.9 110.01 40.28 110.39C40.66 110.77 41.18 110.99 41.72 110.99C42.26 110.99 42.77 110.77 43.16 110.39C43.54 110.01 43.75 109.5 43.75 108.96L39.69 108.96ZM43.75 117.15C43.75 116.62 43.54 116.1 43.16 115.72C42.77 115.34 42.26 115.12 41.72 115.12C41.18 115.12 40.66 115.34 40.28 115.72C39.9 116.1 39.69 116.62 39.69 117.15L43.75 117.15ZM39.69 117.46C39.69 118 39.9 118.52 40.28 118.9C40.66 119.28 41.18 119.49 41.72 119.49C42.26 119.49 42.77 119.28 43.16 118.9C43.54 118.52 43.75 118 43.75 117.46L39.69 117.46ZM43.75 125.66C43.75 125.12 43.54 124.6 43.16 124.22C42.77 123.84 42.26 123.63 41.72 123.63C41.18 123.63 40.66 123.84 40.28 124.22C39.9 124.6 39.69 125.12 39.69 125.66L43.75 125.66ZM39.69 125.97C39.69 126.51 39.9 127.02 40.28 127.4C40.66 127.79 41.18 128 41.72 128C42.26 128 42.77 127.79 43.16 127.4C43.54 127.02 43.75 126.51 43.75 125.97L39.69 125.97ZM43.75 134.17C43.75 133.63 43.54 133.11 43.16 132.73C42.77 132.35 42.26 132.13 41.72 132.13C41.18 132.13 40.66 132.35 40.28 132.73C39.9 133.11 39.69 133.63 39.69 134.17L43.75 134.17ZM39.69 134.49C39.69 135.03 39.91 135.55 40.29 135.93C40.67 136.3 41.19 136.52 41.73 136.51C42.27 136.51 42.79 136.29 43.16 135.91C43.54 135.52 43.75 135.01 43.75 134.47L39.69 134.49ZM45.11 142.17C44.93 141.67 44.55 141.25 44.07 141.02C43.58 140.79 43.02 140.76 42.51 140.94C42.01 141.12 41.59 141.5 41.36 141.99C41.13 142.47 41.1 143.03 41.28 143.54L45.11 142.17ZM41.4 143.86C41.49 144.11 41.63 144.34 41.82 144.54C42 144.74 42.22 144.89 42.46 145C42.7 145.12 42.96 145.18 43.23 145.19C43.5 145.2 43.76 145.15 44.01 145.06C44.26 144.97 44.49 144.83 44.69 144.65C44.88 144.46 45.04 144.25 45.15 144C45.26 143.76 45.33 143.5 45.34 143.23C45.35 142.97 45.3 142.7 45.21 142.45L41.4 143.86ZM49.12 149.23C48.78 148.82 48.29 148.57 47.75 148.53C47.22 148.48 46.7 148.65 46.29 148.99C45.88 149.33 45.62 149.81 45.56 150.34C45.51 150.87 45.66 151.4 45.99 151.82L49.12 149.23ZM46.22 152.08C46.56 152.49 47.06 152.75 47.6 152.79C48.14 152.84 48.67 152.67 49.08 152.32C49.49 151.97 49.75 151.47 49.79 150.93C49.83 150.39 49.66 149.86 49.31 149.45L46.22 152.08ZM55.31 154.48C54.84 154.21 54.29 154.13 53.77 154.27C53.25 154.4 52.8 154.74 52.53 155.21C52.26 155.67 52.18 156.23 52.32 156.75C52.45 157.27 52.79 157.72 53.25 157.99L55.31 154.48ZM53.53 158.14C53.99 158.41 54.54 158.48 55.06 158.34C55.58 158.2 56.02 157.86 56.29 157.39C56.56 156.93 56.63 156.38 56.49 155.86C56.36 155.34 56.02 154.9 55.56 154.63L53.53 158.14ZM62.06 158.38C61.6 158.12 61.05 158.05 60.53 158.19C60.01 158.33 59.57 158.67 59.3 159.13C59.03 159.6 58.96 160.15 59.1 160.67C59.23 161.19 59.57 161.63 60.03 161.9L62.06 158.38ZM60.28 162.04C60.74 162.31 61.3 162.38 61.81 162.24C62.33 162.1 62.77 161.76 63.04 161.29C63.31 160.83 63.38 160.27 63.25 159.76C63.11 159.24 62.77 158.79 62.31 158.52L60.28 162.04ZM68.82 162.28C68.35 162.01 67.8 161.94 67.28 162.08C66.76 162.22 66.32 162.56 66.05 163.03C65.78 163.49 65.71 164.05 65.85 164.56C65.98 165.08 66.32 165.53 66.78 165.8L68.82 162.28ZM67.03 165.94C67.26 166.07 67.52 166.16 67.78 166.2C68.05 166.24 68.32 166.22 68.58 166.15C68.83 166.08 69.08 165.96 69.29 165.8C69.5 165.64 69.68 165.43 69.82 165.2C69.95 164.97 70.04 164.71 70.07 164.45C70.11 164.18 70.09 163.91 70.02 163.65C69.95 163.39 69.83 163.15 69.66 162.94C69.5 162.73 69.29 162.55 69.06 162.42L67.03 165.94ZM75.57 166.18C75.1 165.91 74.55 165.83 74.03 165.97C73.5 166.11 73.06 166.45 72.79 166.92C72.52 167.39 72.45 167.94 72.59 168.46C72.73 168.98 73.07 169.43 73.54 169.7L75.57 166.18ZM73.78 169.84C74.01 169.97 74.27 170.06 74.53 170.1C74.8 170.13 75.07 170.12 75.33 170.05C75.59 169.98 75.83 169.86 76.04 169.7C76.25 169.53 76.43 169.33 76.57 169.1C76.7 168.87 76.79 168.61 76.82 168.34C76.86 168.08 76.84 167.81 76.77 167.55C76.7 167.29 76.58 167.05 76.41 166.84C76.25 166.63 76.04 166.45 75.81 166.32L73.78 169.84ZM82.32 170.07C82.09 169.94 81.83 169.85 81.57 169.82C81.3 169.78 81.03 169.8 80.78 169.87C80.52 169.94 80.28 170.06 80.07 170.22C79.85 170.38 79.68 170.59 79.54 170.82C79.41 171.05 79.32 171.3 79.29 171.57C79.25 171.83 79.27 172.1 79.34 172.36C79.41 172.62 79.53 172.86 79.69 173.07C79.85 173.28 80.06 173.46 80.29 173.59L82.32 170.07ZM80.53 173.73C80.76 173.87 81.02 173.95 81.28 173.99C81.55 174.02 81.81 174 82.07 173.94C82.33 173.87 82.57 173.75 82.78 173.58C83 173.42 83.17 173.22 83.31 172.99C83.44 172.76 83.53 172.5 83.56 172.24C83.6 171.97 83.58 171.7 83.51 171.45C83.44 171.19 83.32 170.95 83.16 170.74C83 170.52 82.79 170.35 82.56 170.21L80.53 173.73ZM89.07 173.97C88.84 173.83 88.58 173.75 88.32 173.71C88.05 173.67 87.78 173.69 87.52 173.76C87.26 173.83 87.02 173.95 86.81 174.11C86.6 174.27 86.42 174.47 86.28 174.71C86.15 174.94 86.06 175.2 86.03 175.46C85.99 175.73 86.01 176 86.08 176.26C86.15 176.51 86.27 176.76 86.44 176.97C86.6 177.18 86.81 177.36 87.04 177.49L89.07 173.97ZM39.69 49.26L39.69 49.41L43.75 49.41L43.75 49.26L39.69 49.26ZM39.69 57.61L39.69 57.92L43.75 57.92L43.75 57.61L39.69 57.61ZM39.69 66.12L39.69 66.43L43.75 66.43L43.75 66.12L39.69 66.12ZM39.69 74.62L39.69 74.93L43.75 74.93L43.75 74.62L39.69 74.62ZM39.69 83.13L39.69 83.44L43.75 83.44L43.75 83.13L39.69 83.13ZM39.69 91.64L39.69 91.94L43.75 91.94L43.75 91.64L39.69 91.64ZM39.69 100.14L39.69 100.45L43.75 100.45L43.75 100.14L39.69 100.14ZM39.69 108.65L39.69 108.96L43.75 108.96L43.75 108.65L39.69 108.65ZM39.69 117.15L39.69 117.46L43.75 117.46L43.75 117.15L39.69 117.15ZM39.69 125.66L39.69 125.97L43.75 125.97L43.75 125.66L39.69 125.66ZM39.69 134.17L39.69 134.32L43.75 134.32L43.75 134.17L39.69 134.17ZM39.69 134.32L39.69 134.49L43.75 134.47L43.75 134.32L39.69 134.32ZM41.28 143.54L41.4 143.86L45.21 142.45C45.18 142.36 45.14 142.27 45.11 142.17L41.28 143.54ZM45.99 151.82C46.07 151.91 46.14 152 46.22 152.08L49.31 149.45C49.25 149.38 49.19 149.3 49.12 149.23L45.99 151.82ZM53.25 157.99L53.4 158.07L55.44 154.55C55.39 154.53 55.35 154.5 55.31 154.48L53.25 157.99ZM53.4 158.07L53.53 158.14L55.56 154.63L55.44 154.55L53.4 158.07ZM60.03 161.9L60.28 162.04L62.31 158.52L62.06 158.38L60.03 161.9ZM66.78 165.8L67.03 165.94L69.06 162.42L68.82 162.28L66.78 165.8ZM73.54 169.7L73.78 169.84L75.81 166.32L75.57 166.18L73.54 169.7ZM80.29 173.59L80.53 173.73L82.56 170.21L82.32 170.07L80.29 173.59ZM87.04 177.49L87.16 177.56L89.19 174.04L89.07 173.97L87.04 177.49Z" fill="#175297" fill-opacity="1.000000" fill-rule="nonzero"/>
	<path id="Vector" d="M5.77 36.86L72.45 0.62C75.09 -0.81 77.22 0.31 77.22 3.12L77.22 23.5C77.22 26.31 75.09 29.75 72.45 31.18L5.77 67.43C3.14 68.86 1.01 67.73 1.01 64.92L1.01 44.55C1.01 41.73 3.14 38.29 5.77 36.86Z" fill="#175297" fill-opacity="1.000000" fill-rule="evenodd"/>
	<g opacity="0.702000">
		<path id="Vector" d="M53.03 30.39C53.22 30.52 53.5 30.5 53.85 30.31C54.23 30.11 54.56 29.81 54.84 29.41L55.23 30.25C55.04 30.54 54.81 30.81 54.55 31.03C54.27 31.27 53.99 31.47 53.7 31.62C53 31.99 52.45 32.06 52.07 31.83C51.68 31.59 51.48 31.07 51.48 30.26L51.48 25.82L50.3 26.45L50.3 25.24L51.48 24.62L51.48 22.85L52.75 22.19L52.75 23.95L54.76 22.9L54.76 24.1L52.75 25.16L52.75 29.53C52.75 29.97 52.85 30.25 53.03 30.39ZM47.55 28.73C47.15 29.4 46.96 30.18 46.96 31.05L46.96 35.08L45.69 35.74L45.69 27.67L46.91 27.03L46.91 28.38C47.13 27.8 47.46 27.26 47.88 26.8C48.33 26.32 48.86 25.92 49.45 25.61L49.45 27.03C48.65 27.37 47.98 27.97 47.55 28.73ZM42.14 36.54C41.92 37.04 41.62 37.49 41.24 37.88C40.83 38.29 40.36 38.64 39.84 38.91C39.06 39.32 38.44 39.43 37.96 39.24C37.49 39.05 37.26 38.6 37.26 37.89C37.26 37.18 37.48 36.49 37.93 35.82C38.38 35.15 39.09 34.56 40.07 34.05L42.08 32.99L42.08 32.7C42.08 32.07 41.92 31.68 41.6 31.51C41.28 31.34 40.82 31.42 40.2 31.74C39.76 31.98 39.35 32.27 38.99 32.61C38.59 32.98 38.26 33.37 37.98 33.77L37.46 32.95C37.83 32.42 38.26 31.93 38.75 31.5C39.24 31.07 39.77 30.7 40.35 30.4C41.31 29.89 42.06 29.77 42.57 30.05C43.09 30.33 43.34 31.01 43.34 32.1L43.34 36.98L42.14 37.61L42.14 36.54ZM42.08 34.05L40.12 35.07C39.05 35.64 38.51 36.34 38.51 37.17C38.51 37.57 38.65 37.82 38.92 37.91C39.19 38 39.57 37.92 40.06 37.67C40.54 37.41 40.96 37.07 41.31 36.63C41.66 36.2 41.92 35.71 42.08 35.17L42.08 34.05ZM34.74 41.59C34.03 41.96 33.49 42.03 33.1 41.79C32.71 41.56 32.52 41.04 32.52 40.23L32.52 35.79L31.33 36.42L31.33 35.21L32.52 34.59L32.52 32.82L33.79 32.15L33.79 33.92L35.79 32.87L35.79 34.07L33.79 35.13L33.79 39.5C33.79 39.94 33.88 40.22 34.07 40.36C34.26 40.49 34.53 40.46 34.88 40.28C35.27 40.08 35.6 39.78 35.87 39.38L36.27 40.22C36.08 40.51 35.84 40.77 35.58 41C35.33 41.23 35.04 41.43 34.74 41.59ZM26.1 39.66C26.53 39.6 26.96 39.51 27.37 39.4C28.07 39.22 28.63 39.12 29.05 39.09C29.47 39.06 29.84 39.17 30.14 39.41C30.44 39.64 30.59 40.1 30.59 40.77C30.59 41.33 30.46 41.91 30.2 42.51C29.93 43.11 29.53 43.68 29 44.23C28.46 44.79 27.8 45.27 27.02 45.68C26.32 46.04 25.65 46.27 25.01 46.36C24.36 46.45 23.85 46.4 23.48 46.2L23.97 44.75C24.32 44.93 24.77 44.99 25.32 44.93C25.87 44.87 26.44 44.69 27.02 44.38C27.78 43.98 28.36 43.53 28.73 43.03C29.11 42.53 29.3 42.04 29.3 41.54C29.3 41.17 29.2 40.93 28.99 40.81C28.78 40.69 28.53 40.65 28.23 40.69C27.92 40.72 27.49 40.81 26.94 40.95C26.24 41.12 25.68 41.22 25.26 41.26C24.83 41.29 24.46 41.18 24.16 40.94C23.86 40.7 23.71 40.24 23.71 39.56C23.71 38.99 23.84 38.41 24.09 37.81C24.35 37.22 24.75 36.65 25.28 36.09C25.8 35.54 26.46 35.06 27.24 34.65C27.75 34.38 28.29 34.17 28.85 34.05C29.38 33.93 29.83 33.93 30.21 34.03L29.78 35.48C29.37 35.4 28.95 35.4 28.54 35.49C28.08 35.57 27.65 35.73 27.24 35.95C26.49 36.34 25.93 36.79 25.56 37.3C25.19 37.81 25 38.32 25 38.82C25 39.18 25.1 39.42 25.32 39.54C25.53 39.66 25.79 39.7 26.1 39.66Z" fill="#FFFFFF" fill-opacity="1.000000" fill-rule="evenodd"/>
	</g>
	<path id="Vector" d="M241.01 223.72L167.53 266.06C159.87 270.47 146.58 269.92 137.81 264.86L69.22 225.38C60.46 220.32 59.44 212.68 67.1 208.26L140.58 165.93C148.24 161.52 161.53 162.07 170.3 167.13L238.88 206.61C247.75 211.67 248.67 219.4 241.01 223.72Z" fill="#175297" fill-opacity="1.000000" fill-rule="nonzero"/>
	<path id="Vector" d="M130.89 291.54C122.39 291.54 113.44 289.52 106.52 285.47L11.07 230.53C4.06 226.48 6.1e-5 220.96 6.1e-5 215.44C6.1e-5 210.75 2.86 206.51 8.12 203.48L110.39 144.67C121.47 138.33 140.85 139.06 153.59 146.42L249.04 201.36C256.05 205.41 260.11 210.93 260.11 216.45C260.11 221.15 257.25 225.38 251.99 228.42L149.81 287.22C144.73 290.16 137.99 291.54 130.89 291.54ZM129.22 144.03C122.85 144.03 116.67 145.32 112.15 147.89L9.87 206.7C5.81 209 3.6 212.13 3.6 215.44C3.6 219.67 6.92 224 12.83 227.31L108.27 282.25C119.99 288.97 137.72 289.8 147.87 284L250.15 225.2C254.21 222.9 256.42 219.77 256.42 216.45C256.42 212.22 253.1 207.9 247.19 204.58L151.75 149.64C145.28 145.87 137.07 144.03 129.22 144.03Z" fill="#175297" fill-opacity="1.000000" fill-rule="nonzero"/>
	<path id="Vector" d="M55.47 103.72L172.88 36.18C174.36 35.35 175.65 35.35 176.67 36.09L182.39 39.58L178.15 45.75L178.15 137.59C178.15 141.45 175.84 145.87 172.88 147.62L63.23 210.66L57.59 218.75L52.15 215.44C50.95 214.89 50.21 213.33 50.21 211.12L50.21 113.75C50.21 109.89 52.61 105.38 55.47 103.72Z" fill="#242035" fill-opacity="1.000000" fill-rule="nonzero"/>
	<path id="Vector" d="M91.01 187.47L91.01 185.26L97.56 182.31L112.06 173.94C114.55 172.56 118.24 172.37 120.36 173.57L144.18 187.19L151.1 190.13L151.1 192.71C151.01 193.63 150.36 194.55 149.07 195.29L129.96 206.24C127.47 207.62 123.78 207.8 121.66 206.61L92.3 189.77C91.38 189.12 90.92 188.29 91.01 187.47Z" fill="#463C66" fill-opacity="1.000000" fill-rule="nonzero"/>
	<path id="Vector" d="M92.39 187.19L121.75 204.03C123.87 205.23 127.56 205.14 130.05 203.66L149.16 192.71C151.65 191.33 151.84 189.21 149.72 187.93L120.27 171.18C118.15 169.98 114.45 170.07 111.96 171.55L92.86 182.5C90.55 183.88 90.27 185.99 92.39 187.19Z" fill="#EDD8FF" fill-opacity="1.000000" fill-rule="nonzero"/>
	<path id="Vector" d="M61.75 217.19L178.61 151.12C181.47 149.46 183.87 144.95 183.87 141.09L183.87 43.63C183.87 39.77 181.56 38.02 178.61 39.68L61.19 107.22C58.33 108.88 55.93 113.39 55.93 117.25L55.93 214.71C56.02 218.57 58.89 218.85 61.75 217.19Z" fill="#49416D" fill-opacity="1.000000" fill-rule="nonzero"/>
	<path id="Vector" d="M183.87 129.77L183.87 141.55C183.87 145.13 181.38 149.46 178.24 151.3L61.66 218.39C58.52 220.13 56.03 218.75 56.03 215.16L56.03 203.39L183.87 129.77Z" fill="#C6E0FF" fill-opacity="1.000000" fill-rule="nonzero"/>
	<path id="Vector" d="M63.69 191.61L176.3 126.73C177.32 126.18 178.15 124.52 178.15 123.23L178.15 48.79C178.15 47.4 177.32 46.76 176.3 47.4L63.69 112.28C62.67 112.83 61.84 114.49 61.84 115.78L61.84 190.23C61.75 191.52 62.58 192.16 63.69 191.61Z" fill="#C6E0FF" fill-opacity="1.000000" fill-rule="nonzero"/>
	<path id="Vector" d="M165.32 89.55L165.32 122.22L107.53 155.44L114.36 141.09L117.78 142.37L127.84 118.54L136.89 123.6L142.61 113.48L155.81 119.37L165.32 89.55Z" fill="#59DDAA" fill-opacity="0.400000" fill-rule="nonzero"/>
	<path id="Vector" d="M165.32 108.69L153.41 102.16L146.39 125.9L139.75 123.6L135.5 134.64L127.56 132.34L123.87 140.72L107.53 155.44L165.32 122.22L165.32 108.69Z" fill="#59DDAA" fill-opacity="1.000000" fill-rule="nonzero"/>
	<path id="Vector" d="M96.82 164.09L80.67 173.29C77.72 174.95 75.32 173.57 75.32 170.07L75.32 136.76L102.18 121.49L102.18 154.8C102.18 158.2 99.78 162.44 96.82 164.09Z" fill="#175297" fill-opacity="1.000000" fill-rule="nonzero"/>
	<path id="Vector" d="M102.09 129.95L75.22 145.23L75.22 136.76L102.09 121.49L102.09 129.95Z" fill="#E0C4F8" fill-opacity="1.000000" fill-rule="nonzero"/>
	<path id="Vector" d="M102.09 150.56L75.32 165.84L75.32 149.18L102.09 133.82L102.09 150.56Z" fill="#D68967" fill-opacity="1.000000" fill-rule="nonzero"/>
	<path id="Vector" d="M99.5 138.69L78.18 150.84L78.18 149.18L99.5 137.04L99.5 138.69ZM99.5 149.74L78.18 161.88L78.18 160.23L99.5 148.08L99.5 149.74Z" fill="#625F93" fill-opacity="1.000000" fill-rule="nonzero"/>
	<path id="Vector" d="M101.44 118.54L101.44 110.99L75.87 125.63L75.87 133.08L72.27 135.1L72.27 138.69L105.04 120.01L105.04 116.52L101.44 118.54Z" fill="#A78BBF" fill-opacity="1.000000" fill-rule="nonzero"/>
	<path id="Vector" d="M78.27 131.7L77.16 132.34L77.16 126.91L78.27 126.27L78.27 131.7ZM81.04 130.14L79.93 130.78L79.93 125.35L81.04 124.71L81.04 130.14ZM83.81 128.57L82.61 129.21L82.61 123.79L83.72 123.14L83.81 128.57ZM86.49 127.01L85.38 127.65L85.38 122.22L86.49 121.58L86.49 127.01ZM89.26 125.44L88.06 126.09L88.06 120.66L89.25 120.01L89.26 125.44ZM91.93 123.88L90.82 124.61L90.82 119.09L91.93 118.45L91.93 123.88ZM94.7 122.41L93.59 123.05L93.59 117.53L94.7 116.88L94.7 122.41ZM97.47 120.84L96.27 121.49L96.27 115.96L97.47 115.32L97.47 120.84ZM100.15 119.28L99.04 119.92L99.04 114.4L100.15 113.75L100.15 119.28Z" fill="#E9CFFF" fill-opacity="1.000000" fill-rule="nonzero"/>
	<path id="Vector" d="M105.04 118.08L72.27 136.76L72.27 135.1L105.04 116.52L105.04 118.08Z" fill="#EDD8FF" fill-opacity="1.000000" fill-rule="nonzero"/>
	<path id="Vector" d="M81.13 156.18L79.1 154.06L79.1 157.28L78.18 157.83L78.18 152.87L79.1 152.31L81.04 154.34L81.04 151.21L81.96 150.66L81.96 155.63L81.13 156.18ZM82.79 153.23L82.79 150.2L83.72 149.64L83.72 152.59C83.72 153.33 84.09 153.6 84.73 153.23C85.04 153.06 85.3 152.81 85.48 152.5C85.66 152.19 85.75 151.84 85.75 151.48L85.75 148.54L86.67 147.99L86.67 150.93C86.67 152.13 86.02 153.33 84.73 154.06C83.44 154.98 82.79 154.43 82.79 153.23ZM88.52 152.04L88.52 147.99L87.32 148.72L87.32 147.8L90.73 145.87L90.73 146.79L89.53 147.53L89.53 151.58L88.52 152.04ZM93.59 149.09L92.76 147.8L92.12 148.17L92.12 149.92L91.19 150.47L91.19 145.5L93.22 144.4C94.15 143.94 94.61 144.31 94.61 145.23C94.61 146.15 94.15 146.88 93.69 147.25L94.61 148.63L93.59 149.09ZM93.69 145.69C93.69 145.23 93.41 145.13 93.04 145.41L92.12 145.96L92.12 147.34L93.04 146.79C93.41 146.52 93.69 146.06 93.69 145.69ZM98.21 146.42L97.93 145.69L96.09 146.7L95.81 147.71L94.79 148.26L96.46 142.37L97.56 141.73L99.22 145.78L98.21 146.42ZM97.1 143.2L96.46 145.69L97.75 144.95L97.1 143.2Z" fill="#625F93" fill-opacity="1.000000" fill-rule="nonzero"/>
	<path id="Vector" d="M181.56 204.77L197.35 136.48L197.35 213.88L181.56 204.77Z" fill="#FEB06D" fill-opacity="1.000000" fill-rule="nonzero"/>
	<path id="Vector" d="M197.35 136.48L197.35 213.88L213.04 204.77L197.35 136.48Z" fill="#FF5A71" fill-opacity="1.000000" fill-rule="nonzero"/>
	<path id="Vector" d="M197.35 136.48L197.35 130.23" stroke="#EDD8FF" stroke-opacity="1.000000" stroke-width="0.339373" stroke-linecap="round"/>
	<path id="Vector" d="M205.1 121.85C205.1 125.26 202.7 129.4 199.75 131.06C196.79 132.71 194.39 131.42 194.39 128.02C194.39 124.61 196.79 120.47 199.75 118.82C202.7 117.16 205.1 118.45 205.1 121.85Z" fill="#A481B5" fill-opacity="1.000000" fill-rule="nonzero"/>
	<path id="Vector" d="M202.55 124.27C202.5 124.9 202.29 125.51 201.96 126.04C201.62 126.56 201.17 127 200.63 127.3C200.03 127.65 199.54 127.68 199.18 127.4C198.82 127.12 198.64 126.56 198.64 125.74L198.64 125.18C198.64 124.64 198.72 124.12 198.89 123.62C199.05 123.13 199.3 122.67 199.61 122.26C199.9 121.88 200.27 121.56 200.69 121.31C201.23 121 201.66 120.93 201.99 121.08C202.31 121.24 202.5 121.6 202.55 122.18L201.88 122.57C201.82 122.14 201.7 121.88 201.5 121.78C201.31 121.69 201.04 121.74 200.69 121.94C200.26 122.19 199.92 122.56 199.68 123.06C199.43 123.57 199.31 124.15 199.31 124.81L199.31 125.37C199.31 126 199.43 126.44 199.66 126.68C199.89 126.92 200.21 126.91 200.63 126.68C201 126.46 201.28 126.2 201.48 125.9C201.68 125.59 201.82 125.18 201.88 124.66L202.55 124.27Z" fill="#FFFFFF" fill-opacity="1.000000" fill-rule="nonzero"/>
	<path id="Vector" d="M194.39 128.02C194.39 124.61 196.79 120.47 199.75 118.82C201.22 117.99 202.52 117.9 203.53 118.45L199.01 115.87C197.99 115.32 196.7 115.32 195.13 116.24C192.18 117.9 189.78 122.04 189.78 125.44C189.78 127.1 190.33 128.29 191.35 128.85L195.87 131.42C195.04 130.87 194.39 129.67 194.39 128.02Z" fill="#5F4E7E" fill-opacity="1.000000" fill-rule="nonzero"/>
	<path id="Vector" d="M157.1 218.2L173.44 167.5L173.44 227.59L157.1 218.2Z" fill="#FEB06D" fill-opacity="1.000000" fill-rule="nonzero"/>
	<path id="Vector" d="M173.44 167.5L173.44 227.59L189.69 218.2L173.44 167.5Z" fill="#FF5A71" fill-opacity="1.000000" fill-rule="nonzero"/>
	<path id="Vector" d="M173.44 168.14L173.44 161.79" stroke="#EDD8FF" stroke-opacity="1.000000" stroke-width="0.339373" stroke-linecap="round"/>
	<path id="Vector" d="M181.19 153.42C181.19 156.82 178.79 160.96 175.84 162.62C172.89 164.28 170.49 162.99 170.49 159.58C170.49 156.18 172.89 152.04 175.84 150.38C178.89 148.72 181.19 150.1 181.19 153.42Z" fill="#A481B5" fill-opacity="1.000000" fill-rule="nonzero"/>
	<path id="Vector" d="M175.04 159.79L175.04 154L176.7 153.04C177.25 152.72 177.66 152.61 177.94 152.71C178.22 152.81 178.36 153.12 178.36 153.63C178.36 153.9 178.29 154.18 178.16 154.46C178.02 154.75 177.84 155.02 177.61 155.26C177.88 155.19 178.1 155.24 178.26 155.39C178.42 155.54 178.5 155.79 178.5 156.13C178.5 156.65 178.35 157.14 178.05 157.61C177.76 158.08 177.34 158.46 176.8 158.78L175.04 159.79ZM175.71 156.7L175.71 158.78L176.81 158.14C177.13 157.96 177.37 157.73 177.55 157.44C177.73 157.15 177.82 156.85 177.82 156.52C177.82 155.83 177.49 155.67 176.82 156.05L175.71 156.7ZM175.71 156.08L176.72 155.5C177.01 155.33 177.25 155.11 177.42 154.84C177.6 154.58 177.69 154.3 177.69 154.01C177.69 153.69 177.61 153.51 177.44 153.46C177.28 153.41 177.03 153.48 176.7 153.67L175.71 154.24L175.71 156.08Z" fill="#FFFFFF" fill-opacity="1.000000" fill-rule="nonzero"/>
	<path id="Vector" d="" fill="#1F909F" fill-opacity="1.000000" fill-rule="nonzero"/>
	<path id="Vector" d="M170.48 159.58C170.48 156.18 172.88 152.04 175.84 150.38C177.32 149.55 178.61 149.46 179.62 150.01L175.1 147.44C174.08 146.88 172.79 146.88 171.22 147.8C168.27 149.46 165.87 153.6 165.87 157.01C165.87 158.66 166.42 159.86 167.44 160.41L171.96 162.99C171.13 162.53 170.48 161.33 170.48 159.58Z" fill="#5F4E7E" fill-opacity="1.000000" fill-rule="nonzero"/>
	<path id="Vector" d="M149.53 241.39L149.53 194.18L166.42 231.64L149.53 241.39Z" fill="#FF5A71" fill-opacity="1.000000" fill-rule="nonzero"/>
	<path id="Vector" d="M149.53 194.18L132.64 231.64L149.53 241.39L149.53 194.18Z" fill="#FEB06D" fill-opacity="1.000000" fill-rule="nonzero"/>
	<path id="Vector" d="M149.53 194.83L149.53 188.48" stroke="#EDD8FF" stroke-opacity="1.000000" stroke-width="0.339373" stroke-linecap="round"/>
	<path id="Vector" d="M157.38 180.1C157.38 183.51 154.98 187.65 152.02 189.31C149.07 190.96 146.67 189.67 146.67 186.27C146.67 182.87 149.07 178.72 152.02 177.07C154.98 175.41 157.38 176.79 157.38 180.1Z" fill="#A481B5" fill-opacity="1.000000" fill-rule="nonzero"/>
	<path id="Vector" d="M153.71 183.48L151.58 184.7L151.11 186.49L150.41 186.89L152.36 179.98L152.94 179.64L154.89 184.31L154.2 184.71L153.71 183.48ZM151.79 183.96L153.52 182.96L152.65 180.75L151.79 183.96Z" fill="#FFFFFF" fill-opacity="1.000000" fill-rule="nonzero"/>
	<path id="Vector" d="" fill="#1F909F" fill-opacity="1.000000" fill-rule="nonzero"/>
	<path id="Vector" d="M146.67 186.27C146.67 182.87 149.07 178.72 152.02 177.07C153.5 176.24 154.79 176.15 155.81 176.7L151.28 174.12C150.27 173.57 148.98 173.57 147.41 174.49C144.45 176.15 142.05 180.29 142.05 183.69C142.05 185.35 142.61 186.55 143.62 187.1L148.15 189.67C147.22 189.12 146.67 188.02 146.67 186.27Z" fill="#5F4E7E" fill-opacity="1.000000" fill-rule="nonzero"/>
</svg>
