<svg width="180.081314" height="111.214722" viewBox="0 0 180.081 111.215" fill="none" xmlns="http://www.w3.org/2000/svg" xmlns:xlink="http://www.w3.org/1999/xlink">
	<desc>
			Created with Pixso.
	</desc>
	<defs/>
	<path id="Vector" d="M102.42 22.11L113 15.95L110.71 1.32L85.67 0L75.1 6.16L100.04 7.57L102.42 22.11ZM83.82 33.04L94.4 26.87L92.11 12.24L67.07 10.92L56.5 17.09L81.44 18.5L83.82 33.04ZM65.75 43.62L76.33 37.45L74.04 22.82L49.01 21.5L38.43 27.67L63.37 29.08L65.75 43.62ZM28.47 65.47L39.05 59.3L36.75 44.68L11.72 43.35L1.14 49.52L26.09 50.93L28.47 65.47ZM47.15 54.54L57.73 48.38L55.44 33.75L30.41 32.43L19.83 38.59L44.77 40L47.15 54.54Z" fill="#175297" fill-opacity="1.000000" fill-rule="nonzero"/>
	<path id="Vector" d="M61.43 79.4L46.19 88.3L49.45 109.27L85.32 111.21L100.57 102.31L64.78 100.28L61.43 79.4ZM88.23 63.71L73.07 72.61L76.33 93.58L112.21 95.52L127.45 86.62L91.67 84.6L88.23 63.71ZM114.14 48.55L98.89 57.45L102.16 78.43L138.03 80.37L153.28 71.46L117.49 69.44L114.14 48.55ZM140.94 32.78L125.69 41.68L128.95 62.65L164.83 64.59L180.08 55.69L144.29 53.66L140.94 32.78Z" fill="#175297" fill-opacity="1.000000" fill-rule="nonzero"/>
	<path id="Vector" d="M1.01 97.02L142.47 15.37" stroke="#175297" stroke-opacity="1.000000" stroke-width="4.064353" stroke-dasharray="0.304826 8.12871"/>
</svg>
