<svg width="204.197998" height="204.067627" viewBox="0 0 204.198 204.068" fill="none" xmlns="http://www.w3.org/2000/svg" xmlns:xlink="http://www.w3.org/1999/xlink">
	<desc>
			Created with Pixso.
	</desc>
	<defs>
		<linearGradient x1="170.198608" y1="138.415649" x2="204.347305" y2="136.042572" id="paint_linear_1_33133_0" gradientUnits="userSpaceOnUse">
			<stop stop-color="#7963D3"/>
			<stop offset="0.540000" stop-color="#9487E6"/>
			<stop offset="1.000000" stop-color="#A7A2F4"/>
		</linearGradient>
		<linearGradient x1="170.198471" y1="138.415710" x2="204.347153" y2="136.042648" id="paint_linear_1_33134_0" gradientUnits="userSpaceOnUse">
			<stop stop-color="#3C3551"/>
			<stop offset="0.560000" stop-color="#4F4678"/>
			<stop offset="1.000000" stop-color="#5B5293"/>
		</linearGradient>
	</defs>
	<path id="Vector" d="M165.8 115.78L165.8 114.09L195.19 97.11L195.19 98.79L165.8 115.78ZM165.8 115.78L96.55 75.81L96.55 74.12L165.8 114.09L165.8 115.78Z" fill="#3C3551" fill-opacity="1.000000" fill-rule="nonzero"/>
	<path id="Vector" d="M96.55 74.12L125.94 57.14L195.19 97.11L165.8 114.09L96.55 74.12Z" fill="#5B5293" fill-opacity="1.000000" fill-rule="nonzero"/>
	<path id="Vector" d="M131.25 64.88L126.21 61.97L127.78 61.06L132.82 63.97L131.25 64.88ZM127.89 137.37C124.74 137.54 106.88 117.33 101.88 111.96C96.88 106.6 90.39 107.36 88.42 110.6C85.07 116.19 84.69 124.19 92.48 130.29C100.26 136.38 116.86 151.6 123.43 152.01C130.01 152.41 157.73 152.34 169.02 149.18C172.61 148.18 175.54 147.89 177.65 147.1C179.77 146.31 183.91 146.72 186.69 144.41C187.94 143.38 191.29 140.03 194.37 137.8C198.18 135.03 201.55 133.65 202.15 132.58C204.54 128.21 193.63 124.54 188.94 125.44C184.88 126.23 182.22 126.81 180.23 128.02C182.59 126.37 179.1 125.55 177.47 127.05C175.63 128.75 175.82 130.58 173.79 133.63C172.34 135.6 170.45 137.22 168.28 138.36C168.28 138.36 131.03 137.21 127.89 137.37ZM138.03 68.8L132.99 65.89L134.57 64.97L139.6 67.88L138.03 68.8ZM144.81 72.72L139.77 69.81L141.35 68.9L146.38 71.8L144.81 72.72ZM151.59 76.63L146.55 73.72L148.13 72.81L153.16 75.72L151.59 76.63ZM158.37 80.55L153.34 77.63L154.91 76.72L159.95 79.63L158.37 80.55ZM165.15 84.46L160.11 81.55L161.69 80.64L166.72 83.55L165.15 84.46ZM171.94 88.37L166.9 85.46L168.47 84.55L173.51 87.46L171.94 88.37ZM178.71 92.28L173.67 89.37L175.25 88.46L180.28 91.37L178.71 92.28ZM126.22 67.8L121.18 64.89L125.04 62.66L130.08 65.56L126.22 67.8ZM133 71.71L127.97 68.8L131.83 66.57L136.87 69.48L133 71.71ZM139.78 75.63L134.74 72.72L138.61 70.48L143.64 73.39L139.78 75.63ZM146.56 79.54L141.53 76.64L145.39 74.39L150.43 77.3L146.56 79.54ZM153.34 83.46L148.31 80.55L152.17 78.31L157.21 81.22L153.34 83.46ZM160.12 87.37L155.09 84.46L158.95 82.22L163.99 85.13L160.12 87.37ZM166.91 91.29L161.87 88.38L165.73 86.13L170.77 89.04L166.91 91.29ZM173.68 95.2L168.65 92.29L172.51 90.06L177.55 92.96L173.68 95.2ZM120.56 71.09L115.52 68.18L119.39 65.93L124.43 68.84L120.56 71.09ZM127.34 75L122.3 72.09L126.17 69.84L131.2 72.75L127.34 75ZM134.12 78.91L129.08 76L132.95 73.76L137.99 76.67L134.12 78.91ZM140.9 82.82L135.87 79.91L139.73 77.68L144.77 80.58L140.9 82.82ZM147.68 86.74L142.65 83.83L146.51 81.59L151.55 84.5L147.68 86.74ZM154.47 90.65L149.43 87.75L153.29 85.51L158.33 88.42L154.47 90.65ZM161.24 94.56L156.21 91.66L160.07 89.42L165.11 92.33L161.24 94.56ZM168.03 98.49L162.99 95.58L166.85 93.33L171.89 96.24L168.03 98.49ZM114.9 74.36L109.86 71.45L113.73 69.22L118.76 72.13L114.9 74.36ZM121.68 78.27L116.64 75.37L120.51 73.13L125.55 76.04L121.68 78.27ZM128.46 82.2L123.43 79.29L127.29 77.04L132.33 79.95L128.46 82.2ZM135.24 86.11L130.2 83.2L134.07 80.95L139.11 83.86L135.24 86.11ZM142.03 90.02L136.99 87.11L140.85 84.87L145.89 87.78L142.03 90.02ZM148.8 93.93L143.76 91.02L147.63 88.79L152.67 91.69L148.8 93.93ZM155.59 97.85L150.55 94.94L154.41 92.71L159.45 95.61L155.59 97.85ZM162.36 101.76L157.33 98.85L161.2 96.62L166.23 99.53L162.36 101.76ZM109.24 77.64L104.2 74.74L108.07 72.49L113.11 75.4L109.24 77.64ZM143.15 97.22L110.99 78.65L114.85 76.41L147.01 94.98L143.15 97.22ZM149.92 101.13L144.89 98.22L148.76 95.98L153.79 98.89L149.92 101.13ZM156.71 105.05L151.67 102.14L155.53 99.89L160.57 102.8L156.71 105.05ZM185.84 96.45L180.8 93.54L182.37 92.62L187.41 95.53L185.84 96.45ZM180.81 99.36L175.77 96.45L179.63 94.22L184.67 97.12L180.81 99.36ZM175.14 102.65L170.11 99.74L173.98 97.49L179.01 100.4L175.14 102.65ZM169.49 105.92L164.45 103.02L168.31 100.78L173.35 103.69L169.49 105.92ZM163.83 109.21L158.79 106.3L162.65 104.05L167.7 106.97L163.83 109.21Z" fill="#F7F7F7" fill-opacity="1.000000" fill-rule="nonzero"/>
	<path id="Vector" d="M64.3 87.44C64.3 87.44 68.75 102.44 53.26 108.61C53.26 108.61 38.11 98.32 33.84 95.62C27.85 91.82 21.24 81.91 28.33 74.31C33.72 68.49 42.26 71.82 48.43 76.41C54.6 80.99 64.3 87.44 64.3 87.44Z" fill="#175297" fill-opacity="1.000000" fill-rule="nonzero"/>
	<path id="Vector" d="M61.12 89.94L74.08 96.62C74.08 96.62 99.63 85.9 102.58 83.46C105.53 81.02 114.23 73.62 118.74 73.13C123.24 72.64 135.69 75.97 134.09 78.91C132.49 81.84 125.03 82.97 122.14 85.1C119.25 87.24 128.57 85.83 130.18 85.51C131.79 85.19 131.72 87.75 129.49 88.37C127.27 88.99 123.45 90.06 121.22 90.06C118.99 90.06 116.4 88.79 112.48 90.38C108.57 91.96 88.58 105.45 68.12 109.21C65.64 109.15 54.19 107.68 49.04 103.36C43.89 99.03 61.12 89.94 61.12 89.94Z" fill="#F2C9BB" fill-opacity="1.000000" fill-rule="nonzero"/>
	<path id="Vector" d="M190.69 145.41L201.49 138.12C202.36 137.53 203.06 136.73 203.51 135.79C203.97 134.85 204.18 133.8 204.1 132.76C204.03 131.72 203.69 130.71 203.1 129.85C202.52 128.98 201.72 128.28 200.78 127.82C198.16 126.55 195.25 125.98 192.35 126.19C189.44 126.39 186.64 127.35 184.23 128.98L173.01 136.55C172.16 137.13 171.48 137.91 171.04 138.83C170.59 139.74 170.39 140.76 170.46 141.78C170.53 142.8 170.87 143.78 171.44 144.63C172.01 145.47 172.79 146.16 173.71 146.6C176.4 147.91 179.38 148.49 182.36 148.28C185.34 148.07 188.21 147.08 190.69 145.41Z" fill="url(#paint_linear_1_33133_0)" fill-opacity="1.000000" fill-rule="nonzero"/>
	<path id="Vector" d="M200.81 127.82C198.19 126.55 195.28 125.98 192.38 126.19C189.47 126.39 186.67 127.35 184.26 128.98L173.04 136.55C172.4 136.98 171.86 137.53 171.44 138.17C171.02 138.8 170.72 139.52 170.58 140.27C170.43 141.02 170.44 141.79 170.59 142.53C170.74 143.28 171.04 144 171.47 144.63C172.04 145.47 172.82 146.16 173.74 146.6C175.78 147.6 178.01 148.18 180.28 148.31C182.55 148.43 184.83 148.1 186.97 147.33C188.65 142.99 197.29 135.37 203.68 135.62C204.31 134.2 204.36 132.59 203.82 131.13C203.29 129.68 202.2 128.49 200.81 127.82Z" fill="url(#paint_linear_1_33134_0)" fill-opacity="1.000000" fill-rule="nonzero"/>
	<path id="Vector" d="M72.23 89.37C67.4 93.74 49.32 83.47 49.66 76.33C45.25 74.61 39.55 71.95 34.18 73.57C23.56 76.86 25.14 93.24 24.13 101.98C22.68 114.49 22.67 159.87 22.67 159.87L89.41 198.48C89.41 198.48 88.88 154.44 91.51 144.63C94.85 132.18 97.8 111.25 92.63 104.94C86.09 96.95 72.23 89.37 72.23 89.37Z" fill="#0176FF" fill-opacity="1.000000" fill-rule="nonzero"/>
	<path id="Vector" d="M95.07 27.36C98.48 34.88 95.14 38.83 95.4 44.37C95.4 49.26 99.08 69.72 89.43 71.9C85.72 72.82 81.88 73.08 78.08 72.64L72.19 89.37C70.61 93.11 47.82 89.73 49.62 78.47L50.76 68.58C45.62 66.21 36.14 57.7 36.14 40.9C36.14 24.09 54.04 11.14 70.16 11.14C86.28 11.14 94.15 25.32 95.07 27.36Z" fill="#F2C9BB" fill-opacity="1.000000" fill-rule="nonzero"/>
	<path id="Vector" d="M80.99 48.66C78.35 47.09 72 54.96 80.18 62.07C80.51 64.01 79.22 67.02 77.17 69.28C75.12 71.55 78.89 71.76 73.4 74.57C67.91 77.37 56.38 76 54.72 78.07C54.72 76.16 53.14 75.26 50.36 69.79C46.6 64.81 41.33 64.77 36.92 54.61C36.92 54.61 33.72 48.79 33.83 43.04C33.83 43.04 32.28 45.56 32.5 50.4C32.5 50.4 26.92 34.04 40.15 23.6C40.15 23.6 45.04 17.59 40.91 19.92C40.91 19.92 41.83 16.15 48.34 14.12C50.09 13.57 51.65 12.56 52.86 11.19C54.56 9.26 57.4 8.68 60.41 8.19C71.3 6.35 85.55 5.42 84.27 0C86.74 0.81 100.55 18.76 96.04 29.88C91.52 41 81.53 40.53 81.79 44.23C82.06 47.93 80.99 48.66 80.99 48.66Z" fill="#754D3E" fill-opacity="1.000000" fill-rule="nonzero"/>
	<path id="Vector" d="M127.89 137.37C124.74 137.54 106.88 117.33 101.88 111.96C96.88 106.6 90.39 107.36 88.42 110.6C85.07 116.19 84.69 124.19 92.48 130.29C100.26 136.38 116.86 151.6 123.43 152.01C130.01 152.41 157.73 152.34 169.02 149.18C172.61 148.18 175.54 147.89 177.65 147.1C179.77 146.31 183.91 146.71 186.69 144.41C187.94 143.38 191.29 140.03 194.37 137.8C198.18 135.03 201.55 133.65 202.15 132.58C204.54 128.21 193.63 124.54 188.94 125.44C184.88 126.23 182.22 126.81 180.23 128.02C182.59 126.37 179.1 125.55 177.47 127.05C175.63 128.75 175.82 130.58 173.79 133.63C172.34 135.6 170.45 137.22 168.28 138.36C168.28 138.36 131.03 137.21 127.89 137.37Z" fill="#F2C9BB" fill-opacity="1.000000" fill-rule="nonzero"/>
	<path id="Vector" d="M110.47 118.34C110.47 118.34 112.02 133.91 95.67 137.09C95.67 137.09 82.61 124.2 79.03 120.67C75.46 117.13 70.69 106.05 77.6 98.69C83.37 92.54 90.61 97.65 95.8 103.29C101 108.93 110.47 118.34 110.47 118.34Z" fill="#175297" fill-opacity="1.000000" fill-rule="nonzero"/>
	<path id="Vector" d="M93.98 204.06C93.98 204.06 86.25 169.77 83.38 156.57C81.88 149.66 78.95 143.13 74.79 137.42C70.62 131.7 65.31 126.92 59.19 123.37L25.57 103.94C12.5 96.39 -2.28 106.52 1.01 121.27C2.97 130.09 5.89 150.73 5.89 150.73L93.98 204.06Z" fill="#175297" fill-opacity="1.000000" fill-rule="nonzero"/>
	<path id="Vector" d="M80.45 195.94C80.45 195.94 74.45 163.74 72.11 151.15C69.78 138.61 63.01 128.39 53.43 122.95L18.11 102.9C9 97.72 -2 108.58 0.3 120.48C2.12 129.87 6 151.15 6 151.15L80.45 195.94Z" fill="#0176FF" fill-opacity="1.000000" fill-rule="nonzero"/>
</svg>
