<svg width="262.150879" height="271.458618" viewBox="0 0 262.151 271.459" fill="none" xmlns="http://www.w3.org/2000/svg" xmlns:xlink="http://www.w3.org/1999/xlink">
	<desc>
			Created with Pixso.
	</desc>
	<defs/>
	<path id="Vector" d="M124.74 3.01C112.29 3.01 102.13 13.17 102.13 25.61C102.13 38.06 112.29 48.21 124.74 48.21C128.85 48.21 132.79 47.11 136.36 45.01L137.73 44.19L139.2 44.83L150.18 49.95L144.41 39.89L143.5 38.33L144.41 36.77C146.43 33.3 147.43 29.46 147.43 25.43C147.43 13.17 137.27 3.01 124.74 3.01ZM124.74 0C138.92 0 150.36 11.52 150.36 25.61C150.36 30.28 149.08 34.67 146.88 38.42L157.5 56.81L137.82 47.57C133.98 49.86 129.5 51.23 124.64 51.23C110.46 51.23 99.02 39.7 99.02 25.61C99.11 11.43 110.64 0 124.74 0Z" fill="#175297" fill-opacity="1.000000" fill-rule="nonzero"/>
	<path id="Vector" d="M112.93 20.4C112.93 13.9 118.42 11.07 124.55 11.07C130.69 11.07 136.36 13.72 136.27 20.31C136.27 26.62 130.5 27.26 127.94 29C126.75 29.82 126.29 31.01 126.29 33.02L126.29 33.21L120.53 33.21L120.53 32.93C120.53 26.98 123 25.61 125.29 24.42C127.57 23.23 130.23 22.87 130.23 20.21C130.23 16.83 127.12 16.1 124.46 16.1C121.72 16.1 118.79 17.65 118.79 20.4L112.93 20.4ZM126.84 38.51C126.84 43.09 119.89 43.09 119.89 38.51C119.89 33.94 126.84 33.94 126.84 38.51Z" fill="#175297" fill-opacity="1.000000" fill-rule="nonzero"/>
	<path id="Vector" d="M182.03 45.56C186.47 45.56 190.08 41.5 190.08 36.5C190.08 31.5 186.47 27.44 182.03 27.44C177.58 27.44 173.97 31.5 173.97 36.5C173.97 41.5 177.58 45.56 182.03 45.56Z" fill="#A78BBF" fill-opacity="1.000000" fill-rule="nonzero"/>
	<path id="Vector" d="M183.67 45.28C187.62 45.28 190.81 41.35 190.81 36.5C190.81 31.65 187.62 27.72 183.67 27.72C179.73 27.72 176.54 31.65 176.54 36.5C176.54 41.35 179.73 45.28 183.67 45.28Z" fill="#FF6634" fill-opacity="1.000000" fill-rule="nonzero"/>
	<path id="Vector" d="M144.96 150.59L138.56 147.02C139.01 146.2 150.36 126.8 183.58 128.08L183.31 135.4C154.57 134.31 145.05 150.41 144.96 150.59Z" fill="#6F7D86" fill-opacity="1.000000" fill-rule="nonzero"/>
	<path id="Vector" d="M222.75 41.44C223.21 41.17 241.79 48.49 251.22 58.83C260.64 69.16 262.01 79.14 262.1 96.06C262.2 112.99 262.1 136.32 262.1 136.32C262.1 136.32 261.83 153.98 256.16 166.51C250.48 179.05 250.03 181.06 243.89 182.62C237.76 184.17 239.68 178.68 239.68 178.68L222.75 41.44Z" fill="#6E7D86" fill-opacity="1.000000" fill-rule="nonzero"/>
	<path id="Vector" d="M221.2 44.37C221.2 44.37 244.26 53.34 249.57 64.96C254.88 76.57 256.43 90.57 255.24 123.69C254.05 156.81 247.92 174.47 243.53 179.78C239.14 185.08 236.21 177.86 236.21 177.86L244.26 108.87L221.2 44.37Z" fill="#8997A0" fill-opacity="1.000000" fill-rule="nonzero"/>
	<path id="Vector" d="M242.89 181.61C243.8 181.97 245.82 182.34 244.72 188.29C243.62 194.23 240.87 196.06 240.87 196.06C240.87 196.06 237.95 191.95 238.4 191.58C238.86 191.22 242.89 181.61 242.89 181.61Z" fill="#6E7D86" fill-opacity="1.000000" fill-rule="nonzero"/>
	<path id="Vector" d="M242.43 180.14C242.43 180.14 236.11 189.29 233.83 190.85C231.54 192.4 235.11 193.04 235.84 192.68C236.57 192.4 240.78 190.39 240.78 190.39L243.98 181.06L242.43 180.14Z" fill="#8997A0" fill-opacity="1.000000" fill-rule="nonzero"/>
	<path id="Vector" d="M215.89 46.02C215.89 46.02 228.43 47.84 244.08 61.84C253.32 70.08 251.31 111.62 250.85 127.99C250.39 144.1 246.91 168.07 240.87 171.91C234.83 175.75 240.14 173.83 240.14 173.83L237.4 178.31L238.13 179.69L242.06 180.6L235.02 190.03C235.02 190.03 224.95 185.54 224.31 184.44C223.67 183.44 207.47 62.67 207.29 60.47C207.1 58.28 215.89 46.02 215.89 46.02Z" fill="#313644" fill-opacity="1.000000" fill-rule="nonzero"/>
	<path id="Vector" d="M169.58 155.53C170.22 153.89 174.89 146.93 178.64 146.11C182.39 145.28 220.37 160.02 222.39 160.66C224.4 161.3 230.81 163.03 231.36 163.95C231.9 164.87 236.57 168.07 236.57 168.07L225.96 190.48L169.58 155.53Z" fill="#17B92F" fill-opacity="1.000000" fill-rule="nonzero"/>
	<path id="Vector" d="M175.16 108.78C175.16 108.78 176.44 117.56 177.36 121.04C178.27 124.52 179.1 130.1 178.64 132.75C178.18 135.4 173.52 143.18 172.6 144.55C171.69 145.92 171.32 147.66 172.6 148.4C173.88 149.13 182.58 155.62 187.33 157.73C192.09 159.83 204.54 164.87 206.1 165.87C207.65 166.88 210.31 168.43 214.24 168.62C218.18 168.8 224.31 169.71 227.42 168.62C230.53 167.52 235.29 167.15 235.2 165.32C235.11 163.49 230.99 145.28 226.51 138.97C222.02 132.66 220.01 115.09 220.01 115.09L175.16 108.78Z" fill="#D34723" fill-opacity="1.000000" fill-rule="nonzero"/>
	<path id="Vector" d="M247.55 173.83C247.55 173.83 249.02 166.88 244.72 166.51C214.79 166.97 204.36 184.72 203.9 185.45L210.31 189.02C210.4 188.93 219.64 173.19 247.55 173.83Z" fill="#6F7D86" fill-opacity="1.000000" fill-rule="nonzero"/>
	<path id="Vector" d="M99.11 115.18L101.31 115.92C101.31 115.92 104.6 113.35 113.2 108.78C121.81 104.21 128.4 102.47 129.13 102.28C129.86 102.1 130.23 101.83 130.78 101.37C131.33 100.91 140.02 93.32 142.58 91.49C145.14 89.66 145.24 89.84 146.7 87.74C148.16 85.63 161.16 71.36 167.84 65.69C174.52 60.01 181.02 55.9 186.33 56.81C191.64 57.73 192 63.4 192 63.4C192 63.4 175.62 92.31 175.35 92.68C175.07 93.04 170.04 95.51 170.04 95.51C170.04 95.51 153.02 107.04 150.91 108.69C148.8 110.34 142.31 114.36 139.1 115.83C135.9 117.29 119.34 125.71 118.51 125.71C117.69 125.71 99.11 115.18 99.11 115.18Z" fill="#D34723" fill-opacity="1.000000" fill-rule="nonzero"/>
	<path id="Vector" d="M184.59 52.05C184.59 52.05 181.66 64.68 180.38 69.99C179.01 75.29 174.25 88.29 172.6 91.21C170.95 94.14 167.48 102.74 171.32 108.05C175.16 113.35 184.22 117.65 189.44 119.21C194.66 120.77 207.19 123.78 214.24 119.94C221.29 116.1 225.13 103.84 225.13 103.84L233.19 70.72L232.27 69.35L221.56 61.94L204.63 54.52L184.59 52.05Z" fill="#F25A29" fill-opacity="1.000000" fill-rule="nonzero"/>
	<path id="Vector" d="M236.48 73.65C236.48 73.65 234.28 67.33 226.5 70.44C218.73 73.56 218.82 89.48 218.18 97.07C217.54 104.66 213.42 121.68 212.5 124.7C211.59 127.72 210.49 132.57 206.55 137.42C202.62 142.27 188.98 159.28 186.24 161.02C183.49 162.76 179.83 166.05 179.83 166.05C179.83 166.05 185.78 166.6 187.06 172.92C188.34 179.23 188.34 180.14 188.34 180.14C188.34 180.14 191 174.84 194.38 172.73C197.77 170.63 212.14 158.19 214.52 156.27C216.89 154.34 224.67 145.74 227.14 141.26C229.62 136.78 231.81 132.11 235.2 120.22C238.58 108.32 241.15 102.1 240.87 91.85C240.6 81.61 236.48 73.65 236.48 73.65Z" fill="#F77156" fill-opacity="1.000000" fill-rule="nonzero"/>
	<path id="Vector" d="M195.57 192.95L195.57 194.69L166.29 211.53L166.29 209.88L195.57 192.95ZM97.37 170.17L166.29 209.88L166.29 211.53L97.37 171.82L97.37 170.17Z" fill="#3C3551" fill-opacity="1.000000" fill-rule="nonzero"/>
	<path id="Vector" d="M195.48 192.95L166.29 209.88L97.37 170.17L126.57 153.25L195.48 192.95Z" fill="#6863AD" fill-opacity="1.000000" fill-rule="nonzero"/>
	<path id="Vector" d="M160.98 202.19L166.01 205.03L164.46 205.95L159.42 203.11L160.98 202.19ZM154.2 198.26L159.24 201.19L157.68 202.1L152.65 199.17L154.2 198.26ZM147.52 194.42L152.47 197.25L150.91 198.17L145.88 195.33L147.52 194.42ZM140.75 190.48L145.78 193.41L144.23 194.33L139.2 191.4L140.75 190.48ZM133.98 186.64L139.01 189.48L137.46 190.39L132.42 187.56L133.98 186.64ZM127.21 182.71L132.24 185.63L130.68 186.55L125.65 183.62L127.21 182.71ZM120.53 178.86L125.47 181.7L123.91 182.61L118.88 179.69L120.53 178.86ZM113.75 174.93L118.79 177.86L117.14 178.77L112.2 175.84L113.75 174.93ZM166.01 199.27L171.04 202.19L167.2 204.39L162.17 201.46L166.01 199.27ZM159.24 195.42L164.27 198.26L160.43 200.46L155.39 197.62L159.24 195.42ZM152.47 191.49L157.5 194.42L153.66 196.61L148.62 193.68L152.47 191.49ZM145.78 187.56L150.73 190.48L146.88 192.68L141.85 189.84L145.78 187.56ZM139.01 183.71L144.05 186.64L140.2 188.84L135.17 185.91L139.01 183.71ZM132.24 179.78L137.27 182.71L133.43 184.9L128.4 182.07L132.24 179.78ZM125.47 175.94L130.5 178.77L126.66 181.06L121.62 178.13L125.47 175.94ZM118.79 172L123.73 174.93L119.89 177.13L114.85 174.29L118.79 172ZM171.59 195.97L176.63 198.9L172.78 201.1L167.75 198.26L171.59 195.97ZM164.91 192.13L169.85 194.97L166.01 197.25L161.07 194.33L164.91 192.13ZM158.14 188.2L163.17 191.12L159.33 193.32L154.3 190.48L158.14 188.2ZM151.37 184.35L156.4 187.19L152.56 189.48L147.52 186.55L151.37 184.35ZM144.59 180.42L149.63 183.35L145.78 185.54L140.75 182.71L144.59 180.42ZM137.91 176.58L142.86 179.41L139.01 181.7L134.07 178.77L137.91 176.58ZM131.14 172.64L136.17 175.57L132.33 177.77L127.3 174.93L131.14 172.64ZM124.37 168.8L129.4 171.64L125.56 173.92L120.53 171L124.37 168.8ZM177.27 192.77L182.3 195.61L178.46 197.89L173.42 194.97L177.27 192.77ZM170.49 188.84L175.53 191.76L171.68 193.96L166.65 191.12L170.49 188.84ZM163.72 184.99L168.76 187.83L164.91 190.12L159.88 187.19L163.72 184.99ZM157.04 181.06L161.98 183.99L158.14 186.18L153.2 183.25L157.04 181.06ZM150.27 177.22L155.3 180.05L151.46 182.34L146.42 179.41L150.27 177.22ZM143.5 173.28L148.53 176.21L144.69 178.41L139.65 175.48L143.5 173.28ZM136.72 169.44L141.76 172.28L137.91 174.56L132.88 171.64L136.72 169.44ZM130.04 165.51L134.99 168.43L131.14 170.63L126.2 167.7L130.04 165.51ZM182.85 189.48L187.88 192.4L184.04 194.6L179.01 191.67L182.85 189.48ZM149.17 169.99L181.11 188.47L177.27 190.76L145.33 172.28L149.17 169.99ZM142.4 166.15L147.43 169.07L143.59 171.27L138.56 168.34L142.4 166.15ZM135.63 162.21L140.66 165.14L136.82 167.34L131.78 164.5L135.63 162.21ZM106.61 170.81L111.65 173.65L110.09 174.56L105.06 171.73L106.61 170.81ZM111.65 167.88L116.68 170.81L112.84 173.01L107.8 170.08L111.65 167.88ZM117.32 164.59L122.26 167.52L118.42 169.71L113.48 166.88L117.32 164.59ZM122.91 161.39L127.94 164.22L124.1 166.51L119.06 163.58L122.91 161.39ZM128.58 158.09L133.61 161.02L129.77 163.22L124.74 160.38L128.58 158.09Z" fill="#F7F7F7" fill-opacity="1.000000" fill-rule="nonzero"/>
	<path id="Vector" d="M181.2 35.49C181.2 35.49 179.74 42.08 181.57 49.49C183.4 56.9 186.24 64.13 187.15 64.68C188.07 65.23 189.62 65.69 191.82 65.69C194.02 65.69 191.82 44.83 191.82 44.83L181.2 35.49Z" fill="#EAAD8F" fill-opacity="1.000000" fill-rule="nonzero"/>
	<path id="Vector" d="M191.91 63.49C191.91 63.49 192.83 67.88 192.73 72.27C192.64 76.67 191.82 80.6 195.3 80.78C198.78 80.97 202.53 80.87 206.92 74.47C211.31 68.07 215.34 61.75 215.16 56.72C214.97 51.69 216.25 49.95 215.89 49.58C215.52 49.22 213.05 49.04 213.05 49.04L191.91 63.49Z" fill="#EAAD8F" fill-opacity="1.000000" fill-rule="nonzero"/>
	<path id="Vector" d="M184.68 23.05C184.68 23.05 181.94 27.63 181.2 32.02C180.47 36.41 180.29 38.61 180.47 39.34C180.65 40.07 180.84 40.25 182.58 41.17C184.32 42.08 185.96 41.62 184.77 47.3C183.58 52.97 182.3 55.35 184.04 55.71C185.78 56.08 186.33 55.99 186.42 56.9C186.51 57.82 186.33 58.18 186.97 58.55C187.61 58.92 187.61 58 187.79 59.28C187.98 60.56 188.43 65.32 188.43 65.32C188.43 65.32 191.45 66.51 195.21 65.32C198.96 64.13 204.27 61.84 209.02 57.18C213.78 52.51 219.73 44.46 220.46 42.63C221.2 40.8 211.5 24.7 211.22 24.61C210.95 24.52 184.68 23.05 184.68 23.05Z" fill="#F2C9BB" fill-opacity="1.000000" fill-rule="nonzero"/>
	<path id="Vector" d="M187.24 35.86C187.24 35.86 186.33 36.41 185.51 35.22C184.68 34.03 183.49 32.29 182.67 31.56C181.84 30.83 180.93 31.19 181.02 30.46C181.11 29.73 181.75 22.04 187.24 18.2C192.73 14.36 196.58 12.07 203.35 12.53C210.12 12.99 214.15 14.08 219.46 22.5C224.77 30.92 227.05 54.25 228.52 59.01C229.98 63.77 233.09 69.62 233.92 70.54C234.74 71.45 217.26 61.2 217.26 61.2L215.25 57.09L214.97 49.13C214.97 49.13 217.72 47.2 218.82 44.46C219.92 41.72 217.35 40.25 215.43 41.26C213.51 42.26 211.68 44.55 210.95 45.38C210.21 46.2 210.03 46.84 209.94 46.66C209.85 46.47 209.21 42.17 205.73 42.08C202.25 41.99 200.33 44.55 200.33 44.55C200.33 44.55 197.13 36.23 193.56 35.68C189.99 35.13 189.62 35.49 187.24 35.86Z" fill="#563318" fill-opacity="1.000000" fill-rule="nonzero"/>
	<path id="Vector" d="M181.2 165.96C181.2 165.96 178.46 167.7 175.9 168.16C173.33 168.62 170.77 169.53 168.85 171.73C166.93 173.92 161.44 184.35 161.07 187.01C160.79 189.66 160.89 191.03 165.55 191.49C170.22 191.95 174.98 187.28 178.82 184.08C182.67 180.88 188.43 174.93 188.8 170.81C189.35 166.6 181.2 165.96 181.2 165.96Z" fill="#F2C9BB" fill-opacity="1.000000" fill-rule="nonzero"/>
	<path id="Vector" d="M178.92 184.08C182.76 180.88 188.52 174.93 188.89 170.81C188.89 170.45 188.89 170.08 188.8 169.81C188.34 169.9 188.07 169.99 187.97 170.26C187.24 171.64 183.13 178.59 180.65 180.51C178.18 182.52 172.87 184.99 170.95 183.07C169.03 181.15 168.21 181.61 165.83 184.35C164.18 186.37 162.9 188.93 162.17 190.57C162.9 190.94 163.91 191.31 165.64 191.4C170.31 191.95 175.07 187.19 178.92 184.08Z" fill="#EAAD8F" fill-opacity="1.000000" fill-rule="nonzero"/>
	<path id="Vector" d="M186.79 17.65C186.79 17.65 194.2 10.7 203.81 18.57C213.42 26.53 214.06 33.11 214.06 33.11L218.18 33.3C218.18 33.3 215.34 14.45 200.24 12.62C200.24 12.62 191.54 12.16 186.79 17.65Z" fill="#7A67A5" fill-opacity="1.000000" fill-rule="nonzero"/>
	<path id="Vector" d="M216.07 49.49C220.52 49.49 224.13 45.44 224.13 40.43C224.13 35.43 220.52 31.38 216.07 31.38C211.62 31.38 208.02 35.43 208.02 40.43C208.02 45.44 211.62 49.49 216.07 49.49Z" fill="#A78BBF" fill-opacity="1.000000" fill-rule="nonzero"/>
	<path id="Vector" d="M219.09 50.13C223.03 50.13 226.23 46.2 226.23 41.35C226.23 36.5 223.03 32.57 219.09 32.57C215.15 32.57 211.95 36.5 211.95 41.35C211.95 46.2 215.15 50.13 219.09 50.13Z" fill="#FF6634" fill-opacity="1.000000" fill-rule="nonzero"/>
	<path id="Vector" d="M215.43 49.13L209.94 64.41C209.55 65.73 208.74 66.89 207.64 67.72C206.53 68.54 205.19 68.98 203.81 68.98L193.01 68.98" stroke="#311D3B" stroke-opacity="1.000000" stroke-width="1.016088"/>
	<path id="Vector" d="M193.01 70.81L188.8 70.81C188.58 70.81 188.37 70.77 188.17 70.69C187.97 70.61 187.79 70.48 187.63 70.33C187.48 70.18 187.36 70 187.28 69.8C187.19 69.6 187.15 69.38 187.15 69.16C187.15 68.25 187.88 67.52 188.8 67.52L193.01 67.52C193.92 67.52 194.66 68.25 194.66 69.16C194.56 70.08 193.83 70.81 193.01 70.81Z" fill="#311D3B" fill-opacity="1.000000" fill-rule="nonzero"/>
	<path id="Vector" d="M238.95 204.02L166.1 246.11C158.51 250.5 145.33 249.95 136.63 244.92L68.63 205.67C59.94 200.64 58.93 193.04 66.53 188.65L139.38 146.57C146.97 142.17 160.15 142.72 168.85 147.76L236.85 187.01C245.63 192.04 246.55 199.63 238.95 204.02Z" fill="#175297" fill-opacity="1.000000" fill-rule="nonzero"/>
	<path id="Vector" d="M129.77 271.45C121.35 271.45 112.47 269.44 105.61 265.42L10.98 210.79C4.02 206.77 0 201.28 0 195.79C0 191.12 2.83 186.92 8.05 183.9L109.45 125.43C120.43 119.12 139.65 119.85 152.28 127.17L246.91 181.79C253.87 185.82 257.9 191.31 257.9 196.8C257.9 201.46 255.06 205.67 249.84 208.69L148.44 267.15C143.5 269.99 136.82 271.45 129.77 271.45ZM128.12 124.7C121.81 124.7 115.68 125.98 111.19 128.54L9.79 187.01C5.76 189.29 3.56 192.4 3.56 195.7C3.56 199.91 6.86 204.21 12.72 207.5L107.35 262.12C118.97 268.8 136.54 269.62 146.61 263.86L248.01 205.4C252.04 203.11 254.24 200 254.24 196.7C254.24 192.5 250.94 188.2 245.08 184.9L150.45 130.28C144.05 126.62 135.9 124.7 128.12 124.7Z" fill="#175297" fill-opacity="1.000000" fill-rule="nonzero"/>
	<path id="Vector" d="M51.98 87.1C51.98 87.1 50.88 84.53 55 86.46C59.12 88.38 149.99 140.89 149.99 140.89C149.99 140.89 153.75 142.45 154.02 147.3C154.3 152.15 160.15 215 160.15 215C160.15 215 160.43 219.39 157.13 217.47C153.75 215.46 62.14 162.67 62.14 162.67C62.14 162.67 58.02 160.66 57.56 155.26C57.1 149.86 51.98 87.1 51.98 87.1Z" fill="#F4E7FF" fill-opacity="1.000000" fill-rule="nonzero"/>
	<path id="Vector" d="M54.81 90.85L52.53 85.72L47.77 88.01L51.89 90.85L54.81 90.85Z" fill="#F4E7FF" fill-opacity="1.000000" fill-rule="nonzero"/>
	<path id="Vector" d="M160.15 215C160.15 215 154.39 152.15 154.02 147.3C153.93 145.56 153.38 144.19 152.65 143.27C151.55 143.73 149.9 144.37 148.26 145.19C149.08 146.2 149.72 147.66 149.9 149.59C150.18 153.61 154.21 197.35 155.58 212.26C153.75 211.16 149.63 208.78 148.9 208.42L154.94 220.22L158.78 217.93L159.6 217.47C160.24 216.56 160.15 215 160.15 215Z" fill="#646977" fill-opacity="1.000000" fill-rule="nonzero"/>
	<path id="Vector" d="M96.46 187.1C94.26 188.1 91.15 189.57 91.15 189.57L87.85 201.92L89.87 209.24L95.27 213.81L100.58 214.36C100.58 214.36 121.72 205.85 125.83 204.02C116.68 198.81 106.34 192.77 96.46 187.1Z" fill="#EDD8FF" fill-opacity="1.000000" fill-rule="nonzero"/>
	<path id="Vector" d="M47.86 89.38C47.86 89.38 46.76 86.82 50.88 88.74C55 90.66 145.88 143.18 145.88 143.18C145.88 143.18 149.63 144.74 149.9 149.59C150.18 154.43 156.03 217.29 156.03 217.29C156.03 217.29 156.31 221.68 153.02 219.76C149.63 217.75 58.02 164.96 58.02 164.96C58.02 164.96 53.9 162.94 53.44 157.55C52.98 152.15 47.86 89.38 47.86 89.38Z" fill="#C4B6D3" fill-opacity="1.000000" fill-rule="nonzero"/>
	<path id="Vector" d="M119.7 180.97L84.38 161.94L81.54 133.21L117.32 153.7L119.7 180.97Z" fill="#49416D" fill-opacity="1.000000" fill-rule="nonzero"/>
	<path id="Vector" d="M118.88 181.7L83.55 162.67L80.72 133.94L116.5 154.43L118.88 181.7Z" fill="#DCD1ED" fill-opacity="1.000000" fill-rule="nonzero"/>
	<path id="Vector" d="M91.33 152.7L104.05 159.65L103.41 161.02L98.47 164.5L95.91 174.84C95.91 174.84 92.52 194.42 92.52 194.78C92.52 195.15 90.87 207.41 90.87 207.68C90.96 207.87 93.8 214.55 93.8 214.55L72.94 202.29C72.94 202.29 68.36 199.08 70.37 193.5C72.39 187.92 82.45 160.93 82.45 160.93C82.45 160.93 83.55 158 86.02 156.08C88.49 154.16 91.33 152.7 91.33 152.7Z" fill="#F4E7FF" fill-opacity="1.000000" fill-rule="nonzero"/>
	<path id="Vector" d="M104.14 212.72C103.59 212.9 90.42 217.47 91.88 205.4C93.34 193.04 94.08 188.29 94.08 188.29C94.08 188.29 96.64 173.1 97.37 168.71C98.1 164.32 103.96 161.39 103.96 161.39L103.96 159.65C103.96 159.65 101.03 161.66 98.65 163.4C96.27 165.14 96 167.79 96 167.79C96 167.79 91.7 191.76 90.42 201.1C89.13 210.43 90.32 212.72 94.44 214.82C98.93 217.11 105.88 213.81 105.88 213.81L124.37 205.3L125.83 204.57L125.83 203.75C123.45 204.66 105.88 212.08 104.14 212.72Z" fill="#49416D" fill-opacity="1.000000" fill-rule="nonzero"/>
</svg>
