<svg width="259.458038" height="270.723145" viewBox="0 0 259.458 270.723" fill="none" xmlns="http://www.w3.org/2000/svg" xmlns:xlink="http://www.w3.org/1999/xlink">
	<desc>
			Created with Pixso.
	</desc>
	<defs>
		<linearGradient x1="115.143143" y1="75.424751" x2="241.453079" y2="75.424751" id="paint_linear_1_33226_0" gradientUnits="userSpaceOnUse">
			<stop stop-color="#57007D"/>
			<stop offset="1.000000" stop-color="#520078"/>
		</linearGradient>
		<linearGradient x1="175.915771" y1="100.155113" x2="277.108002" y2="16.251137" id="paint_linear_1_33228_0" gradientUnits="userSpaceOnUse">
			<stop stop-color="#FFFFFF"/>
			<stop offset="1.000000" stop-color="#FFFFFF" stop-opacity="0.000000"/>
		</linearGradient>
		<linearGradient x1="136.074585" y1="147.892776" x2="90.391205" y2="147.892776" id="paint_linear_1_33237_0" gradientUnits="userSpaceOnUse">
			<stop stop-color="#C0D6FF"/>
			<stop offset="0.300000" stop-color="#C5DBFF"/>
			<stop offset="0.650000" stop-color="#D3E9FF"/>
			<stop offset="1.000000" stop-color="#E9FFFF"/>
		</linearGradient>
		<radialGradient gradientTransform="translate(174.249 121.16) rotate(180) scale(51.1704 51.189)" cx="0.000000" cy="0.000000" r="1.000000" id="paint_radial_1_33239_0" gradientUnits="userSpaceOnUse">
			<stop stop-color="#2B3AA5"/>
			<stop offset="1.000000" stop-color="#182484"/>
		</radialGradient>
		<radialGradient gradientTransform="translate(-59979.2 30463.9) rotate(0) scale(2092.08 2635.84)" cx="0.000000" cy="0.000000" r="1.000000" id="paint_radial_1_33240_0" gradientUnits="userSpaceOnUse">
			<stop stop-color="#2B3AA5"/>
			<stop offset="1.000000" stop-color="#182484"/>
		</radialGradient>
	</defs>
	<path id="Vector" d="M235.47 195.45L162.17 237.82C154.56 242.22 141.27 241.66 132.48 236.59L64.02 197.05C55.24 191.98 54.28 184.3 61.89 179.91L135.2 137.53C142.8 133.14 156.1 133.69 164.88 138.77L233.34 178.31C242.13 183.37 243.07 191.05 235.47 195.45Z" fill="#175297" fill-opacity="1.000000" fill-rule="nonzero"/>
	<path id="Vector" d="M130.58 263.32C122.13 263.32 113.23 261.27 106.31 257.27L11.05 202.26C4.04 198.21 0 192.71 0 187.18C0 182.48 2.86 178.24 8.05 175.2L110.04 116.3C121.08 109.91 140.42 110.68 153.16 118.01L248.41 173.03C255.41 177.07 259.45 182.57 259.45 188.11C259.45 192.8 256.59 197.04 251.4 200.08L149.46 258.98C144.39 261.89 137.64 263.32 130.58 263.32ZM128.91 115.6C122.53 115.6 116.43 116.88 111.9 119.51L9.91 178.41C5.9 180.73 3.68 183.84 3.68 187.19C3.68 191.38 7.03 195.72 12.89 199.1L108.14 254.11C119.84 260.87 137.55 261.63 147.61 255.82L249.6 196.92C253.61 194.6 255.83 191.48 255.83 188.14C255.83 183.95 252.47 179.6 246.62 176.23L151.37 121.22C144.94 117.51 136.7 115.6 128.91 115.6Z" fill="#175297" fill-opacity="1.000000" fill-rule="nonzero"/>
	<path id="Vector" d="M207.12 88.79L212.45 86.17L212.34 98.77L207.21 101.5L207.12 88.79Z" fill="#A7A2F4" fill-opacity="1.000000" fill-rule="nonzero"/>
	<path id="Vector" d="M116.88 82.72L130.56 1.53L129.47 1.07L131.11 0.15C131.31 0.04 131.53 0 131.76 0.01C131.98 0.03 132.2 0.11 132.38 0.24L241.72 63.39C242.18 63.68 242.56 64.09 242.8 64.58C243.05 65.06 243.17 65.61 243.14 66.15L229.33 147.99C229.31 148.17 229.25 148.34 229.14 148.48C229.04 148.63 228.91 148.74 228.75 148.82L227.13 149.74L226.85 148.23L226.94 148.23L118.29 85.46C117.83 85.17 117.46 84.76 117.21 84.28C116.97 83.8 116.85 83.26 116.88 82.72Z" fill="#EDD8FF" fill-opacity="1.000000" fill-rule="nonzero"/>
	<path id="Vector" d="M241.1 65.59L242.94 64.8C243.15 65.22 243.23 65.69 243.18 66.15L229.37 147.99C229.35 148.17 229.29 148.34 229.18 148.48C229.08 148.63 228.94 148.74 228.79 148.82L227.16 149.74L226.89 148.23L226.98 148.23L221.45 145.05L241.1 65.59Z" fill="#7A76EB" fill-opacity="1.000000" fill-rule="nonzero"/>
	<path id="Vector" d="M116.58 86.49L225.89 149.64C226.74 150.13 227.46 149.84 227.61 148.97L241.42 67.13C241.45 66.58 241.33 66.04 241.08 65.56C240.83 65.07 240.46 64.66 240 64.37L130.66 1.22C129.81 0.73 129.1 1.02 128.95 1.89L115.14 83.73C115.11 84.28 115.23 84.82 115.48 85.31C115.74 85.79 116.11 86.2 116.58 86.49Z" fill="url(#paint_linear_1_33226_0)" fill-opacity="1.000000" fill-rule="nonzero"/>
	<path id="Vector" d="M116.58 86.49L225.89 149.64C226.74 150.13 227.46 149.84 227.61 148.97L241.42 67.13C241.45 66.58 241.33 66.04 241.08 65.56C240.83 65.07 240.46 64.66 240 64.37L130.66 1.22C129.81 0.73 129.1 1.02 128.95 1.89L115.14 83.73C115.11 84.28 115.23 84.82 115.48 85.31C115.74 85.79 116.11 86.2 116.58 86.49Z" fill="#49416D" fill-opacity="1.000000" fill-rule="nonzero"/>
	<g opacity="0.280000">
		<path id="Vector" d="M242.66 66.29C242.66 66.29 130.78 0.43 129.86 0.89C128.94 1.35 127.78 8.26 127.1 13.78L181.89 173.61L227.92 147.81L242.66 66.29Z" fill="url(#paint_linear_1_33228_0)" fill-opacity="1.000000" fill-rule="nonzero"/>
	</g>
	<path id="Vector" d="M132.09 6.43L237.49 67.3L224.41 144.38L119.09 83.54L132.09 6.43Z" fill="#C6E0FF" fill-opacity="1.000000" fill-rule="nonzero"/>
	<path id="Vector" d="M47.85 125.24L53.82 128.35L113.68 93.8C114.29 93.52 114.97 93.38 115.65 93.41C116.32 93.44 116.99 93.63 117.58 93.96L220.76 153.56C221.75 153.01 226.29 150.8 226.29 150.8L224.1 156.49C223.99 156.79 223.77 157.03 223.49 157.17L160.49 193.57C159.87 193.85 159.19 193.98 158.52 193.95C157.84 193.92 157.18 193.73 156.58 193.4L50.94 132.45C50.53 132.26 50.2 131.93 50.01 131.53L47.85 125.24Z" fill="#7963D3" fill-opacity="1.000000" fill-rule="nonzero"/>
	<path id="Vector" d="M158.97 193.98C159.48 193.97 159.98 193.84 160.43 193.61L223.43 157.21C223.71 157.06 223.93 156.82 224.04 156.53L226.23 150.84C226.23 150.84 221.73 153 220.7 153.6L196.43 139.58L158.93 139.58L158.97 193.98Z" fill="#49416D" fill-opacity="1.000000" fill-rule="nonzero"/>
	<path id="Vector" d="M48.77 126.26L157 188.77C157.6 189.11 158.28 189.3 158.98 189.33C159.67 189.36 160.36 189.22 161 188.94L225.58 151.64C226.6 151.05 226.5 150.01 225.29 149.32L117.07 86.81C116.46 86.48 115.78 86.28 115.09 86.25C114.39 86.22 113.7 86.36 113.07 86.65L48.49 123.95C47.45 124.5 47.58 125.53 48.77 126.26Z" fill="#C6E0FF" fill-opacity="1.000000" fill-rule="nonzero"/>
	<path id="Vector" d="M189.64 175.2L189.64 174.01C189.64 173.9 189.58 173.85 189.49 173.89L185.29 176.31C185.25 176.34 185.21 176.39 185.18 176.43C185.15 176.49 185.14 176.54 185.14 176.6L185.14 177.79C185.14 177.9 185.2 177.96 185.29 177.91L189.49 175.5C189.53 175.46 189.57 175.42 189.6 175.37C189.63 175.32 189.64 175.26 189.64 175.2ZM183.38 178.82L183.38 177.63C183.38 177.52 183.32 177.47 183.23 177.51L179.03 179.93C178.99 179.96 178.95 180.01 178.92 180.06C178.89 180.11 178.88 180.16 178.88 180.22L178.88 181.41C178.88 181.52 178.94 181.58 179.03 181.53L183.23 179.12C183.27 179.08 183.31 179.04 183.34 178.99C183.36 178.93 183.38 178.88 183.38 178.82Z" fill="#332D4C" fill-opacity="1.000000" fill-rule="nonzero"/>
	<path id="Vector" d="M208.75 148.1L118.81 96.16C118.51 95.99 118.18 95.9 117.84 95.9C117.51 95.9 117.17 95.99 116.88 96.16L84.85 114.69C84.74 114.75 84.66 114.84 84.6 114.94C84.53 115.05 84.5 115.17 84.5 115.29C84.5 115.41 84.53 115.53 84.6 115.63C84.66 115.74 84.74 115.83 84.85 115.89L174.74 167.8C175.04 167.97 175.37 168.06 175.71 168.06C176.04 168.06 176.38 167.97 176.67 167.8L208.75 149.29C208.85 149.23 208.94 149.14 208.99 149.03C209.05 148.93 209.09 148.81 209.09 148.69C209.09 148.57 209.05 148.46 209 148.35C208.94 148.25 208.85 148.16 208.75 148.1Z" fill="#7A67A5" fill-opacity="1.000000" fill-rule="nonzero"/>
	<path id="Vector" d="M208.74 149.29L208.42 149.47L118.81 97.7C118.51 97.53 118.18 97.44 117.84 97.44C117.51 97.44 117.17 97.53 116.88 97.7L85.17 116.05L84.85 115.87C84.74 115.81 84.66 115.72 84.6 115.62C84.54 115.51 84.5 115.39 84.5 115.27C84.5 115.15 84.54 115.03 84.6 114.92C84.66 114.82 84.74 114.73 84.85 114.67L116.88 96.14C117.17 95.97 117.51 95.88 117.84 95.88C118.19 95.88 118.51 95.97 118.81 96.14L208.75 148.08C208.85 148.14 208.94 148.23 209 148.34C209.07 148.44 209.1 148.56 209.1 148.69C209.1 148.81 209.07 148.93 208.99 149.04C208.93 149.14 208.85 149.23 208.74 149.29Z" fill="#91AFFF" fill-opacity="1.000000" fill-rule="nonzero"/>
	<path id="Vector" d="M114.46 100.85L192.56 145.97L196.05 143.96L117.92 98.84L114.46 100.85ZM105.93 105.77L179.2 148.09L182.69 146.08L109.41 103.76L105.93 105.77ZM100.4 108.98L186.66 158.8L190.14 156.8L103.86 106.97L100.4 108.98ZM94.84 112.17L181.11 162.01L184.6 160L98.32 110.17L94.84 112.17ZM89.3 115.38L175.57 165.21L179.04 163.2L92.76 113.37L89.3 115.38ZM197.29 148.7L200.76 150.71L204.24 148.7L200.76 146.69L197.29 148.7ZM185.05 151.46L192.25 155.63L195.72 153.62L188.52 149.45L185.05 151.46Z" fill="#483E65" fill-opacity="1.000000" fill-rule="nonzero"/>
	<path id="Vector" d="M115.35 160.66L91.1 146.66C90.89 146.59 90.72 146.45 90.59 146.28C90.47 146.1 90.4 145.89 90.4 145.67C90.4 145.46 90.47 145.24 90.59 145.07C90.72 144.89 90.89 144.75 91.1 144.68L107.68 135.1C108.21 134.83 108.8 134.69 109.4 134.69C109.99 134.69 110.58 134.83 111.11 135.1L135.36 149.1C135.56 149.18 135.73 149.31 135.87 149.49C135.99 149.67 136.06 149.88 136.06 150.09C136.06 150.31 135.99 150.52 135.87 150.7C135.73 150.88 135.56 151.01 135.36 151.08L118.79 160.66C118.25 160.94 117.66 161.08 117.07 161.08C116.47 161.08 115.88 160.94 115.35 160.66Z" fill="url(#paint_linear_1_33237_0)" fill-opacity="1.000000" fill-rule="nonzero"/>
	<path id="Vector" d="M135.36 149.91L111.11 135.91C110.58 135.64 109.99 135.5 109.4 135.5C108.8 135.5 108.21 135.64 107.68 135.91L91.1 145.49C90.85 145.63 90.64 145.83 90.51 146.08C90.25 145.6 90.45 145.06 91.1 144.68L107.68 135.1C108.21 134.83 108.8 134.69 109.4 134.69C109.99 134.69 110.58 134.83 111.11 135.1L135.36 149.1C136.01 149.48 136.2 150.03 135.96 150.5C135.82 150.25 135.61 150.05 135.36 149.91Z" fill="#91AFFF" fill-opacity="1.000000" fill-rule="nonzero"/>
	<g opacity="0.420000">
		<path id="Vector" d="M167.07 143.48L190.39 129.12L137.96 98.84L113.23 115.48L167.07 143.48Z" fill="url(#paint_radial_1_33239_0)" fill-opacity="1.000000" fill-rule="nonzero"/>
	</g>
	<g opacity="0.420000">
		<path id="Vector" d="M190.39 129.12L195.72 95.37L146.54 67.15L146.54 103.73L190.39 129.12Z" fill="url(#paint_radial_1_33240_0)" fill-opacity="1.000000" fill-rule="nonzero"/>
	</g>
	<path id="Vector" d="M141.38 50.72L146.59 47.72C146.63 47.7 146.67 47.68 146.72 47.68C146.77 47.68 146.81 47.7 146.85 47.72L212.08 85.42C212.2 85.51 212.29 85.62 212.36 85.75C212.43 85.87 212.47 86.02 212.47 86.16L212.47 98.48C212.47 98.53 212.46 98.58 212.44 98.63C212.42 98.68 212.4 98.73 212.36 98.76L207.09 101.79L207.09 95.84L146.92 61.09C146.8 61 146.71 60.89 146.64 60.76C146.57 60.64 146.54 60.49 146.54 60.35L146.54 56.12L141.38 50.72Z" fill="#3A90F4" fill-opacity="1.000000" fill-rule="nonzero"/>
	<path id="Vector" d="M141.62 64.12L206.83 101.78C207.04 101.9 207.22 101.78 207.22 101.49L207.22 89.17C207.21 89.03 207.18 88.89 207.11 88.76C207.05 88.63 206.95 88.52 206.83 88.44L141.62 50.77C141.4 50.65 141.23 50.77 141.23 51.06L141.23 63.38C141.23 63.52 141.27 63.67 141.33 63.79C141.4 63.92 141.5 64.03 141.62 64.12Z" fill="#8EBEF7" fill-opacity="1.000000" fill-rule="nonzero"/>
	<g opacity="0.600000">
		<path id="Vector" d="M150.61 61.62L201.39 91.48C199.78 92.88 198.3 94.42 196.97 96.09L145.78 66.55C147.23 64.75 148.84 63.1 150.61 61.62Z" fill="#242993" fill-opacity="1.000000" fill-rule="nonzero"/>
	</g>
	<path id="Vector" d="M143.48 60.42L204.97 95.93C205.12 96.02 205.24 95.93 205.24 95.73L205.24 92.64C205.24 92.54 205.21 92.44 205.16 92.35C205.12 92.26 205.05 92.19 204.97 92.13L143.48 56.62C143.34 56.54 143.21 56.62 143.21 56.82L143.21 59.93C143.21 60.03 143.24 60.13 143.28 60.21C143.33 60.29 143.4 60.37 143.48 60.42Z" fill="#37314F" fill-opacity="1.000000" fill-rule="nonzero"/>
	<path id="Vector" d="M143.48 56.63L144.73 57.35L144.73 59.01C144.74 59.11 144.76 59.21 144.81 59.3C144.85 59.39 144.92 59.46 145 59.52L205.24 94.31L205.24 95.74C205.24 95.93 205.12 96.03 204.97 95.94L143.48 60.43C143.4 60.37 143.33 60.3 143.28 60.21C143.24 60.12 143.22 60.02 143.21 59.93L143.21 56.83C143.21 56.63 143.34 56.54 143.48 56.63Z" fill="#5F4E7E" fill-opacity="1.000000" fill-rule="nonzero"/>
	<g opacity="0.960000">
		<path id="Vector" d="M108.95 193.67L57.8 164.13C64.4 160.31 69.96 151.98 71.65 144C71.98 142.4 72.65 140.89 73.6 139.57C74.55 138.24 75.77 137.13 77.18 136.31L115.85 113.99C121.16 110.94 125.63 106.61 128.86 101.41C132.08 96.2 133.96 90.27 134.33 84.16C134.95 73.68 142.87 63.37 149.07 59.82L200.11 89.35C194.05 92.85 187.38 102.62 186.63 112.93C186.23 119.04 184.35 124.95 181.13 130.16C177.92 135.36 173.48 139.71 168.21 142.8L128.29 165.87C126.87 166.69 125.66 167.8 124.71 169.13C123.76 170.45 123.09 171.96 122.76 173.56C121.05 181.54 115.49 189.88 108.9 193.69L108.95 193.67Z" fill="#FFFFFF" fill-opacity="1.000000" fill-rule="nonzero"/>
	</g>
	<g opacity="0.960000">
		<path id="Vector" d="M138.18 71.71C135.99 75.52 134.67 79.77 134.31 84.15C134.03 88.81 132.87 93.38 130.88 97.6L182.64 127.49C184.93 122.95 186.29 118.01 186.66 112.94C187 108.98 188.08 105.11 189.83 101.54L138.18 71.71ZM74.88 138.09C73.25 139.7 72.13 141.76 71.65 144C69.95 151.98 64.39 160.32 57.8 164.13L108.95 193.67C115.56 189.86 121.11 181.52 122.81 173.54C123.28 171.3 124.4 169.24 126.03 167.63L74.88 138.09Z" fill="#F7F7F7" fill-opacity="1.000000" fill-rule="nonzero"/>
	</g>
	<path id="Vector" d="M131.62 95.86C128.5 103.47 122.95 109.83 115.83 113.94L77.15 136.26C75.73 137.09 74.5 138.21 73.55 139.55L124.7 169.09C125.65 167.78 126.88 166.68 128.29 165.87L168.19 142.84C174.92 138.92 180.24 132.98 183.39 125.85L131.62 95.86Z" fill="#FFFFFF" fill-opacity="1.000000" fill-rule="nonzero"/>
	<path id="Vector" d="M148.99 59.81L200.11 89.35C199.7 89.59 199.29 89.84 198.89 90.1L147.74 60.56C148.17 60.3 148.55 60.05 148.99 59.81Z" fill="#8079C6" fill-opacity="1.000000" fill-rule="nonzero"/>
	<g opacity="0.320000">
		<g opacity="0.320000">
			<path id="Vector" d="M168.22 94.75L177.2 99.96L177.27 98.92L168.31 93.74L168.22 94.75ZM163.7 92.13L166.88 93.97L166.96 92.96L163.8 91.14L163.7 92.13ZM160.24 90.12L162.37 91.36L162.47 90.36L160.34 89.13L160.24 90.12ZM172.1 99.46L177.04 102.34L177.11 101.3L172.18 98.43L172.1 99.46ZM164.79 95.2L170.73 98.66L170.81 97.63L164.88 94.18L164.79 95.2ZM161.29 93.16L163.43 94.41L163.53 93.4L161.39 92.15L161.29 93.16ZM157.99 91.24L160.12 92.48L160.22 91.48L158.1 90.24L157.99 91.24ZM173.28 102.63L176.86 104.73L176.94 103.68L173.35 101.59L173.28 102.63ZM170.67 101.11L171.89 101.82L171.97 100.78L170.76 100.07L170.67 101.11ZM167.11 99.02L169.3 100.3L169.39 99.27L167.2 97.99L167.11 99.02ZM163.56 99.41L176.69 107.15L176.76 106.1L163.65 98.38L163.56 99.41ZM159.02 96.74L162.2 98.61L162.3 97.58L159.13 95.72L159.02 96.74ZM172.9 107.45L176.52 109.59L176.59 108.52L172.98 106.39L172.9 107.45ZM164.54 102.49L171.51 106.62L171.59 105.56L164.63 101.45L164.54 102.49ZM161 100.4L163.18 101.68L163.27 100.65L161.11 99.36L161 100.4ZM168.95 107.65L176.35 112.06L176.43 110.98L169.04 106.58L168.95 107.65ZM162.32 103.7L167.57 106.82L167.65 105.76L162.42 102.65L162.32 103.7ZM157.46 100.81L160.95 102.89L161.06 101.84L157.57 99.77L157.46 100.81ZM173.65 113.02L176.18 114.53L176.25 113.45L173.73 111.94L173.65 113.02ZM168.94 110.2L172.24 112.18L172.32 111.1L169.03 109.13L168.94 110.2ZM162.31 106.23L167.55 109.37L167.64 108.31L162.41 105.17L162.31 106.23ZM168.29 112.4L175.99 117.04L176.07 115.94L168.38 111.32L168.29 112.4ZM159.82 107.3L166.89 111.56L166.98 110.48L159.93 106.24L159.82 107.3ZM156.28 105.16L158.45 106.47L158.57 105.42L156.39 104.11L156.28 105.16ZM152.91 103.14L155.06 104.44L155.17 103.39L153.02 102.1L152.91 103.14ZM171.16 116.74L175.82 119.56L175.9 118.46L171.25 115.65L171.16 116.74ZM150.63 84.56L144.81 81.18L144.92 80.22L150.75 83.58L150.63 84.56ZM149.11 86.06L144.51 83.38L144.64 82.41L149.23 85.08L149.11 86.06ZM147.55 87.55L144.22 85.6L144.34 84.63L147.66 86.57L147.55 87.55ZM148.79 90.71L143.92 87.85L144.05 86.86L148.91 89.72L148.79 90.71ZM146.98 92.09L143.62 90.1L143.75 89.11L147.09 91.09L146.98 92.09ZM147.59 94.93L143.33 92.38L143.45 91.38L147.72 93.92L147.59 94.93ZM145.35 96.08L143.02 94.68L143.15 93.67L145.48 95.06L145.35 96.08ZM147.27 99.74L142.72 96.99L142.85 95.98L147.38 98.71L147.27 99.74ZM146.73 101.95L142.4 99.33L142.54 98.31L146.86 100.92L146.73 101.95ZM167.79 114.71L169.75 115.89L169.84 114.8L167.88 113.61L167.79 114.71ZM162.03 111.22L166.39 113.85L166.49 112.77L162.13 110.15L162.03 111.22Z" fill="#4553C7" fill-opacity="1.000000" fill-rule="nonzero"/>
		</g>
	</g>
	<g opacity="0.320000">
		<g opacity="0.320000">
			<path id="Vector" d="M135.2 128.64L121.86 120.94L122.81 120.38L136.15 128.09L135.2 128.64ZM142.95 133.12L138.14 130.34L139.09 129.79L143.9 132.57L142.95 133.12ZM146.81 135.35L145.41 134.53L146.35 133.99L147.77 134.8L146.81 135.35ZM154.08 139.54L149.26 136.76L150.22 136.22L155.03 139L154.08 139.54ZM123.79 124.33L119.88 122.08L120.84 121.52L124.74 123.77L123.79 124.33ZM140.98 134.25L126.72 126.02L127.68 125.48L141.93 133.7L140.98 134.25ZM144.84 136.48L143.44 135.67L144.38 135.12L145.79 135.94L144.84 136.48ZM152.1 140.68L147.29 137.9L148.25 137.35L153.06 140.13L152.1 140.68ZM119.86 124.33L117.91 123.21L118.87 122.66L120.82 123.79L119.86 124.33ZM125.12 127.37L122.81 126.04L123.76 125.49L126.06 126.82L125.12 127.37ZM128.98 129.6L127.57 128.78L128.51 128.24L129.93 129.05L128.98 129.6ZM136.24 133.79L131.43 131.01L132.38 130.47L137.2 133.25L136.24 133.79ZM119.84 126.6L115.94 124.35L116.9 123.8L120.79 126.05L119.84 126.6ZM127.6 131.08L122.78 128.3L123.73 127.75L128.55 130.53L127.6 131.08ZM131.47 133.31L130.04 132.5L131 131.94L132.41 132.76L131.47 133.31ZM138.73 137.51L133.92 134.72L134.86 134.17L139.68 136.95L138.73 137.51ZM127.16 133.28L113.83 125.58L114.77 125.03L128.12 132.73L127.16 133.28ZM134.91 137.75L130.11 134.97L131.06 134.43L135.88 137.2L134.91 137.75ZM138.78 139.98L137.37 139.17L138.33 138.62L139.73 139.44L138.78 139.98ZM146.05 144.19L141.23 141.4L142.18 140.85L146.99 143.63L146.05 144.19ZM115.75 128.96L111.86 126.71L112.8 126.17L116.7 128.41L115.75 128.96ZM132.94 138.9L118.69 130.66L119.65 130.11L133.91 138.35L132.94 138.9ZM136.81 141.13L135.39 140.31L136.35 139.76L137.76 140.57L136.81 141.13ZM144.08 145.32L139.26 142.55L140.21 141.99L145.02 144.77L144.08 145.32ZM111.83 128.98L109.89 127.85L110.84 127.3L112.79 128.42L111.83 128.98ZM117.09 132.01L114.77 130.67L115.73 130.13L118.03 131.46L117.09 132.01ZM120.95 134.24L119.54 133.43L120.48 132.87L121.9 133.69L120.95 134.24ZM128.22 138.44L123.4 135.66L124.35 135.1L129.16 137.88L128.22 138.44ZM111.82 131.24L107.91 128.99L108.87 128.44L112.76 130.69L111.82 131.24ZM119.57 135.72L114.75 132.94L115.71 132.39L120.51 135.17L119.57 135.72ZM123.42 137.95L122.02 137.14L122.97 136.59L124.39 137.4L123.42 137.95ZM130.68 142.14L125.88 139.37L126.83 138.81L131.65 141.6L130.68 142.14ZM119.13 137.91L105.79 130.21L106.75 129.66L120.08 137.37L119.13 137.91ZM126.88 142.4L122.07 139.62L123.02 139.06L127.84 141.85L126.88 142.4ZM130.75 144.63L129.33 143.81L130.29 143.26L131.7 144.07L130.75 144.63ZM138.01 148.82L133.2 146.04L134.15 145.49L138.97 148.28L138.01 148.82ZM107.72 133.6L103.82 131.35L104.77 130.8L108.68 133.05L107.72 133.6ZM124.91 143.53L110.66 135.3L111.62 134.75L125.87 142.98L124.91 143.53ZM128.77 145.76L127.36 144.95L128.32 144.4L129.73 145.22L128.77 145.76ZM136.04 149.96L131.23 147.18L132.18 146.63L136.99 149.41L136.04 149.96ZM103.8 133.62L101.85 132.49L102.8 131.94L104.74 133.07L103.8 133.62ZM109.05 136.65L106.74 135.31L107.69 134.76L110.01 136.1L109.05 136.65ZM112.91 138.88L111.51 138.06L112.46 137.52L113.87 138.33L112.91 138.88ZM120.18 143.07L115.36 140.3L116.33 139.75L121.13 142.53L120.18 143.07ZM103.78 135.88L99.88 133.63L100.83 133.08L104.73 135.32L103.78 135.88ZM111.53 140.36L106.72 137.58L107.68 137.03L112.49 139.81L111.53 140.36ZM115.39 142.59L113.98 141.77L114.94 141.22L116.35 142.04L115.39 142.59ZM122.66 146.78L117.84 144L118.8 143.46L123.61 146.23L122.66 146.78Z" fill="#4553C7" fill-opacity="1.000000" fill-rule="nonzero"/>
		</g>
	</g>
	<path id="Vector" d="M72.84 44.39C73.65 43.41 74.27 42.29 74.68 41.1L79.66 43.58L79.66 33.29L74.93 30.93C74.51 29.06 73.91 27.25 73.15 25.49L76.4 23.86L69.14 12.96L66.02 14.52C64.58 12.95 63.02 11.5 61.34 10.19L61.34 5.83L51.04 0.67L51.04 5.03C49.5 4.67 47.91 4.54 46.33 4.66L43.22 0L35.94 3.68L39.18 8.54C38.36 9.65 37.76 10.9 37.4 12.23L32.71 9.88L32.71 20.19L37.67 22.67C38.13 24.43 38.75 26.16 39.51 27.82L35.93 29.61L43.21 40.54L46.89 38.7C48.16 40.03 49.53 41.26 50.98 42.39L50.98 47.68L61.29 52.84L61.29 47.54C62.62 47.85 63.99 47.98 65.36 47.92L69.05 53.51L76.33 49.82L72.84 44.39ZM56.17 36.53C50.49 33.68 45.88 26.77 45.88 21.08C45.88 15.39 50.48 13.09 56.17 15.93C61.87 18.77 66.47 25.69 66.47 31.38C66.47 37.07 61.87 39.37 56.17 36.53ZM108.03 74.91L108.03 68.46L105.06 66.98C104.79 65.81 104.42 64.67 103.95 63.57L105.99 62.55L101.39 55.7L99.43 56.67C98.53 55.69 97.54 54.78 96.49 53.96L96.49 51.19L90.04 47.96L90.04 50.72C89.08 50.5 88.09 50.42 87.1 50.5L85.15 47.57L80.55 49.86L82.58 52.91C82.07 53.6 81.7 54.38 81.47 55.21L78.52 53.74L78.52 60.18L81.64 61.74C81.93 62.85 82.32 63.93 82.81 64.97L80.56 66.1L85.16 72.95L87.49 71.78C88.29 72.62 89.15 73.39 90.06 74.1L90.06 77.44L96.5 80.67L96.5 77.34C97.35 77.54 98.21 77.62 99.06 77.58L101.4 81.08L106 78.8L103.75 75.41C104.26 74.8 104.64 74.1 104.91 73.35L108.03 74.91ZM93.29 70.48C89.73 68.7 86.85 64.36 86.85 60.79C86.85 57.23 89.74 55.78 93.29 57.56C96.85 59.34 99.73 63.68 99.73 67.25C99.73 70.81 96.85 72.26 93.29 70.48ZM80.4 26.98L80.99 32.13L83.33 33.05C83.64 33.89 84.01 34.71 84.45 35.49L82.97 36.64L86.85 41.51L88.38 40.31C89.01 40.88 89.7 41.41 90.41 41.87L90.71 44.51L95.57 46.36L95.26 43.7C95.88 43.76 96.5 43.73 97.1 43.6L99.07 46.13L102.09 43.78L100.18 41.34C100.49 40.78 100.7 40.18 100.81 39.56L103.15 40.48L102.56 35.33L100.32 34.49C100.04 33.6 99.67 32.73 99.24 31.9L100.58 30.85L96.73 25.92L95.44 26.92C94.72 26.24 93.94 25.62 93.12 25.08L92.87 22.89L88.02 21.05L88.26 23.24C87.56 23.17 86.86 23.22 86.18 23.4L84.53 21.29L81.52 23.64L83.16 25.85C82.87 26.47 82.67 27.13 82.59 27.81L80.4 26.98ZM91.13 28.34C92.54 28.96 93.78 29.93 94.74 31.14C95.68 32.36 96.31 33.8 96.57 35.32C96.9 38.17 95 39.65 92.32 38.64C90.9 38.01 89.66 37.05 88.71 35.83C87.76 34.61 87.13 33.18 86.87 31.66C86.54 28.81 88.45 27.33 91.11 28.34L91.13 28.34Z" fill="#175297" fill-opacity="1.000000" fill-rule="nonzero"/>
	<path id="Vector" d="M218.39 232.85C216.83 231.03 214.9 229.57 212.72 228.56C202.65 223.53 186.31 223.53 176.24 228.56C174.06 229.58 172.13 231.04 170.56 232.85L168.72 232.85L168.72 237.72C168.72 241.03 171.24 244.33 176.28 246.85C186.36 251.89 202.69 251.89 212.77 246.85C217.8 244.33 220.33 241.03 220.33 237.72L220.33 232.88L218.39 232.85Z" fill="#F2A233" fill-opacity="1.000000" fill-rule="nonzero"/>
	<path id="Vector" d="M212.72 223.72C222.8 228.76 222.8 236.93 212.72 241.98C202.65 247.02 186.31 247.02 176.24 241.98C166.16 236.94 166.16 228.77 176.24 223.72C186.31 218.67 202.64 218.68 212.72 223.72Z" fill="#FCC881" fill-opacity="1.000000" fill-rule="nonzero"/>
	<path id="Vector" d="M178.18 226.43C187.18 221.92 201.78 221.92 210.78 226.43C214.85 228.45 217.05 231.03 217.45 233.71C217.94 230.48 215.73 227.16 210.78 224.69C201.78 220.19 187.18 220.19 178.18 224.69C173.23 227.16 171.02 230.48 171.51 233.71C171.91 231.06 174.11 228.45 178.18 226.43Z" fill="#E68F17" fill-opacity="1.000000" fill-rule="nonzero"/>
	<path id="Vector" d="M178.18 241C187.18 245.5 201.78 245.5 210.78 241C214.85 238.97 217.05 236.39 217.45 233.71C217.05 231.06 214.85 228.45 210.78 226.43C201.78 221.92 187.18 221.92 178.18 226.43C174.11 228.45 171.91 231.03 171.51 233.71C171.91 236.37 174.11 238.96 178.18 241Z" fill="#F2A233" fill-opacity="1.000000" fill-rule="nonzero"/>
	<path id="Vector" d="M218.39 226.67C216.83 224.85 214.9 223.39 212.72 222.38C202.65 217.34 186.31 217.34 176.24 222.38C174.06 223.4 172.13 224.85 170.56 226.67L168.72 226.67L168.72 231.51C168.72 234.82 171.24 238.12 176.28 240.64C186.36 245.68 202.69 245.68 212.77 240.64C217.8 238.12 220.33 234.82 220.33 231.51L220.33 226.67L218.39 226.67Z" fill="#F2A233" fill-opacity="1.000000" fill-rule="nonzero"/>
	<path id="Vector" d="M212.72 217.45C222.8 222.49 222.8 230.66 212.72 235.71C202.65 240.76 186.31 240.75 176.24 235.71C166.16 230.67 166.16 222.5 176.24 217.45C186.31 212.41 202.64 212.45 212.72 217.45Z" fill="#FCC881" fill-opacity="1.000000" fill-rule="nonzero"/>
	<path id="Vector" d="M178.18 220.22C187.18 215.71 201.78 215.71 210.78 220.22C214.85 222.25 217.05 224.82 217.45 227.5C217.94 224.27 215.73 220.95 210.78 218.49C201.78 213.98 187.18 213.98 178.18 218.49C173.23 220.95 171.02 224.27 171.51 227.5C171.91 224.82 174.11 222.23 178.18 220.22Z" fill="#E68F17" fill-opacity="1.000000" fill-rule="nonzero"/>
	<path id="Vector" d="M178.18 234.77C187.18 239.28 201.78 239.28 210.78 234.77C214.85 232.75 217.05 230.17 217.45 227.49C217.05 224.83 214.85 222.23 210.78 220.2C201.78 215.69 187.18 215.69 178.18 220.2C174.11 222.23 171.91 224.81 171.51 227.49C171.91 230.15 174.11 232.75 178.18 234.77Z" fill="#F2A233" fill-opacity="1.000000" fill-rule="nonzero"/>
	<path id="Vector" d="M218.39 220.4C216.83 218.59 214.9 217.13 212.72 216.12C202.65 211.08 186.31 211.08 176.24 216.12C174.06 217.13 172.13 218.59 170.56 220.4L168.72 220.4L168.72 225.25C168.72 228.55 171.24 231.85 176.28 234.38C186.36 239.42 202.69 239.42 212.77 234.38C217.8 231.85 220.33 228.55 220.33 225.25L220.33 220.4L218.39 220.4Z" fill="#F2A233" fill-opacity="1.000000" fill-rule="nonzero"/>
	<path id="Vector" d="M212.72 211.27C222.8 216.31 222.8 224.48 212.72 229.53C202.65 234.58 186.31 234.57 176.24 229.53C166.16 224.49 166.16 216.32 176.24 211.27C186.31 206.23 202.64 206.24 212.72 211.27Z" fill="#FCC881" fill-opacity="1.000000" fill-rule="nonzero"/>
	<path id="Vector" d="M178.18 213.98C187.18 209.48 201.78 209.48 210.78 213.98C214.85 216.01 217.05 218.59 217.45 221.27C217.94 218.04 215.73 214.72 210.78 212.25C201.78 207.75 187.18 207.75 178.18 212.25C173.23 214.72 171.02 218.04 171.51 221.27C171.91 218.61 174.11 216.01 178.18 213.98Z" fill="#E68F17" fill-opacity="1.000000" fill-rule="nonzero"/>
	<path id="Vector" d="M178.18 228.51C187.18 233.01 201.78 233.01 210.78 228.51C214.85 226.48 217.05 223.9 217.45 221.22C217.05 218.57 214.85 215.96 210.78 213.94C201.78 209.43 187.18 209.43 178.18 213.94C174.11 215.96 171.91 218.54 171.51 221.22C171.91 223.9 174.11 226.52 178.18 228.51Z" fill="#F2AC4B" fill-opacity="1.000000" fill-rule="nonzero"/>
	<path id="Vector" d="M218.39 214.41C216.83 212.59 214.9 211.13 212.72 210.12C202.65 205.08 186.31 205.08 176.24 210.12C174.06 211.13 172.13 212.59 170.56 214.41L168.72 214.41L168.72 219.25C168.72 222.56 171.24 225.86 176.28 228.38C186.36 233.42 202.69 233.42 212.77 228.38C217.8 225.86 220.33 222.56 220.33 219.25L220.33 214.41L218.39 214.41Z" fill="#F2A233" fill-opacity="1.000000" fill-rule="nonzero"/>
	<path id="Vector" d="M212.72 205.28C222.8 210.32 222.8 218.49 212.72 223.53C202.65 228.58 186.31 228.57 176.24 223.53C166.16 218.5 166.16 210.32 176.24 205.28C186.31 200.23 202.64 200.24 212.72 205.28Z" fill="#FCC881" fill-opacity="1.000000" fill-rule="nonzero"/>
	<path id="Vector" d="M178.18 207.99C187.18 203.48 201.78 203.48 210.78 207.99C214.85 210.01 217.05 212.59 217.45 215.27C217.94 212.04 215.73 208.72 210.78 206.25C201.78 201.75 187.18 201.75 178.18 206.25C173.23 208.72 171.02 212.04 171.51 215.27C171.91 212.61 174.11 210.01 178.18 207.99Z" fill="#E68F17" fill-opacity="1.000000" fill-rule="nonzero"/>
	<path id="Vector" d="M178.18 222.56C187.18 227.06 201.78 227.06 210.78 222.56C214.85 220.53 217.05 217.95 217.45 215.27C217.05 212.62 214.85 210.01 210.78 207.99C201.78 203.48 187.18 203.48 178.18 207.99C174.11 210.01 171.91 212.59 171.51 215.27C171.91 217.92 174.11 220.52 178.18 222.56Z" fill="#F2A233" fill-opacity="1.000000" fill-rule="nonzero"/>
	<path id="Vector" d="M218.39 208.18C216.83 206.37 214.9 204.91 212.72 203.9C202.65 198.86 186.31 198.86 176.24 203.9C174.06 204.91 172.13 206.37 170.56 208.18L168.72 208.18L168.72 213.02C168.72 216.33 171.24 219.63 176.28 222.15C186.36 227.19 202.69 227.19 212.77 222.15C217.8 219.63 220.33 216.33 220.33 213.02L220.33 208.18L218.39 208.18Z" fill="#F2A233" fill-opacity="1.000000" fill-rule="nonzero"/>
	<path id="Vector" d="M212.72 199.03C222.8 204.07 222.8 212.24 212.72 217.29C202.65 222.34 186.31 222.33 176.24 217.29C166.16 212.25 166.16 204.08 176.24 199.03C186.31 193.98 202.64 194.01 212.72 199.03Z" fill="#FCC881" fill-opacity="1.000000" fill-rule="nonzero"/>
	<path id="Vector" d="M178.18 201.79C187.18 197.29 201.78 197.29 210.78 201.79C214.85 203.82 217.05 206.4 217.45 209.08C217.94 205.85 215.73 202.53 210.78 200.06C201.78 195.56 187.18 195.56 178.18 200.06C173.23 202.53 171.02 205.85 171.51 209.08C171.91 206.4 174.11 203.79 178.18 201.79Z" fill="#E68F17" fill-opacity="1.000000" fill-rule="nonzero"/>
	<path id="Vector" d="M178.18 216.33C187.18 220.83 201.78 220.83 210.78 216.33C214.85 214.3 217.05 211.72 217.45 209.04C217.05 206.39 214.85 203.78 210.78 201.76C201.78 197.25 187.18 197.25 178.18 201.76C174.11 203.78 171.91 206.36 171.51 209.04C171.91 211.7 174.11 214.3 178.18 216.33Z" fill="#F2A233" fill-opacity="1.000000" fill-rule="nonzero"/>
	<path id="Vector" d="M218.39 201.95C216.83 200.14 214.9 198.68 212.72 197.67C202.65 192.63 186.31 192.63 176.24 197.67C174.06 198.68 172.13 200.14 170.56 201.95L168.72 201.95L168.72 206.8C168.72 210.1 171.24 213.4 176.28 215.93C186.36 220.96 202.69 220.96 212.77 215.93C217.8 213.4 220.33 210.1 220.33 206.8L220.33 201.95L218.39 201.95Z" fill="#F2A233" fill-opacity="1.000000" fill-rule="nonzero"/>
	<path id="Vector" d="M212.72 192.83C222.8 197.87 222.8 206.04 212.72 211.09C202.65 216.14 186.31 216.13 176.24 211.09C166.16 206.05 166.16 197.88 176.24 192.83C186.31 187.78 202.64 187.78 212.72 192.83Z" fill="#FCC881" fill-opacity="1.000000" fill-rule="nonzero"/>
	<path id="Vector" d="M178.18 195.54C187.18 191.04 201.78 191.04 210.78 195.54C214.85 197.57 217.05 200.15 217.45 202.83C217.94 199.59 215.73 196.28 210.78 193.81C201.78 189.3 187.18 189.3 178.18 193.81C173.23 196.28 171.02 199.59 171.51 202.83C171.91 200.16 174.11 197.57 178.18 195.54Z" fill="#E68F17" fill-opacity="1.000000" fill-rule="nonzero"/>
	<path id="Vector" d="M178.18 210.09C187.18 214.59 201.78 214.59 210.78 210.09C214.85 208.06 217.05 205.48 217.45 202.8C217.05 200.15 214.85 197.54 210.78 195.51C201.78 191.01 187.18 191.01 178.18 195.51C174.11 197.54 171.91 200.12 171.51 202.8C171.91 205.48 174.11 208.08 178.18 210.09Z" fill="#F2AC4B" fill-opacity="1.000000" fill-rule="nonzero"/>
	<path id="Vector" d="M183.53 202.07C184.53 203.45 185.85 204.55 187.39 205.28C189.52 206.35 191.53 206.47 192.86 205.79C194.2 205.12 193.9 204.3 192.32 202.63C190.1 200.34 189.77 198.28 192.75 196.79C196.24 195.04 201.83 195.16 206.67 197.58C208.28 198.29 209.73 199.37 210.86 200.72L206.1 202.07C205.24 200.92 204.09 200.01 202.78 199.44C200.77 198.43 198.88 198.4 197.83 198.94C196.52 199.59 197.1 200.46 198.74 202.28C201.03 204.76 200.85 206.56 197.96 208C194.52 209.73 188.96 209.85 183.33 207.08C181.53 206.3 179.95 205.09 178.73 203.55L183.53 202.07Z" fill="#DB8816" fill-opacity="1.000000" fill-rule="nonzero"/>
	<path id="Vector" d="M184.06 209.63L180.96 208.07L206.69 195.2L209.79 196.76L184.06 209.63Z" fill="#DB8816" fill-opacity="1.000000" fill-rule="nonzero"/>
	<path id="Vector" d="M170.25 252.97C168.68 251.15 166.74 249.69 164.57 248.68C154.5 243.64 138.15 243.64 128.08 248.68C125.91 249.69 123.98 251.15 122.41 252.97L120.56 252.97L120.56 257.81C120.56 261.12 123.09 264.42 128.12 266.94C138.2 271.98 154.54 271.98 164.62 266.94C169.66 264.42 172.18 261.12 172.18 257.81L172.18 252.97L170.25 252.97Z" fill="#F2A233" fill-opacity="1.000000" fill-rule="nonzero"/>
	<path id="Vector" d="M164.57 243.84C174.65 248.88 174.65 257.05 164.57 262.09C154.5 267.14 138.15 267.13 128.08 262.09C118 257.06 118 248.88 128.08 243.84C138.15 238.79 154.49 238.8 164.57 243.84Z" fill="#FCC881" fill-opacity="1.000000" fill-rule="nonzero"/>
	<path id="Vector" d="M130.02 246.54C139.03 242.04 153.63 242.04 162.63 246.54C166.7 248.57 168.9 251.15 169.3 253.83C169.78 250.6 167.58 247.28 162.63 244.81C153.63 240.31 139.03 240.31 130.02 244.81C125.08 247.28 122.87 250.6 123.36 253.83C123.76 251.18 125.96 248.57 130.02 246.54Z" fill="#E68F17" fill-opacity="1.000000" fill-rule="nonzero"/>
	<path id="Vector" d="M130.02 261.12C139.03 265.62 153.63 265.62 162.63 261.12C166.7 259.09 168.9 256.51 169.3 253.83C168.9 251.18 166.7 248.57 162.63 246.54C153.63 242.04 139.03 242.04 130.02 246.54C125.96 248.57 123.76 251.15 123.36 253.83C123.76 256.48 125.96 259.08 130.02 261.12Z" fill="#F2A233" fill-opacity="1.000000" fill-rule="nonzero"/>
	<path id="Vector" d="M170.25 246.74C168.68 244.93 166.75 243.47 164.57 242.45C154.5 237.42 138.15 237.42 128.08 242.45C125.91 243.46 123.98 244.93 122.41 246.74L120.56 246.74L120.56 251.58C120.56 254.89 123.09 258.19 128.12 260.71C138.2 265.75 154.54 265.75 164.62 260.71C169.66 258.19 172.18 254.89 172.18 251.58L172.18 246.74L170.25 246.74Z" fill="#F2A233" fill-opacity="1.000000" fill-rule="nonzero"/>
	<path id="Vector" d="M164.57 237.61C174.65 242.65 174.65 250.82 164.57 255.87C154.5 260.92 138.15 260.91 128.08 255.87C118 250.83 118 242.66 128.08 237.61C138.15 232.56 154.49 232.57 164.57 237.61Z" fill="#FCC881" fill-opacity="1.000000" fill-rule="nonzero"/>
	<path id="Vector" d="M130.02 240.32C139.03 235.81 153.63 235.81 162.63 240.32C166.7 242.34 168.9 244.92 169.3 247.6C169.78 244.37 167.58 241.05 162.63 238.59C153.63 234.08 139.03 234.08 130.02 238.59C125.08 241.05 122.87 244.37 123.36 247.6C123.76 244.95 125.96 242.33 130.02 240.32Z" fill="#E68F17" fill-opacity="1.000000" fill-rule="nonzero"/>
	<path id="Vector" d="M130.02 254.89C139.03 259.4 153.63 259.4 162.63 254.89C166.7 252.86 168.9 250.29 169.3 247.6C168.9 244.95 166.7 242.34 162.63 240.32C153.63 235.81 139.03 235.81 130.02 240.32C125.96 242.34 123.76 244.92 123.36 247.6C123.76 250.27 125.96 252.86 130.02 254.89Z" fill="#F2A233" fill-opacity="1.000000" fill-rule="nonzero"/>
	<path id="Vector" d="M170.25 240.48C168.68 238.67 166.75 237.21 164.57 236.2C154.5 231.16 138.15 231.16 128.08 236.2C125.91 237.21 123.98 238.67 122.41 240.48L120.56 240.48L120.56 245.33C120.56 248.64 123.09 251.93 128.12 254.46C138.2 259.5 154.54 259.5 164.62 254.46C169.66 251.93 172.18 248.64 172.18 245.33L172.18 240.48L170.25 240.48Z" fill="#F2A233" fill-opacity="1.000000" fill-rule="nonzero"/>
	<path id="Vector" d="M164.57 231.39C174.65 236.43 174.65 244.6 164.57 249.65C154.5 254.7 138.15 254.69 128.08 249.65C118 244.61 118 236.44 128.08 231.39C138.15 226.34 154.49 226.35 164.57 231.39Z" fill="#FCC881" fill-opacity="1.000000" fill-rule="nonzero"/>
	<path id="Vector" d="M130.02 234.1C139.03 229.6 153.63 229.6 162.63 234.1C166.7 236.13 168.9 238.71 169.3 241.39C169.78 238.15 167.58 234.84 162.63 232.37C153.63 227.86 139.03 227.86 130.02 232.37C125.08 234.84 122.87 238.15 123.36 241.39C123.76 238.72 125.96 236.13 130.02 234.1Z" fill="#E68F17" fill-opacity="1.000000" fill-rule="nonzero"/>
	<path id="Vector" d="M130.02 248.67C139.03 253.18 153.63 253.18 162.63 248.67C166.7 246.65 168.9 244.07 169.3 241.39C168.9 238.73 166.7 236.13 162.63 234.1C153.63 229.6 139.03 229.6 130.02 234.1C125.96 236.13 123.76 238.71 123.36 241.39C123.76 244.04 125.96 246.64 130.02 248.67Z" fill="#F2AC4B" fill-opacity="1.000000" fill-rule="nonzero"/>
	<path id="Vector" d="M135.34 240.88C136.33 242.26 137.66 243.36 139.2 244.09C141.32 245.15 143.34 245.27 144.67 244.6C146 243.93 145.7 243.11 144.13 241.44C141.9 239.15 141.58 237.09 144.54 235.6C148.05 233.85 153.64 233.97 158.47 236.39C160.09 237.11 161.52 238.18 162.66 239.53L157.89 240.88C157.03 239.73 155.89 238.82 154.57 238.25C152.57 237.24 150.68 237.21 149.62 237.75C148.31 238.4 148.89 239.27 150.54 241.09C152.83 243.57 152.64 245.37 149.75 246.81C146.31 248.53 140.75 248.65 135.13 245.89C133.32 245.11 131.74 243.9 130.52 242.36L135.34 240.88Z" fill="#DB8816" fill-opacity="1.000000" fill-rule="nonzero"/>
	<path id="Vector" d="M135.91 248.42L132.8 246.88L158.54 234L161.64 235.55L135.91 248.42Z" fill="#DB8816" fill-opacity="1.000000" fill-rule="nonzero"/>
	<path id="Vector" d="M161.64 234.64L161.64 235.56L160.04 236.36L158.97 235.98L161.64 234.64Z" fill="#F09518" fill-opacity="1.000000" fill-rule="nonzero"/>
	<path id="Vector" d="M130.57 242.33L130.57 241.41L132.52 241.87L131.55 242.85L130.57 242.33Z" fill="#DB8816" fill-opacity="1.000000" fill-rule="nonzero"/>
	<path id="Vector" d="M132.8 246.88L132.8 245.96L135.91 247.51L135.91 248.42L132.8 246.88ZM162.67 239.53L162.67 238.61L157.89 239.97L157.89 240.88L162.67 239.53Z" fill="#EB9217" fill-opacity="1.000000" fill-rule="nonzero"/>
	<path id="Vector" d="M135.34 239.97C136.33 241.35 137.66 242.45 139.2 243.17C141.32 244.24 143.34 244.36 144.67 243.69C146 243.02 145.7 242.2 144.13 240.53C141.9 238.24 141.58 236.18 144.54 234.69C148.05 232.94 153.64 233.06 158.47 235.48C160.09 236.19 161.52 237.26 162.66 238.61L157.89 239.97C157.03 238.82 155.89 237.91 154.57 237.33C152.57 236.33 150.68 236.3 149.62 236.84C148.31 237.49 148.89 238.36 150.54 240.18C152.83 242.66 152.64 244.45 149.75 245.9C146.31 247.62 140.75 247.74 135.13 244.98C133.32 244.2 131.74 242.99 130.52 241.45L135.34 239.97Z" fill="#FCC881" fill-opacity="1.000000" fill-rule="nonzero"/>
	<path id="Vector" d="M135.91 247.51L132.8 245.96L158.54 233.09L161.64 234.64L135.91 247.51Z" fill="#FCC881" fill-opacity="1.000000" fill-rule="nonzero"/>
	<path id="Vector" d="M209.79 195.84L209.79 196.76L208.18 197.56L207.13 197.18L209.79 195.84Z" fill="#F09518" fill-opacity="1.000000" fill-rule="nonzero"/>
	<path id="Vector" d="M178.72 203.53L178.72 202.61L180.67 203.07L179.69 204.05L178.72 203.53Z" fill="#DB8816" fill-opacity="1.000000" fill-rule="nonzero"/>
	<path id="Vector" d="M180.96 208.07L180.96 207.17L184.06 208.71L184.06 209.62L180.96 208.07ZM210.82 200.73L210.82 199.81L206.05 201.17L206.05 202.08L210.82 200.73Z" fill="#EB9217" fill-opacity="1.000000" fill-rule="nonzero"/>
	<path id="Vector" d="M183.53 201.17C184.53 202.55 185.85 203.65 187.39 204.37C189.52 205.44 191.53 205.56 192.86 204.89C194.2 204.22 193.9 203.4 192.32 201.73C190.1 199.44 189.77 197.38 192.75 195.89C196.24 194.14 201.83 194.26 206.67 196.68C208.29 197.39 209.72 198.46 210.86 199.81L206.1 201.17C205.24 200.02 204.09 199.11 202.78 198.53C200.77 197.53 198.88 197.5 197.83 198.04C196.52 198.69 197.1 199.56 198.74 201.38C201.03 203.86 200.85 205.66 197.96 207.1C194.52 208.82 188.96 208.94 183.33 206.18C181.53 205.4 179.95 204.18 178.73 202.65L183.53 201.17Z" fill="#FCC881" fill-opacity="1.000000" fill-rule="nonzero"/>
	<path id="Vector" d="M184.06 208.71L180.96 207.17L206.69 194.29L209.79 195.84L184.06 208.71Z" fill="#FCC881" fill-opacity="1.000000" fill-rule="nonzero"/>
	<path id="Vector" d="M198.88 7.23L196.57 8.83C196.41 8.61 196.21 8.42 195.99 8.27L183.32 0.51C182.63 0.09 182.05 0.51 182.05 1.39L182.05 17.87C182.07 18.35 182.19 18.81 182.4 19.23C182.63 19.65 182.94 20.02 183.32 20.3L195.99 28.05C196.68 28.48 197.26 28.05 197.26 27.18L197.26 13.02L200.68 10.65L198.88 7.23ZM194.72 24.01L184.6 17.81L184.6 4.58L194.2 10.46L189.66 13.59L188.02 10.46L186.23 11.69L188.76 16.54C189.26 17.46 190.06 17.98 190.55 17.64L194.72 14.76L194.72 24.01ZM206.11 27.66L242.84 50.14L242.84 53.44L206.11 30.95L206.11 27.66ZM206.11 17.76L242.84 40.25L242.84 43.55L206.11 21.06L206.11 17.76Z" fill="#175297" fill-opacity="1.000000" fill-rule="nonzero"/>
</svg>
