<svg width="532.750000" height="92.652344" viewBox="0 0 532.75 92.6523" fill="none" xmlns="http://www.w3.org/2000/svg" xmlns:xlink="http://www.w3.org/1999/xlink">
	<desc>
			Created with Pixso.
	</desc>
	<defs>
		<clipPath id="clip1_32669">
			<rect id="Bar chart - item" rx="1.737228" width="8.107065" height="27.795654" transform="translate(0.579076 64.277321)" fill="white" fill-opacity="0"/>
		</clipPath>
		<clipPath id="clip1_32670">
			<rect id="Bar chart - item" rx="1.737228" width="8.107065" height="71.805443" transform="translate(18.630224 20.267553)" fill="white" fill-opacity="0"/>
		</clipPath>
		<clipPath id="clip1_32671">
			<rect id="Bar chart - item" rx="1.737228" width="8.107065" height="52.116848" transform="translate(36.681492 39.956272)" fill="white" fill-opacity="0"/>
		</clipPath>
		<clipPath id="clip1_32672">
			<rect id="Bar chart - item" rx="1.737228" width="8.107065" height="37.060871" transform="translate(54.732639 55.012180)" fill="white" fill-opacity="0"/>
		</clipPath>
		<clipPath id="clip1_32673">
			<rect id="Bar chart - item" rx="1.737228" width="8.107065" height="49.800545" transform="translate(72.783852 42.272434)" fill="white" fill-opacity="0"/>
		</clipPath>
		<clipPath id="clip1_32674">
			<rect id="Bar chart - item" rx="1.737228" width="8.107065" height="15.055978" transform="translate(90.835060 77.017067)" fill="white" fill-opacity="0"/>
		</clipPath>
		<clipPath id="clip1_32675">
			<rect id="Bar chart - item" rx="1.737228" width="8.107065" height="62.540218" transform="translate(108.886269 29.532934)" fill="white" fill-opacity="0"/>
		</clipPath>
		<clipPath id="clip1_32676">
			<rect id="Bar chart - item" rx="1.737228" width="8.107065" height="44.009785" transform="translate(126.937477 48.063450)" fill="white" fill-opacity="0"/>
		</clipPath>
		<clipPath id="clip1_32677">
			<rect id="Bar chart - item" rx="1.737228" width="8.107065" height="68.330986" transform="translate(144.988617 23.742163)" fill="white" fill-opacity="0"/>
		</clipPath>
		<clipPath id="clip1_32678">
			<rect id="Bar chart - item" rx="1.737228" width="8.107065" height="23.163048" transform="translate(163.039825 68.910133)" fill="white" fill-opacity="0"/>
		</clipPath>
		<clipPath id="clip1_32679">
			<rect id="Bar chart - item" rx="1.737228" width="8.107065" height="57.907608" transform="translate(181.091034 34.165501)" fill="white" fill-opacity="0"/>
		</clipPath>
		<clipPath id="clip1_32680">
			<rect id="Bar chart - item" rx="1.737228" width="8.107065" height="52.116848" transform="translate(199.142242 39.956272)" fill="white" fill-opacity="0"/>
		</clipPath>
		<clipPath id="clip1_32681">
			<rect id="Bar chart - item" rx="1.737228" width="8.107065" height="84.545113" transform="translate(217.193390 7.528051)" fill="white" fill-opacity="0"/>
		</clipPath>
		<clipPath id="clip1_32682">
			<rect id="Bar chart - item" rx="1.737228" width="8.107065" height="37.060871" transform="translate(235.244598 55.012180)" fill="white" fill-opacity="0"/>
		</clipPath>
		<clipPath id="clip1_32683">
			<rect id="Bar chart - item" rx="1.737228" width="8.107065" height="60.223915" transform="translate(253.295868 31.849096)" fill="white" fill-opacity="0"/>
		</clipPath>
		<clipPath id="clip1_32684">
			<rect id="Bar chart - item" rx="1.737228" width="8.107065" height="15.055978" transform="translate(271.347015 77.017067)" fill="white" fill-opacity="0"/>
		</clipPath>
		<clipPath id="clip1_32685">
			<rect id="Bar chart - item" rx="1.737228" width="8.107065" height="39.377174" transform="translate(289.398285 52.695774)" fill="white" fill-opacity="0"/>
		</clipPath>
		<clipPath id="clip1_32686">
			<rect id="Bar chart - item" rx="1.737228" width="8.107065" height="74.121742" transform="translate(307.449432 17.951391)" fill="white" fill-opacity="0"/>
		</clipPath>
		<clipPath id="clip1_32687">
			<rect id="Bar chart - item" rx="1.737228" width="8.107065" height="23.163048" transform="translate(325.500702 68.910133)" fill="white" fill-opacity="0"/>
		</clipPath>
		<clipPath id="clip1_32688">
			<rect id="Bar chart - item" rx="1.737228" width="8.107065" height="49.800545" transform="translate(343.551849 42.272434)" fill="white" fill-opacity="0"/>
		</clipPath>
		<clipPath id="clip1_32689">
			<rect id="Bar chart - item" rx="1.737228" width="8.107065" height="63.698368" transform="translate(361.603119 28.374731)" fill="white" fill-opacity="0"/>
		</clipPath>
		<clipPath id="clip1_32690">
			<rect id="Bar chart - item" rx="1.737228" width="8.107065" height="32.428261" transform="translate(379.654266 59.644749)" fill="white" fill-opacity="0"/>
		</clipPath>
		<clipPath id="clip1_32691">
			<rect id="Bar chart - item" rx="1.737228" width="8.107065" height="57.907608" transform="translate(397.705536 34.165501)" fill="white" fill-opacity="0"/>
		</clipPath>
		<clipPath id="clip1_32692">
			<rect id="Bar chart - item" rx="1.737228" width="8.107065" height="25.479349" transform="translate(415.756683 66.593727)" fill="white" fill-opacity="0"/>
		</clipPath>
		<clipPath id="clip1_32693">
			<rect id="Bar chart - item" rx="1.737228" width="8.107065" height="91.494026" transform="translate(433.807953 0.579076)" fill="white" fill-opacity="0"/>
		</clipPath>
		<clipPath id="clip1_32694">
			<rect id="Bar chart - item" rx="1.737228" width="8.107065" height="39.377174" transform="translate(451.859100 52.695774)" fill="white" fill-opacity="0"/>
		</clipPath>
		<clipPath id="clip1_32695">
			<rect id="Bar chart - item" rx="1.737228" width="8.107065" height="74.121742" transform="translate(469.910370 17.951391)" fill="white" fill-opacity="0"/>
		</clipPath>
		<clipPath id="clip1_32696">
			<rect id="Bar chart - item" rx="1.737228" width="8.107065" height="20.846741" transform="translate(487.961517 71.226295)" fill="white" fill-opacity="0"/>
		</clipPath>
		<clipPath id="clip1_32697">
			<rect id="Bar chart - item" rx="1.737228" width="8.107065" height="63.698368" transform="translate(506.012787 28.374731)" fill="white" fill-opacity="0"/>
		</clipPath>
		<clipPath id="clip1_32698">
			<rect id="Bar chart - item" rx="1.737228" width="8.107065" height="41.693478" transform="translate(524.063904 50.379612)" fill="white" fill-opacity="0"/>
		</clipPath>
	</defs>
	<rect id="Bar chart" rx="0.000000" width="531.591858" height="91.494019" transform="translate(0.579076 0.579076)" fill="#FFFFFF" fill-opacity="0"/>
	<g clip-path="url(#clip1_32669)">
		<path id="bar" d="M0 65.43C0 64.47 0.77 63.69 1.73 63.69C2.69 63.69 3.47 64.47 3.47 65.43L3.47 92.65L0 92.65L0 65.43Z" fill="#0176FF" fill-opacity="0.200000" fill-rule="evenodd"/>
		<path id="bar" d="M5.79 38.79C5.79 37.83 6.56 37.06 7.52 37.06C8.48 37.06 9.26 37.83 9.26 38.79L9.26 92.65L5.79 92.65L5.79 38.79Z" fill="#FF0000" fill-opacity="0.040000" fill-rule="evenodd"/>
	</g>
	<g clip-path="url(#clip1_32670)">
		<path id="bar" d="M18.05 21.42C18.05 20.46 18.82 19.68 19.78 19.68C20.74 19.68 21.52 20.46 21.52 21.42L21.52 92.65L18.05 92.65L18.05 21.42Z" fill="#0176FF" fill-opacity="0.200000" fill-rule="evenodd"/>
		<path id="bar" d="M23.84 38.79C23.84 37.83 24.61 37.06 25.57 37.06C26.53 37.06 27.31 37.83 27.31 38.79L27.31 92.65L23.84 92.65L23.84 38.79Z" fill="#FF0000" fill-opacity="0.040000" fill-rule="evenodd"/>
	</g>
	<g clip-path="url(#clip1_32671)">
		<path id="bar" d="M36.1 41.11C36.1 40.15 36.88 39.37 37.83 39.37C38.79 39.37 39.57 40.15 39.57 41.11L39.57 92.65L36.1 92.65L36.1 41.11Z" fill="#0176FF" fill-opacity="0.200000" fill-rule="evenodd"/>
		<path id="bar" d="M41.89 38.79C41.89 37.83 42.67 37.06 43.63 37.06C44.58 37.06 45.36 37.83 45.36 38.79L45.36 92.65L41.89 92.65L41.89 38.79Z" fill="#FF0000" fill-opacity="0.040000" fill-rule="evenodd"/>
	</g>
	<g clip-path="url(#clip1_32672)">
		<path id="bar" d="M54.15 56.17C54.15 55.21 54.93 54.43 55.89 54.43C56.85 54.43 57.62 55.21 57.62 56.17L57.62 92.65L54.15 92.65L54.15 56.17Z" fill="#0176FF" fill-opacity="0.200000" fill-rule="evenodd"/>
		<path id="bar" d="M59.94 38.79C59.94 37.83 60.72 37.06 61.68 37.06C62.64 37.06 63.41 37.83 63.41 38.79L63.41 92.65L59.94 92.65L59.94 38.79Z" fill="#FF0000" fill-opacity="0.040000" fill-rule="evenodd"/>
	</g>
	<g clip-path="url(#clip1_32673)">
		<path id="bar" d="M72.2 43.43C72.2 42.47 72.98 41.69 73.94 41.69C74.9 41.69 75.67 42.47 75.67 43.43L75.67 92.65L72.2 92.65L72.2 43.43Z" fill="#0176FF" fill-opacity="0.200000" fill-rule="evenodd"/>
		<path id="bar" d="M77.99 38.79C77.99 37.83 78.77 37.06 79.73 37.06C80.69 37.06 81.47 37.83 81.47 38.79L81.47 92.65L77.99 92.65L77.99 38.79Z" fill="#FF0000" fill-opacity="0.040000" fill-rule="evenodd"/>
	</g>
	<g clip-path="url(#clip1_32674)">
		<path id="bar" d="M90.25 78.17C90.25 77.21 91.03 76.43 91.99 76.43C92.95 76.43 93.73 77.21 93.73 78.17L93.73 92.65L90.25 92.65L90.25 78.17Z" fill="#0176FF" fill-opacity="0.200000" fill-rule="evenodd"/>
		<path id="bar" d="M96.04 38.79C96.04 37.83 96.82 37.06 97.78 37.06C98.74 37.06 99.52 37.83 99.52 38.79L99.52 92.65L96.04 92.65L96.04 38.79Z" fill="#FF0000" fill-opacity="0.040000" fill-rule="evenodd"/>
	</g>
	<g clip-path="url(#clip1_32675)">
		<path id="bar" d="M108.3 30.69C108.3 29.73 109.08 28.95 110.04 28.95C111 28.95 111.78 29.73 111.78 30.69L111.78 92.65L108.3 92.65L108.3 30.69Z" fill="#0176FF" fill-opacity="0.200000" fill-rule="evenodd"/>
		<path id="bar" d="M114.09 38.79C114.09 37.83 114.87 37.06 115.83 37.06C116.79 37.06 117.57 37.83 117.57 38.79L117.57 92.65L114.09 92.65L114.09 38.79Z" fill="#FF0000" fill-opacity="0.040000" fill-rule="evenodd"/>
	</g>
	<g clip-path="url(#clip1_32676)">
		<path id="bar" d="M126.35 49.22C126.35 48.26 127.13 47.48 128.09 47.48C129.05 47.48 129.83 48.26 129.83 49.22L129.83 92.65L126.35 92.65L126.35 49.22Z" fill="#0176FF" fill-opacity="0.200000" fill-rule="evenodd"/>
		<path id="bar" d="M132.14 38.79C132.14 37.83 132.92 37.06 133.88 37.06C134.84 37.06 135.62 37.83 135.62 38.79L135.62 92.65L132.14 92.65L132.14 38.79Z" fill="#FF0000" fill-opacity="0.040000" fill-rule="evenodd"/>
	</g>
	<g clip-path="url(#clip1_32677)">
		<path id="bar" d="M144.41 24.9C144.41 23.94 145.18 23.16 146.14 23.16C147.1 23.16 147.88 23.94 147.88 24.9L147.88 92.65L144.41 92.65L144.41 24.9Z" fill="#0176FF" fill-opacity="0.200000" fill-rule="evenodd"/>
		<path id="bar" d="M150.2 38.79C150.2 37.83 150.97 37.06 151.93 37.06C152.89 37.06 153.67 37.83 153.67 38.79L153.67 92.65L150.2 92.65L150.2 38.79Z" fill="#FF0000" fill-opacity="0.040000" fill-rule="evenodd"/>
	</g>
	<g clip-path="url(#clip1_32678)">
		<path id="bar" d="M162.46 70.06C162.46 69.1 163.23 68.33 164.19 68.33C165.15 68.33 165.93 69.1 165.93 70.06L165.93 92.65L162.46 92.65L162.46 70.06Z" fill="#0176FF" fill-opacity="0.200000" fill-rule="evenodd"/>
		<path id="bar" d="M168.25 38.79C168.25 37.83 169.02 37.06 169.98 37.06C170.94 37.06 171.72 37.83 171.72 38.79L171.72 92.65L168.25 92.65L168.25 38.79Z" fill="#FF0000" fill-opacity="0.040000" fill-rule="evenodd"/>
	</g>
	<g clip-path="url(#clip1_32679)">
		<path id="bar" d="M180.51 35.32C180.51 34.36 181.29 33.58 182.24 33.58C183.2 33.58 183.98 34.36 183.98 35.32L183.98 92.65L180.51 92.65L180.51 35.32Z" fill="#0176FF" fill-opacity="0.200000" fill-rule="evenodd"/>
		<path id="bar" d="M186.3 38.79C186.3 37.83 187.08 37.06 188.04 37.06C188.99 37.06 189.77 37.83 189.77 38.79L189.77 92.65L186.3 92.65L186.3 38.79Z" fill="#FF0000" fill-opacity="0.040000" fill-rule="evenodd"/>
	</g>
	<g clip-path="url(#clip1_32680)">
		<path id="bar" d="M198.56 41.11C198.56 40.15 199.34 39.37 200.3 39.37C201.26 39.37 202.03 40.15 202.03 41.11L202.03 92.65L198.56 92.65L198.56 41.11Z" fill="#0176FF" fill-opacity="0.200000" fill-rule="evenodd"/>
		<path id="bar" d="M204.35 38.79C204.35 37.83 205.13 37.06 206.09 37.06C207.05 37.06 207.82 37.83 207.82 38.79L207.82 92.65L204.35 92.65L204.35 38.79Z" fill="#FF0000" fill-opacity="0.040000" fill-rule="evenodd"/>
	</g>
	<g clip-path="url(#clip1_32681)">
		<path id="bar" d="M216.61 8.68C216.61 7.72 217.39 6.94 218.35 6.94C219.31 6.94 220.08 7.72 220.08 8.68L220.08 92.65L216.61 92.65L216.61 8.68Z" fill="#0176FF" fill-opacity="0.200000" fill-rule="evenodd"/>
		<path id="bar" d="M222.4 38.79C222.4 37.83 223.18 37.06 224.14 37.06C225.1 37.06 225.88 37.83 225.88 38.79L225.88 92.65L222.4 92.65L222.4 38.79Z" fill="#FF0000" fill-opacity="0.040000" fill-rule="evenodd"/>
	</g>
	<g clip-path="url(#clip1_32682)">
		<path id="bar" d="M234.66 56.17C234.66 55.21 235.44 54.43 236.4 54.43C237.36 54.43 238.14 55.21 238.14 56.17L238.14 92.65L234.66 92.65L234.66 56.17Z" fill="#0176FF" fill-opacity="0.200000" fill-rule="evenodd"/>
		<path id="bar" d="M240.45 38.79C240.45 37.83 241.23 37.06 242.19 37.06C243.15 37.06 243.93 37.83 243.93 38.79L243.93 92.65L240.45 92.65L240.45 38.79Z" fill="#FF0000" fill-opacity="0.040000" fill-rule="evenodd"/>
	</g>
	<g clip-path="url(#clip1_32683)">
		<path id="bar" d="M252.71 33C252.71 32.04 253.49 31.27 254.45 31.27C255.41 31.27 256.19 32.04 256.19 33L256.19 92.65L252.71 92.65L252.71 33Z" fill="#0176FF" fill-opacity="0.200000" fill-rule="evenodd"/>
		<path id="bar" d="M258.5 38.79C258.5 37.83 259.28 37.06 260.24 37.06C261.2 37.06 261.98 37.83 261.98 38.79L261.98 92.65L258.5 92.65L258.5 38.79Z" fill="#FF0000" fill-opacity="0.040000" fill-rule="evenodd"/>
	</g>
	<g clip-path="url(#clip1_32684)">
		<path id="bar" d="M270.76 78.17C270.76 77.21 271.54 76.43 272.5 76.43C273.46 76.43 274.24 77.21 274.24 78.17L274.24 92.65L270.76 92.65L270.76 78.17Z" fill="#0176FF" fill-opacity="0.200000" fill-rule="evenodd"/>
		<path id="bar" d="M276.55 38.79C276.55 37.83 277.33 37.06 278.29 37.06C279.25 37.06 280.03 37.83 280.03 38.79L280.03 92.65L276.55 92.65L276.55 38.79Z" fill="#FF0000" fill-opacity="0.040000" fill-rule="evenodd"/>
	</g>
	<g clip-path="url(#clip1_32685)">
		<path id="bar" d="M288.81 53.85C288.81 52.89 289.59 52.11 290.55 52.11C291.51 52.11 292.29 52.89 292.29 53.85L292.29 92.65L288.81 92.65L288.81 53.85Z" fill="#0176FF" fill-opacity="0.200000" fill-rule="evenodd"/>
		<path id="bar" d="M294.6 38.79C294.6 37.83 295.38 37.06 296.34 37.06C297.3 37.06 298.08 37.83 298.08 38.79L298.08 92.65L294.6 92.65L294.6 38.79Z" fill="#FF0000" fill-opacity="0.040000" fill-rule="evenodd"/>
	</g>
	<g clip-path="url(#clip1_32686)">
		<path id="bar" d="M306.87 19.1C306.87 18.15 307.64 17.37 308.6 17.37C309.56 17.37 310.34 18.15 310.34 19.1L310.34 92.65L306.87 92.65L306.87 19.1Z" fill="#0176FF" fill-opacity="0.200000" fill-rule="evenodd"/>
		<path id="bar" d="M312.66 38.79C312.66 37.83 313.43 37.06 314.39 37.06C315.35 37.06 316.13 37.83 316.13 38.79L316.13 92.65L312.66 92.65L312.66 38.79Z" fill="#FF0000" fill-opacity="0.040000" fill-rule="evenodd"/>
	</g>
	<g clip-path="url(#clip1_32687)">
		<path id="bar" d="M324.92 70.06C324.92 69.1 325.69 68.33 326.65 68.33C327.61 68.33 328.39 69.1 328.39 70.06L328.39 92.65L324.92 92.65L324.92 70.06Z" fill="#0176FF" fill-opacity="0.200000" fill-rule="evenodd"/>
		<path id="bar" d="M330.71 38.79C330.71 37.83 331.49 37.06 332.45 37.06C333.4 37.06 334.18 37.83 334.18 38.79L334.18 92.65L330.71 92.65L330.71 38.79Z" fill="#FF0000" fill-opacity="0.040000" fill-rule="evenodd"/>
	</g>
	<g clip-path="url(#clip1_32688)">
		<path id="bar" d="M342.97 43.43C342.97 42.47 343.75 41.69 344.71 41.69C345.66 41.69 346.44 42.47 346.44 43.43L346.44 92.65L342.97 92.65L342.97 43.43Z" fill="#0176FF" fill-opacity="0.200000" fill-rule="evenodd"/>
		<path id="bar" d="M348.76 38.79C348.76 37.83 349.54 37.06 350.5 37.06C351.46 37.06 352.23 37.83 352.23 38.79L352.23 92.65L348.76 92.65L348.76 38.79Z" fill="#FF0000" fill-opacity="0.040000" fill-rule="evenodd"/>
	</g>
	<g clip-path="url(#clip1_32689)">
		<path id="bar" d="M361.02 29.53C361.02 28.57 361.8 27.79 362.76 27.79C363.72 27.79 364.49 28.57 364.49 29.53L364.49 92.65L361.02 92.65L361.02 29.53Z" fill="#0176FF" fill-opacity="0.200000" fill-rule="evenodd"/>
		<path id="bar" d="M366.81 38.79C366.81 37.83 367.59 37.06 368.55 37.06C369.51 37.06 370.28 37.83 370.28 38.79L370.28 92.65L366.81 92.65L366.81 38.79Z" fill="#FF0000" fill-opacity="0.040000" fill-rule="evenodd"/>
	</g>
	<g clip-path="url(#clip1_32690)">
		<path id="bar" d="M379.07 60.8C379.07 59.84 379.85 59.06 380.81 59.06C381.77 59.06 382.55 59.84 382.55 60.8L382.55 92.65L379.07 92.65L379.07 60.8Z" fill="#0176FF" fill-opacity="0.200000" fill-rule="evenodd"/>
		<path id="bar" d="M384.86 38.79C384.86 37.83 385.64 37.06 386.6 37.06C387.56 37.06 388.34 37.83 388.34 38.79L388.34 92.65L384.86 92.65L384.86 38.79Z" fill="#FF0000" fill-opacity="0.040000" fill-rule="evenodd"/>
	</g>
	<g clip-path="url(#clip1_32691)">
		<path id="bar" d="M397.12 35.32C397.12 34.36 397.9 33.58 398.86 33.58C399.82 33.58 400.6 34.36 400.6 35.32L400.6 92.65L397.12 92.65L397.12 35.32Z" fill="#0176FF" fill-opacity="0.200000" fill-rule="evenodd"/>
		<path id="bar" d="M402.91 38.79C402.91 37.83 403.69 37.06 404.65 37.06C405.61 37.06 406.39 37.83 406.39 38.79L406.39 92.65L402.91 92.65L402.91 38.79Z" fill="#FF0000" fill-opacity="0.040000" fill-rule="evenodd"/>
	</g>
	<g clip-path="url(#clip1_32692)">
		<path id="bar" d="M415.17 67.75C415.17 66.79 415.95 66.01 416.91 66.01C417.87 66.01 418.65 66.79 418.65 67.75L418.65 92.65L415.17 92.65L415.17 67.75Z" fill="#0176FF" fill-opacity="0.200000" fill-rule="evenodd"/>
		<path id="bar" d="M420.96 38.79C420.96 37.83 421.74 37.06 422.7 37.06C423.66 37.06 424.44 37.83 424.44 38.79L424.44 92.65L420.96 92.65L420.96 38.79Z" fill="#FF0000" fill-opacity="0.040000" fill-rule="evenodd"/>
	</g>
	<g clip-path="url(#clip1_32693)">
		<path id="bar" d="M433.22 1.73C433.22 0.77 434 0 434.96 0C435.92 0 436.7 0.77 436.7 1.73L436.7 92.65L433.22 92.65L433.22 1.73Z" fill="#0176FF" fill-opacity="0.200000" fill-rule="evenodd"/>
		<path id="bar" d="M439.02 38.79C439.02 37.83 439.79 37.06 440.75 37.06C441.71 37.06 442.49 37.83 442.49 38.79L442.49 92.65L439.02 92.65L439.02 38.79Z" fill="#FF0000" fill-opacity="0.040000" fill-rule="evenodd"/>
	</g>
	<g clip-path="url(#clip1_32694)">
		<path id="bar" d="M451.28 53.85C451.28 52.89 452.05 52.11 453.01 52.11C453.97 52.11 454.75 52.89 454.75 53.85L454.75 92.65L451.28 92.65L451.28 53.85Z" fill="#0176FF" fill-opacity="0.200000" fill-rule="evenodd"/>
		<path id="bar" d="M457.07 38.79C457.07 37.83 457.84 37.06 458.8 37.06C459.76 37.06 460.54 37.83 460.54 38.79L460.54 92.65L457.07 92.65L457.07 38.79Z" fill="#FF0000" fill-opacity="0.040000" fill-rule="evenodd"/>
	</g>
	<g clip-path="url(#clip1_32695)">
		<path id="bar" d="M469.33 19.1C469.33 18.15 470.1 17.37 471.06 17.37C472.02 17.37 472.8 18.15 472.8 19.1L472.8 92.65L469.33 92.65L469.33 19.1Z" fill="#0176FF" fill-opacity="0.200000" fill-rule="evenodd"/>
		<path id="bar" d="M475.12 38.79C475.12 37.83 475.9 37.06 476.85 37.06C477.81 37.06 478.59 37.83 478.59 38.79L478.59 92.65L475.12 92.65L475.12 38.79Z" fill="#FF0000" fill-opacity="0.040000" fill-rule="evenodd"/>
	</g>
	<g clip-path="url(#clip1_32696)">
		<path id="bar" d="M487.38 72.38C487.38 71.42 488.16 70.64 489.12 70.64C490.07 70.64 490.85 71.42 490.85 72.38L490.85 92.65L487.38 92.65L487.38 72.38Z" fill="#0176FF" fill-opacity="0.200000" fill-rule="evenodd"/>
		<path id="bar" d="M493.17 38.79C493.17 37.83 493.95 37.06 494.91 37.06C495.87 37.06 496.64 37.83 496.64 38.79L496.64 92.65L493.17 92.65L493.17 38.79Z" fill="#FF0000" fill-opacity="0.040000" fill-rule="evenodd"/>
	</g>
	<g clip-path="url(#clip1_32697)">
		<path id="bar" d="M505.43 29.53C505.43 28.57 506.21 27.79 507.17 27.79C508.13 27.79 508.9 28.57 508.9 29.53L508.9 92.65L505.43 92.65L505.43 29.53Z" fill="#0176FF" fill-opacity="0.200000" fill-rule="evenodd"/>
		<path id="bar" d="M511.22 38.79C511.22 37.83 512 37.06 512.96 37.06C513.92 37.06 514.69 37.83 514.69 38.79L514.69 92.65L511.22 92.65L511.22 38.79Z" fill="#FF0000" fill-opacity="0.040000" fill-rule="evenodd"/>
	</g>
	<g clip-path="url(#clip1_32698)">
		<path id="bar" d="M523.48 51.53C523.48 50.57 524.26 49.8 525.22 49.8C526.18 49.8 526.95 50.57 526.95 51.53L526.95 92.65L523.48 92.65L523.48 51.53Z" fill="#0176FF" fill-opacity="0.200000" fill-rule="evenodd"/>
		<path id="bar" d="M529.27 38.79C529.27 37.83 530.05 37.06 531.01 37.06C531.97 37.06 532.75 37.83 532.75 38.79L532.75 92.65L529.27 92.65L529.27 38.79Z" fill="#FF0000" fill-opacity="0.040000" fill-rule="evenodd"/>
	</g>
</svg>
