<svg width="510.394135" height="473.210541" viewBox="0 0 510.394 473.211" fill="none" xmlns="http://www.w3.org/2000/svg" xmlns:xlink="http://www.w3.org/1999/xlink">
	<desc>
			Created with Pixso.
	</desc>
	<defs/>
	<path id="Vector" d="M7.31 250.01L7.31 250.01L90.51 422.31C100.37 442.65 120.31 456.25 142.85 457.91L333.68 472.03C356.22 473.69 377.95 463.17 390.7 444.5L498.39 286.32C511.14 267.65 512.93 243.54 503.07 223.2L419.87 50.9C410.01 30.55 390.07 16.96 367.53 15.29L176.7 1.18C154.1 -0.49 132.37 9.96 119.68 28.7L11.9 186.82L7.31 250.01M90.51 422.31L7.31 250.01C-2.54 229.66 -0.75 205.55 11.99 186.88L119.68 28.7L119.68 28.7M11.99 186.88L11.9 186.82M119.68 28.7L367.53 15.29M367.53 15.29L419.87 50.9M503.07 223.2L498.39 286.32M390.7 444.5L333.68 472.03M90.51 422.31L142.85 457.91" stroke="#FFFFFF" stroke-opacity="1.000000" stroke-width="2.000000"/>
</svg>
