<svg width="577.519836" height="576.901245" viewBox="0 0 577.52 576.901" fill="none" xmlns="http://www.w3.org/2000/svg" xmlns:xlink="http://www.w3.org/1999/xlink">
	<desc>
			Created with Pixso.
	</desc>
	<defs/>
	<path id="Vector" d="M3.53 326.98C-3.23 352.29 3.98 379.3 22.5 397.8L179.3 554.42C197.83 572.92 224.86 580.11 250.2 573.36L464.55 515.93C489.89 509.18 509.72 489.37 516.48 464.07L573.98 249.96C580.74 224.66 573.53 197.65 555.01 179.15L398.21 22.52C379.63 3.97 352.64 -3.28 327.31 3.58L112.96 61.01C87.62 67.76 67.79 87.57 61.03 112.88L3.53 326.98ZM112.96 61.01L112.92 60.88M61.03 112.88L112.92 60.88L327.31 3.58M327.31 3.58L555.01 179.15M555.01 179.15L573.98 249.96M516.48 464.07L464.55 515.93M250.2 573.36L179.3 554.42M3.53 326.98L22.5 397.8" stroke="#FFFFFF" stroke-opacity="1.000000" stroke-width="2.000000"/>
</svg>
