<svg width="666.563354" height="622.241943" viewBox="0 0 666.563 622.242" fill="none" xmlns="http://www.w3.org/2000/svg" xmlns:xlink="http://www.w3.org/1999/xlink">
	<desc>
			Created with Pixso.
	</desc>
	<defs/>
	<path id="Vector" d="M658.03 299.96C670.35 326.82 667.35 358.24 650.23 382.37L505.15 586.34C488.04 610.47 459.24 623.65 429.77 620.85L180.38 597.46C150.91 594.66 125.12 576.42 112.8 549.57L8.52 322.28C-3.8 295.42 -0.79 264 16.32 239.87L161.4 35.89L161.31 35.83L161.4 35.89C178.52 11.76 207.31 -1.42 236.78 1.38L236.79 1.27L236.78 1.38L486.18 24.77C515.68 27.47 541.4 45.74 553.75 72.67L658.03 299.96ZM486.18 24.77L486.18 24.66" stroke="#FFFFFF" stroke-opacity="1.000000" stroke-width="2.000000"/>
</svg>
