<svg width="104.000000" height="36.000000" viewBox="0 0 104 36" fill="none" xmlns="http://www.w3.org/2000/svg" xmlns:xlink="http://www.w3.org/1999/xlink">
	<desc>
			Created with Pixso.
	</desc>
	<defs>
		<clipPath id="clip1_34785">
			<rect id="finaid-logo-Color" rx="0.000000" width="103.000000" height="35.000000" transform="translate(0.500000 0.500000)" fill="white" fill-opacity="0"/>
		</clipPath>
	</defs>
	<rect id="finaid-logo-Color" rx="0.000000" width="103.000000" height="35.000000" transform="translate(0.500000 0.500000)" fill="#FFFFFF" fill-opacity="0"/>
	<g clip-path="url(#clip1_34785)">
		<path id="Vector" d="M16.43 0C7.28 0.55 0 8.37 0 17.97C0 27.57 7.28 35.39 16.43 35.94L16.43 36L56.11 36L56.11 0L16.43 0Z" fill="#0176FF" fill-opacity="1.000000" fill-rule="nonzero"/>
		<path id="Vector" d="M46.79 17.97C46.79 8.37 50.57 0.55 55.32 0L59.94 0L73.44 0L87.57 0C96.71 0.55 103.98 8.37 103.98 17.97C103.98 27.57 96.71 35.39 87.57 35.94L87.57 36L73.44 35.97L73.44 36L55.32 36L55.32 35.94C50.57 35.39 46.79 27.57 46.79 17.97Z" fill="#FF0000" fill-opacity="1.000000" fill-rule="evenodd"/>
		<path id="Vector" d="M8.83 11.85L10.49 11.85C10.49 9.34 10.53 7.81 10.62 7.36C10.75 6.28 11.18 5.47 11.92 4.84C12.66 4.22 13.71 3.9 15.05 3.9C16.01 3.9 17.14 4.13 18.36 4.58L18.36 8.26C17.67 8.08 17.14 7.94 16.71 7.94C16.14 7.94 15.75 8.08 15.49 8.3C15.32 8.48 15.23 8.84 15.23 9.38L15.23 11.81L18.19 11.81L18.19 15.89L15.23 15.89L15.23 31.07L14.32 31.07C12.2 31.07 10.49 29.3 10.49 27.11L10.49 15.94L8.83 15.94L8.83 11.85Z" fill="#FFFFFF" fill-opacity="1.000000" fill-rule="nonzero"/>
		<path id="Vector" d="M20.01 11.85L24.71 11.85L24.71 31.12L20.01 31.12L20.01 11.85Z" fill="#FFFFFF" fill-opacity="1.000000" fill-rule="nonzero"/>
		<path id="Vector" d="M28.63 11.85L33.33 11.85L33.33 13.83C34.37 12.88 35.37 12.26 36.2 11.9C37.03 11.54 37.94 11.36 38.85 11.36C40.72 11.36 42.29 12.03 43.55 13.38C44.64 14.5 45.16 16.21 45.16 18.41L45.16 31.12L40.55 31.12L40.55 22.68C40.55 20.38 40.46 18.86 40.25 18.09C40.03 17.33 39.68 16.75 39.2 16.39C38.72 16.03 38.11 15.8 37.37 15.8C36.42 15.8 35.63 16.12 34.94 16.79C34.24 17.47 33.81 18.36 33.55 19.49C33.41 20.07 33.33 21.37 33.33 23.39L33.33 31.12L28.63 31.12L28.63 11.85Z" fill="#FFFFFF" fill-opacity="1.000000" fill-rule="nonzero"/>
		<path id="Vector" d="M64.26 11.85L68.96 11.85L68.96 31.12L64.26 31.12L64.26 29.1C63.35 30 62.43 30.63 61.52 31.03C60.6 31.43 59.6 31.61 58.52 31.61C56.12 31.61 54.03 30.67 52.25 28.74C50.51 26.81 49.6 24.43 49.6 21.55C49.6 18.59 50.47 16.12 52.16 14.23C53.86 12.34 55.95 11.4 58.39 11.4C59.52 11.4 60.56 11.63 61.52 12.08C62.52 12.52 63.39 13.15 64.26 14.05L64.26 11.85ZM59.34 15.85C57.91 15.85 56.69 16.39 55.73 17.42C54.77 18.5 54.3 19.85 54.3 21.46C54.3 23.12 54.77 24.52 55.78 25.55C56.73 26.63 57.95 27.17 59.39 27.17C60.87 27.17 62.08 26.63 63.04 25.59C64 24.52 64.48 23.17 64.48 21.46C64.48 19.8 64 18.41 63.04 17.38C62.04 16.34 60.82 15.85 59.34 15.85Z" fill="#FFFFFF" fill-opacity="1.000000" fill-rule="nonzero"/>
		<path id="Vector" d="M70.63 11.85L75.33 11.85L75.33 31.12L70.63 31.12L70.63 11.85Z" fill="#FFFFFF" fill-opacity="1.000000" fill-rule="nonzero"/>
		<path id="Vector" d="M91.32 4.44L91.64 4.44C94.06 4.44 96.02 6.47 96.02 8.97L96.02 26.64C96.02 29.14 94.06 31.16 91.64 31.16L91.32 31.16L91.32 29.14C90.41 30.04 89.49 30.67 88.58 31.07C87.67 31.48 86.67 31.66 85.58 31.66C83.19 31.66 81.1 30.72 79.31 28.78C77.57 26.85 76.66 24.47 76.66 21.6C76.66 18.63 77.53 16.16 79.23 14.28C80.92 12.39 83.01 11.45 85.45 11.45C86.58 11.45 87.62 11.67 88.58 12.12C89.58 12.57 90.45 13.2 91.32 14.1L91.32 4.44ZM86.4 15.85C84.97 15.85 83.75 16.39 82.79 17.42C81.84 18.5 81.36 19.85 81.36 21.46C81.36 23.12 81.84 24.52 82.84 25.55C83.79 26.63 85.01 27.17 86.45 27.17C87.93 27.17 89.15 26.63 90.1 25.6C91.06 24.52 91.54 23.17 91.54 21.46C91.54 19.8 91.06 18.41 90.1 17.38C89.1 16.34 87.88 15.85 86.4 15.85Z" fill="#FFFFFF" fill-opacity="1.000000" fill-rule="nonzero"/>
		<path id="Vector" d="M75.7 6.5C75.7 7.95 74.56 9.12 73.16 9.12C71.76 9.12 70.63 7.95 70.63 6.5C70.63 5.06 71.76 3.89 73.16 3.89C74.56 3.89 75.7 5.06 75.7 6.5Z" fill="#FFFFFF" fill-opacity="1.000000" fill-rule="evenodd"/>
	</g>
</svg>
