<svg width="404.630310" height="380.327637" viewBox="0 0 404.63 380.328" fill="none" xmlns="http://www.w3.org/2000/svg" xmlns:xlink="http://www.w3.org/1999/xlink">
	<desc>
			Created with Pixso.
	</desc>
	<defs>
		<linearGradient x1="91.505249" y1="138.347076" x2="234.077362" y2="138.347076" id="paint_linear_1_32839_0" gradientUnits="userSpaceOnUse">
			<stop stop-color="#191966"/>
			<stop offset="1.000000" stop-color="#191968"/>
		</linearGradient>
		<linearGradient x1="84.273865" y1="134.674728" x2="226.845993" y2="134.674728" id="paint_linear_1_32840_0" gradientUnits="userSpaceOnUse">
			<stop stop-color="#191966"/>
			<stop offset="1.000000" stop-color="#191968"/>
		</linearGradient>
		<linearGradient x1="34.575535" y1="290.989441" x2="70.812759" y2="290.989441" id="paint_linear_1_32925_0" gradientUnits="userSpaceOnUse">
			<stop stop-color="#3949AB"/>
			<stop offset="1.000000" stop-color="#9575CD"/>
		</linearGradient>
		<linearGradient x1="-56.924294" y1="284.072906" x2="-55.797859" y2="284.072906" id="paint_linear_1_32929_0" gradientUnits="userSpaceOnUse">
			<stop stop-color="#3949AB"/>
			<stop offset="1.000000" stop-color="#9575CD"/>
		</linearGradient>
	</defs>
	<path id="Vector" d="M394.34 243.92L212.87 354.3C212.47 354.55 211.75 354.55 211.29 354.29L69.95 275.72C69.46 275.45 69.41 275.02 69.85 274.78L258.88 165.65C259.28 165.41 259.98 165.44 260.43 165.71L394.25 243.02C394.69 243.28 394.72 243.67 394.34 243.91L394.34 243.92Z" fill="#E1F5FE" fill-opacity="1.000000" fill-rule="nonzero"/>
	<path id="Vector" d="M131.87 273.92L123.3 278.92C123.07 279.06 122.67 279.04 122.41 278.9L114.07 274.23C113.82 274.09 113.79 273.86 114.02 273.73L122.62 268.73C122.85 268.59 123.26 268.6 123.51 268.75L131.82 273.41C132.08 273.56 132.1 273.78 131.87 273.92Z" fill="#90CAF9" fill-opacity="1.000000" fill-rule="nonzero"/>
	<path id="Vector" d="M143.61 267.07L135.07 272.05C134.85 272.18 134.45 272.17 134.18 272.03L125.88 267.36C125.62 267.22 125.6 266.99 125.82 266.86L134.39 261.88C134.62 261.74 135.01 261.75 135.28 261.9L143.55 266.56C143.81 266.71 143.83 266.94 143.61 267.07Z" fill="#90CAF9" fill-opacity="1.000000" fill-rule="nonzero"/>
	<path id="Vector" d="M155.29 260.26L146.69 265.27C146.46 265.4 146.07 265.39 145.81 265.25L137.55 260.58C137.29 260.44 137.27 260.21 137.49 260.07L146.12 255.06C146.35 254.93 146.74 254.94 147 255.09L155.22 259.75C155.48 259.9 155.5 260.12 155.28 260.26L155.29 260.26Z" fill="#90CAF9" fill-opacity="1.000000" fill-rule="nonzero"/>
	<path id="Vector" d="M166.8 253.54L158.35 258.48C158.13 258.61 157.74 258.6 157.48 258.45L149.26 253.79C149 253.64 148.98 253.42 149.21 253.28L157.69 248.35C157.92 248.21 158.31 248.23 158.57 248.37L166.76 253.04C167.02 253.18 167.04 253.41 166.81 253.54L166.8 253.54Z" fill="#90CAF9" fill-opacity="1.000000" fill-rule="nonzero"/>
	<path id="Vector" d="M178.37 246.79L169.86 251.76C169.63 251.9 169.24 251.89 168.99 251.74L160.81 247.08C160.55 246.93 160.53 246.7 160.75 246.57L169.3 241.6C169.53 241.47 169.92 241.48 170.17 241.62L178.32 246.29C178.57 246.43 178.6 246.66 178.37 246.79Z" fill="#90CAF9" fill-opacity="1.000000" fill-rule="nonzero"/>
	<path id="Vector" d="M189.78 240.14L181.41 245.03C181.19 245.16 180.8 245.15 180.55 245L172.4 240.34C172.14 240.19 172.12 239.97 172.34 239.83L180.75 234.94C180.97 234.81 181.36 234.83 181.62 234.98L189.73 239.64C189.98 239.79 190.01 240.01 189.78 240.14Z" fill="#90CAF9" fill-opacity="1.000000" fill-rule="nonzero"/>
	<path id="Vector" d="M201.24 233.45L192.9 238.3C192.68 238.44 192.29 238.41 192.03 238.28L183.94 233.62C183.68 233.47 183.65 233.24 183.88 233.12L192.24 228.27C192.46 228.13 192.85 228.15 193.1 228.3L201.17 232.96C201.42 233.11 201.45 233.33 201.23 233.46L201.24 233.45Z" fill="#90CAF9" fill-opacity="1.000000" fill-rule="nonzero"/>
	<path id="Vector" d="M212.64 226.8L204.25 231.7C204.02 231.84 203.64 231.81 203.39 231.67L195.32 227C195.08 226.86 195.04 226.63 195.27 226.51L203.69 221.61C203.92 221.48 204.3 221.5 204.55 221.64L212.58 226.31C212.83 226.45 212.85 226.68 212.64 226.8Z" fill="#90CAF9" fill-opacity="1.000000" fill-rule="nonzero"/>
	<path id="Vector" d="M223.88 220.25L215.63 225.06C215.41 225.18 215.03 225.17 214.78 225.02L206.76 220.36C206.51 220.21 206.48 219.99 206.7 219.86L214.98 215.05C215.21 214.93 215.59 214.94 215.84 215.09L223.83 219.75C224.08 219.9 224.1 220.12 223.89 220.25L223.88 220.25Z" fill="#90CAF9" fill-opacity="1.000000" fill-rule="nonzero"/>
	<path id="Vector" d="M235.18 213.66L226.86 218.51C226.64 218.63 226.27 218.62 226.01 218.48L218.02 213.81C217.77 213.67 217.75 213.44 217.97 213.32L226.31 208.46C226.54 208.34 226.91 208.35 227.17 208.5L235.12 213.16C235.37 213.31 235.39 213.53 235.18 213.66Z" fill="#90CAF9" fill-opacity="1.000000" fill-rule="nonzero"/>
	<path id="Vector" d="M246.31 207.16L238.13 211.92C237.91 212.04 237.53 212.03 237.28 211.89L229.33 207.22C229.08 207.08 229.06 206.85 229.27 206.73L237.48 201.96C237.69 201.84 238.07 201.85 238.32 202L246.24 206.66C246.49 206.81 246.51 207.03 246.29 207.16L246.31 207.16Z" fill="#90CAF9" fill-opacity="1.000000" fill-rule="nonzero"/>
	<path id="Vector" d="M257.49 200.63L249.36 205.38C249.14 205.5 248.76 205.49 248.51 205.34L240.61 200.68C240.36 200.53 240.34 200.31 240.55 200.18L248.72 195.44C248.93 195.32 249.31 195.33 249.56 195.47L257.45 200.13C257.69 200.27 257.72 200.5 257.5 200.62L257.49 200.63Z" fill="#90CAF9" fill-opacity="1.000000" fill-rule="nonzero"/>
	<path id="Vector" d="M268.52 194.19L260.42 198.91C260.21 199.03 259.82 199.02 259.57 198.88L251.7 194.22C251.45 194.08 251.43 193.85 251.65 193.73L259.77 189.01C259.98 188.89 260.36 188.9 260.61 189.04L268.45 193.7C268.7 193.84 268.72 194.07 268.51 194.19L268.52 194.19Z" fill="#90CAF9" fill-opacity="1.000000" fill-rule="nonzero"/>
	<path id="Vector" d="M159.9 270.73L151.31 275.77C151.09 275.9 150.69 275.89 150.44 275.74L142.09 271.05C141.83 270.9 141.81 270.68 142.03 270.54L150.65 265.51C150.88 265.37 151.27 265.38 151.53 265.53L159.84 270.22C160.1 270.37 160.12 270.6 159.9 270.73Z" fill="#90CAF9" fill-opacity="1.000000" fill-rule="nonzero"/>
	<path id="Vector" d="M171.39 264L162.95 268.94C162.73 269.07 162.33 269.06 162.07 268.92L153.77 264.22C153.51 264.07 153.49 263.85 153.71 263.71L162.18 258.77C162.41 258.63 162.8 258.64 163.06 258.79L171.34 263.49C171.6 263.64 171.62 263.86 171.4 264L171.39 264Z" fill="#90CAF9" fill-opacity="1.000000" fill-rule="nonzero"/>
	<path id="Vector" d="M182.94 257.23L174.44 262.2C174.21 262.34 173.82 262.33 173.57 262.18L165.3 257.48C165.05 257.34 165.02 257.11 165.25 256.98L173.79 252C174.01 251.86 174.41 251.87 174.65 252.02L182.89 256.72C183.15 256.87 183.17 257.09 182.94 257.21L182.94 257.23Z" fill="#90CAF9" fill-opacity="1.000000" fill-rule="nonzero"/>
	<path id="Vector" d="M194.32 250.55L185.96 255.45C185.74 255.58 185.36 255.57 185.1 255.42L176.87 250.73C176.61 250.58 176.59 250.35 176.82 250.22L185.21 245.32C185.43 245.18 185.82 245.2 186.08 245.34L194.28 250.04C194.52 250.19 194.56 250.41 194.33 250.53L194.32 250.55Z" fill="#90CAF9" fill-opacity="1.000000" fill-rule="nonzero"/>
	<path id="Vector" d="M205.75 243.84L197.44 248.72C197.22 248.86 196.83 248.85 196.57 248.7L188.39 244C188.13 243.85 188.1 243.63 188.33 243.51L196.68 238.63C196.9 238.49 197.28 238.52 197.54 238.65L205.7 243.35C205.95 243.49 205.98 243.72 205.75 243.84Z" fill="#90CAF9" fill-opacity="1.000000" fill-rule="nonzero"/>
	<path id="Vector" d="M217.14 237.18L208.76 242.09C208.54 242.22 208.15 242.2 207.91 242.06L199.75 237.37C199.5 237.22 199.47 237 199.69 236.87L208.11 231.96C208.33 231.84 208.72 231.85 208.97 231.99L217.09 236.69C217.33 236.84 217.36 237.06 217.14 237.19L217.14 237.18Z" fill="#90CAF9" fill-opacity="1.000000" fill-rule="nonzero"/>
	<path id="Vector" d="M228.36 230.6L220.13 235.43C219.9 235.55 219.52 235.54 219.27 235.4L211.16 230.7C210.91 230.55 210.89 230.33 211.11 230.2L219.37 225.37C219.6 225.25 219.98 225.26 220.23 225.4L228.31 230.1C228.55 230.25 228.58 230.47 228.36 230.6Z" fill="#90CAF9" fill-opacity="1.000000" fill-rule="nonzero"/>
	<path id="Vector" d="M239.64 223.98L231.34 228.85C231.11 228.97 230.74 228.96 230.49 228.82L222.42 224.12C222.17 223.97 222.14 223.75 222.36 223.62L230.69 218.76C230.92 218.63 231.29 218.65 231.54 218.79L239.58 223.49C239.83 223.64 239.85 223.86 239.64 223.98Z" fill="#90CAF9" fill-opacity="1.000000" fill-rule="nonzero"/>
	<path id="Vector" d="M257.31 213.63L242.59 222.26C242.38 222.39 241.99 222.37 241.74 222.23L233.71 217.53C233.47 217.38 233.44 217.16 233.66 217.03L248.44 208.41C248.65 208.28 249.03 208.29 249.28 208.44L257.27 213.14C257.51 213.28 257.54 213.51 257.32 213.63L257.31 213.63Z" fill="#90CAF9" fill-opacity="1.000000" fill-rule="nonzero"/>
	<path id="Vector" d="M268.45 207.1L260.35 211.84C260.14 211.97 259.76 211.95 259.51 211.81L251.53 207.11C251.28 206.96 251.26 206.74 251.48 206.62L259.6 201.87C259.81 201.75 260.19 201.76 260.44 201.91L268.38 206.6C268.63 206.75 268.65 206.96 268.44 207.1L268.45 207.1Z" fill="#90CAF9" fill-opacity="1.000000" fill-rule="nonzero"/>
	<path id="Vector" d="M279.42 200.67L271.37 205.39C271.16 205.51 270.78 205.5 270.54 205.35L262.59 200.66C262.35 200.51 262.32 200.28 262.54 200.16L270.63 195.44C270.84 195.32 271.21 195.33 271.46 195.47L279.37 200.17C279.61 200.32 279.64 200.53 279.42 200.67Z" fill="#90CAF9" fill-opacity="1.000000" fill-rule="nonzero"/>
	<path id="Vector" d="M177.99 273.12L169.47 278.13C169.25 278.27 168.85 278.26 168.6 278.11L160.43 273.49C160.17 273.34 160.14 273.12 160.37 272.98L168.92 267.97C169.15 267.84 169.54 267.85 169.79 267.99L177.93 272.61C178.19 272.76 178.21 272.98 177.99 273.12Z" fill="#90CAF9" fill-opacity="1.000000" fill-rule="nonzero"/>
	<path id="Vector" d="M189.4 266.39L181.03 271.33C180.8 271.46 180.42 271.45 180.16 271.31L172.02 266.69C171.76 266.54 171.74 266.32 171.96 266.18L180.37 261.25C180.59 261.11 180.97 261.12 181.23 261.27L189.34 265.89C189.6 266.03 189.62 266.26 189.4 266.38L189.4 266.39Z" fill="#90CAF9" fill-opacity="1.000000" fill-rule="nonzero"/>
	<path id="Vector" d="M200.86 259.65L192.42 264.62C192.19 264.75 191.81 264.74 191.55 264.59L183.45 259.97C183.19 259.83 183.17 259.6 183.4 259.48L191.87 254.51C192.09 254.38 192.47 254.39 192.73 254.53L200.81 259.15C201.06 259.3 201.09 259.52 200.87 259.65L200.86 259.65Z" fill="#90CAF9" fill-opacity="1.000000" fill-rule="nonzero"/>
	<path id="Vector" d="M212.15 252.99L203.86 257.88C203.64 258.01 203.25 258 203.01 257.86L194.94 253.24C194.69 253.09 194.66 252.87 194.89 252.74L203.21 247.85C203.43 247.72 203.82 247.73 204.07 247.88L212.1 252.49C212.34 252.64 212.37 252.87 212.15 252.99Z" fill="#90CAF9" fill-opacity="1.000000" fill-rule="nonzero"/>
	<path id="Vector" d="M223.51 246.31L215.25 251.18C215.03 251.31 214.64 251.3 214.39 251.15L206.36 246.54C206.12 246.39 206.08 246.16 206.31 246.04L214.59 241.19C214.81 241.05 215.19 241.07 215.44 241.21L223.44 245.83C223.69 245.97 223.71 246.2 223.5 246.32L223.51 246.31Z" fill="#90CAF9" fill-opacity="1.000000" fill-rule="nonzero"/>
	<path id="Vector" d="M234.81 239.65L226.49 244.55C226.27 244.69 225.9 244.67 225.64 244.53L217.65 239.91C217.4 239.77 217.38 239.54 217.59 239.42L225.94 234.52C226.17 234.39 226.54 234.4 226.8 234.55L234.75 239.17C235 239.32 235.02 239.54 234.81 239.66L234.81 239.65Z" fill="#90CAF9" fill-opacity="1.000000" fill-rule="nonzero"/>
	<path id="Vector" d="M257.13 226.51L237.77 237.91C237.55 238.03 237.17 238.02 236.92 237.88L228.97 233.27C228.72 233.12 228.7 232.89 228.91 232.77L248.35 221.37C248.56 221.25 248.94 221.26 249.19 221.41L257.07 226.02C257.32 226.17 257.35 226.38 257.13 226.52L257.13 226.51Z" fill="#90CAF9" fill-opacity="1.000000" fill-rule="nonzero"/>
	<path id="Vector" d="M268.17 220.01L260.07 224.77C259.86 224.9 259.47 224.89 259.23 224.74L251.35 220.12C251.1 219.97 251.08 219.75 251.3 219.63L259.43 214.86C259.64 214.74 260.03 214.75 260.27 214.89L268.13 219.51C268.37 219.66 268.4 219.87 268.18 220.01L268.17 220.01Z" fill="#90CAF9" fill-opacity="1.000000" fill-rule="nonzero"/>
	<path id="Vector" d="M182.45 283.6L173.94 288.63C173.72 288.76 173.32 288.75 173.08 288.61L164.91 284.01C164.65 283.87 164.63 283.64 164.85 283.51L173.39 278.47C173.62 278.33 174.01 278.35 174.26 278.49L182.39 283.09C182.65 283.24 182.67 283.46 182.45 283.58L182.45 283.6Z" fill="#90CAF9" fill-opacity="1.000000" fill-rule="nonzero"/>
	<path id="Vector" d="M193.84 276.86L185.48 281.8C185.25 281.94 184.87 281.93 184.61 281.78L176.49 277.19C176.23 277.04 176.21 276.81 176.43 276.68L184.83 271.73C185.05 271.6 185.43 271.61 185.69 271.76L193.79 276.35C194.04 276.5 194.07 276.72 193.85 276.85L193.84 276.86Z" fill="#90CAF9" fill-opacity="1.000000" fill-rule="nonzero"/>
	<path id="Vector" d="M205.28 270.09L196.97 275.01C196.74 275.15 196.36 275.14 196.1 274.99L188.01 270.39C187.75 270.25 187.73 270.02 187.96 269.9L196.3 264.98C196.53 264.84 196.91 264.85 197.17 265L205.23 269.59C205.47 269.74 205.51 269.97 205.28 270.09Z" fill="#90CAF9" fill-opacity="1.000000" fill-rule="nonzero"/>
	<path id="Vector" d="M216.56 263.41L208.28 268.31C208.05 268.44 207.67 268.43 207.42 268.29L199.37 263.69C199.12 263.54 199.09 263.32 199.31 263.2L207.62 258.29C207.85 258.16 208.23 258.17 208.48 258.32L216.5 262.91C216.75 263.06 216.77 263.29 216.56 263.41Z" fill="#90CAF9" fill-opacity="1.000000" fill-rule="nonzero"/>
	<path id="Vector" d="M227.89 256.71L219.66 261.59C219.43 261.72 219.05 261.71 218.8 261.56L210.79 256.97C210.54 256.82 210.52 256.59 210.73 256.47L219 251.59C219.23 251.46 219.61 251.47 219.86 251.62L227.84 256.21C228.09 256.36 228.11 256.57 227.9 256.71L227.89 256.71Z" fill="#90CAF9" fill-opacity="1.000000" fill-rule="nonzero"/>
	<path id="Vector" d="M239.16 250.04L230.86 254.95C230.64 255.09 230.27 255.07 230.02 254.93L222.04 250.33C221.79 250.19 221.77 249.96 221.99 249.84L230.32 244.93C230.55 244.79 230.92 244.81 231.17 244.95L239.11 249.54C239.36 249.69 239.38 249.9 239.16 250.04Z" fill="#90CAF9" fill-opacity="1.000000" fill-rule="nonzero"/>
	<path id="Vector" d="M250.28 243.46L242.13 248.29C241.91 248.43 241.53 248.41 241.28 248.27L233.34 243.67C233.09 243.53 233.07 243.3 233.28 243.18L241.47 238.35C241.69 238.22 242.07 238.23 242.32 238.37L250.23 242.96C250.47 243.11 250.5 243.33 250.28 243.46Z" fill="#90CAF9" fill-opacity="1.000000" fill-rule="nonzero"/>
	<path id="Vector" d="M268.09 232.92L253.23 241.7C253.02 241.83 252.64 241.82 252.39 241.68L244.49 237.09C244.24 236.94 244.22 236.72 244.44 236.59L259.35 227.8C259.56 227.68 259.95 227.69 260.2 227.84L268.05 232.43C268.29 232.58 268.32 232.79 268.1 232.93L268.09 232.92Z" fill="#90CAF9" fill-opacity="1.000000" fill-rule="nonzero"/>
	<path id="Vector" d="M279.07 226.43L271.01 231.19C270.79 231.32 270.42 231.31 270.18 231.16L262.34 226.56C262.09 226.42 262.07 226.2 262.28 226.07L270.37 221.3C270.58 221.18 270.95 221.19 271.2 221.34L279.01 225.93C279.25 226.08 279.28 226.29 279.06 226.43L279.07 226.43Z" fill="#90CAF9" fill-opacity="1.000000" fill-rule="nonzero"/>
	<path id="Vector" d="M281.61 201.86L262.38 213.15C262.21 213.25 262.21 213.41 262.38 213.51L281.41 224.71C281.57 224.81 281.85 224.8 282.01 224.71L290.2 219.86C290.37 219.76 290.37 219.6 290.2 219.5L279.95 213.44C279.78 213.34 279.79 213.18 279.95 213.08L290.27 207C290.44 206.9 290.44 206.74 290.27 206.64L282.21 201.85C282.04 201.75 281.77 201.75 281.61 201.85L281.61 201.86Z" fill="#90CAF9" fill-opacity="1.000000" fill-rule="nonzero"/>
	<path id="Vector" d="M195.02 289.1L180.65 297.65C180.42 297.79 180.04 297.78 179.78 297.63L171.64 293.06C171.38 292.91 171.35 292.69 171.58 292.55L186.01 284C186.23 283.87 186.62 283.88 186.88 284.02L194.96 288.6C195.21 288.74 195.25 288.97 195.02 289.09L195.02 289.1Z" fill="#90CAF9" fill-opacity="1.000000" fill-rule="nonzero"/>
	<path id="Vector" d="M206.45 282.31L198.14 287.26C197.91 287.39 197.53 287.38 197.27 287.23L189.18 282.66C188.93 282.51 188.9 282.29 189.13 282.16L197.48 277.22C197.7 277.08 198.08 277.1 198.34 277.24L206.4 281.82C206.64 281.96 206.68 282.19 206.45 282.31Z" fill="#90CAF9" fill-opacity="1.000000" fill-rule="nonzero"/>
	<path id="Vector" d="M256.77 252.4L209.45 280.53C209.22 280.67 208.84 280.66 208.59 280.51L200.55 275.94C200.3 275.79 200.27 275.56 200.49 275.44L247.98 247.31C248.2 247.19 248.58 247.2 248.83 247.34L256.71 251.91C256.96 252.06 256.98 252.27 256.77 252.4Z" fill="#90CAF9" fill-opacity="1.000000" fill-rule="nonzero"/>
	<path id="Vector" d="M267.81 245.84L259.71 250.65C259.5 250.77 259.11 250.76 258.87 250.62L250.99 246.05C250.74 245.91 250.72 245.69 250.94 245.56L259.07 240.75C259.28 240.62 259.67 240.63 259.91 240.77L267.76 245.34C268.01 245.49 268.03 245.7 267.82 245.84L267.81 245.84Z" fill="#90CAF9" fill-opacity="1.000000" fill-rule="nonzero"/>
	<path id="Vector" d="M278.89 239.25L270.73 244.1C270.51 244.23 270.14 244.22 269.89 244.08L262.05 239.51C261.81 239.36 261.78 239.15 262 239.01L270.19 234.16C270.4 234.03 270.77 234.04 271.02 234.19L278.84 238.76C279.09 238.91 279.11 239.12 278.89 239.26L278.89 239.25Z" fill="#90CAF9" fill-opacity="1.000000" fill-rule="nonzero"/>
	<path id="Vector" d="M289.83 232.75L281.81 237.51C281.6 237.64 281.23 237.63 280.98 237.49L273.17 232.92C272.92 232.77 272.9 232.56 273.12 232.42L281.17 227.66C281.38 227.53 281.75 227.54 282 227.69L289.78 232.26C290.02 232.41 290.04 232.62 289.83 232.76L289.83 232.75Z" fill="#90CAF9" fill-opacity="1.000000" fill-rule="nonzero"/>
	<path id="Vector" d="M300.81 226.23L292.83 230.97C292.61 231.09 292.24 231.08 291.99 230.93L284.22 226.36C283.97 226.22 283.95 226 284.17 225.87L292.19 221.12C292.4 221 292.77 221.01 293.02 221.16L300.76 225.73C301.01 225.88 301.03 226.09 300.81 226.22L300.81 226.23Z" fill="#90CAF9" fill-opacity="1.000000" fill-rule="nonzero"/>
	<path id="Vector" d="M311.64 219.78L303.69 224.5C303.47 224.63 303.1 224.62 302.86 224.47L284.4 213.54C284.15 213.4 284.13 213.18 284.35 213.05L292.35 208.33C292.57 208.2 292.94 208.21 293.18 208.36L311.57 219.28C311.81 219.42 311.83 219.64 311.63 219.76L311.64 219.78Z" fill="#90CAF9" fill-opacity="1.000000" fill-rule="nonzero"/>
	<path id="Vector" d="M148.24 277.57L134.87 285.41C134.64 285.54 134.25 285.53 133.98 285.39L125.58 280.69C125.32 280.54 125.29 280.32 125.52 280.18L138.93 272.34C139.16 272.21 139.55 272.22 139.81 272.36L148.17 277.06C148.43 277.21 148.45 277.43 148.23 277.57L148.24 277.57Z" fill="#90CAF9" fill-opacity="1.000000" fill-rule="nonzero"/>
	<path id="Vector" d="M166.09 280.13L146.29 291.78C146.07 291.92 145.67 291.91 145.41 291.76L137.16 287.14C136.9 287 136.87 286.77 137.1 286.64L156.98 274.98C157.21 274.84 157.6 274.85 157.86 275L166.05 279.62C166.31 279.76 166.33 279.99 166.1 280.13L166.09 280.13Z" fill="#90CAF9" fill-opacity="1.000000" fill-rule="nonzero"/>
	<path id="Vector" d="M170.9 290.42L157.77 298.19C157.54 298.33 157.15 298.32 156.89 298.17L148.67 293.57C148.41 293.43 148.39 293.2 148.61 293.07L161.79 285.3C162.02 285.16 162.41 285.17 162.67 285.32L170.85 289.91C171.11 290.06 171.13 290.29 170.9 290.42Z" fill="#90CAF9" fill-opacity="1.000000" fill-rule="nonzero"/>
	<path id="Vector" d="M177.49 299.52L169.08 304.52C168.85 304.66 168.46 304.65 168.21 304.51L160.03 299.94C159.77 299.79 159.75 299.57 159.98 299.43L168.43 294.43C168.65 294.3 169.04 294.31 169.29 294.45L177.45 299.03C177.71 299.17 177.73 299.4 177.5 299.53L177.49 299.52Z" fill="#90CAF9" fill-opacity="1.000000" fill-rule="nonzero"/>
	<path id="Vector" d="M318.57 270.07L258.19 306.66L257.47 307.1C257.26 307.24 256.87 307.23 256.62 307.09L219.88 286.2C219.63 286.05 219.61 285.84 219.82 285.7L281.88 248.66C282.09 248.54 282.46 248.55 282.71 248.7L283.43 249.12L318.5 269.59C318.74 269.73 318.76 269.95 318.56 270.08L318.57 270.07Z" fill="#90CAF9" fill-opacity="1.000000" fill-rule="nonzero"/>
	<path id="Vector" d="M394.34 243.92L390.88 246.03L212.87 354.3C212.46 354.55 211.75 354.55 211.29 354.28L73.48 277.67L69.95 275.71C69.68 275.56 69.56 275.37 69.56 275.19L69.56 280.19C69.56 280.39 69.69 280.57 69.95 280.72L211.29 359.29C211.75 359.55 212.46 359.56 212.87 359.31L394.34 248.94C394.52 248.83 394.6 248.69 394.6 248.54L394.6 243.54C394.6 243.69 394.51 243.83 394.34 243.93L394.34 243.92Z" fill="#BBDEFB" fill-opacity="1.000000" fill-rule="nonzero"/>
	<path id="Vector" d="M255.96 163.36L67.32 272.27C66.9 272.51 66.57 272.26 66.57 271.71L66.57 109.37C66.57 108.82 66.91 108.19 67.32 107.94L254.09 0.15C254.51 -0.09 255.08 0.03 255.08 0.57L256.71 161.93C256.71 162.48 256.38 163.11 255.97 163.35L255.96 163.36Z" fill="#B39DDB" fill-opacity="1.000000" fill-rule="nonzero"/>
	<path id="Vector" d="M258.46 165.86L69.81 274.78C69.39 275.01 69.06 274.76 69.06 274.21L69.06 111.87C69.06 111.32 69.4 110.69 69.81 110.44L258.46 1.53C258.88 1.29 259.2 1.54 259.2 2.09L259.2 164.43C259.2 164.98 258.87 165.61 258.46 165.86Z" fill="#175297" fill-opacity="1.000000" fill-rule="nonzero"/>
	<path id="Vector" d="M77.26 260.4L77.26 116.21C77.26 115.88 77.47 115.5 77.71 115.35L250.55 15.56C250.8 15.41 251 15.56 251 15.9L251 160.09C251 160.42 250.8 160.8 250.55 160.95L77.71 260.74C77.47 260.89 77.26 260.74 77.26 260.4Z" fill="#0176FF" fill-opacity="1.000000" fill-rule="nonzero"/>
	<path id="Vector" d="M259.01 1.53C258.88 1.4 258.67 1.39 258.46 1.53L256.71 2.54L69.81 110.44C69.39 110.68 69.06 111.32 69.06 111.87L69.06 274.21C69.06 274.43 69.12 274.61 69.21 274.72L66.76 272.27L66.75 272.27C66.64 272.15 66.57 271.97 66.57 271.72L66.57 109.37C66.57 108.82 66.91 108.18 67.32 107.94L254.25 0.05C254.47 -0.07 254.9 0.05 254.91 0.05L259.01 1.53Z" fill="#BBDEFB" fill-opacity="1.000000" fill-rule="nonzero"/>
	<g style="mix-blend-mode:screen">
		<path id="Vector" d="M234.07 41.28L91.5 123.59L91.5 235.4L234.07 153.09L234.07 41.28Z" fill="url(#paint_linear_1_32839_0)" fill-opacity="1.000000" fill-rule="nonzero"/>
	</g>
	<g style="mix-blend-mode:screen">
		<path id="Vector" d="M226.84 37.61L84.27 119.91L84.27 231.72L226.84 149.42L226.84 37.61Z" fill="url(#paint_linear_1_32840_0)" fill-opacity="1.000000" fill-rule="nonzero"/>
	</g>
	<path id="Vector" d="M241.32 44.95L98.74 127.26L98.74 239.07L241.32 156.76L241.32 44.95Z" fill="#FFFFFF" fill-opacity="1.000000" fill-rule="nonzero"/>
	<path id="Vector" d="M241.32 51.29L98.74 133.6L98.74 127.26L241.32 44.95L241.32 51.29Z" fill="#175297" fill-opacity="1.000000" fill-rule="nonzero"/>
	<path id="Vector" d="M190.63 108.85L149.73 132.46L149.73 116.93L190.63 93.32L190.63 108.85Z" fill="#F3F9FD" fill-opacity="1.000000" fill-rule="nonzero"/>
	<path id="Vector" d="M147.28 166.82L104.83 191.34L104.83 142.84L147.28 118.33L147.28 166.82Z" fill="#F3F9FD" fill-opacity="1.000000" fill-rule="nonzero"/>
	<path id="Vector" d="M191.84 141.09L150.55 164.8L150.55 136.16L191.84 112.43L191.84 141.09Z" fill="#F3F9FD" fill-opacity="1.000000" fill-rule="nonzero"/>
	<path id="Vector" d="M241.32 156.76C241.32 125.73 228.18 119.13 220.27 138.33C218.56 142.49 218.01 147.38 217 150.37C215.98 153.37 214.21 156.7 211.89 158.2C209.37 159.83 207.28 158.63 205.96 156.89C204.64 155.16 203.66 152.87 201.65 152.24C198.79 151.34 194.2 154.64 191.96 159.2C189.48 164.23 189.32 170.6 185.46 173.97C182.79 176.29 180.23 175.24 178.81 173.35C176.85 170.76 175.96 166.89 173.94 164.37C171.93 161.85 168.63 160.56 165.06 164.05C161.34 167.67 159.48 174.06 158.33 179.06C157.18 184.06 154.67 190.48 150.75 192.47C148.19 193.76 146.21 192.42 144.96 190.56C143.71 188.7 142.89 186.29 141.18 185.07C139.48 183.85 136.02 184.76 134.1 187.25C133.33 188.25 132.33 189.84 131.85 191.01C130.37 194.6 130.3 197.37 129.54 200.89C129.08 203.08 128.38 205.74 127.45 207.96C126.5 210.17 124.74 212.46 123.07 212.91C120.91 213.5 120.16 210.96 118.96 209.48C116.1 205.87 108.79 209.12 104.96 215.71C103.51 218.19 101.93 221.46 101.04 224.1C99.22 229.49 98.73 233.75 98.73 239.06L241.15 156.84L241.3 156.75L241.32 156.76Z" fill="#0176FF" fill-opacity="0.400000" fill-rule="nonzero"/>
	<path id="Vector" d="M130.3 131.6C133.07 130.6 135.67 130.5 137.84 131.32C140.02 132.14 141.71 133.85 142.75 136.27L127.81 151.18L130.3 131.61L130.3 131.6Z" fill="#99C8FF" fill-opacity="1.000000" fill-rule="nonzero"/>
	<path id="Vector" d="M126.63 154.92L141.91 139.68C142.47 141.32 142.75 143.2 142.75 145.27C142.75 153.1 138.6 162.63 132.36 169.18L126.63 154.91L126.63 154.92Z" fill="#BBDEFB" fill-opacity="1.000000" fill-rule="nonzero"/>
	<path id="Vector" d="M125.98 174.32C116.73 179.66 109.21 175.31 109.21 164.63C109.21 153.95 116.73 140.92 125.98 135.58C126.69 135.18 127.41 134.82 128.11 134.51L125.46 155.31L131.41 170.14C129.66 171.84 127.84 173.25 125.98 174.32Z" fill="#E3F2FD" fill-opacity="1.000000" fill-rule="nonzero"/>
	<path id="Vector" d="M207.47 132.73L204.13 134.66L204.13 109.22L207.47 107.3L207.47 132.73Z" fill="#BBDEFB" fill-opacity="1.000000" fill-rule="nonzero"/>
	<path id="Vector" d="M214.69 128.57L211.35 130.49L211.35 90.34L214.69 88.43L214.69 128.57Z" fill="#99C8FF" fill-opacity="1.000000" fill-rule="nonzero"/>
	<path id="Vector" d="M221.91 124.4L218.57 126.32L218.57 92.44L221.91 90.51L221.91 124.4Z" fill="#BBDEFB" fill-opacity="1.000000" fill-rule="nonzero"/>
	<path id="Vector" d="M229.13 120.23L225.79 122.16L225.79 81.34L229.13 79.42L229.13 120.23Z" fill="#E3F2FD" fill-opacity="1.000000" fill-rule="nonzero"/>
	<path id="Vector" d="M232.03 119.93L202.03 137.25L202.03 86.72L202.25 86.59L202.25 136.69L232.03 119.5L232.03 119.93Z" fill="#D7D7FF" fill-opacity="1.000000" fill-rule="nonzero"/>
	<path id="Vector" d="M209.64 134.73L209.26 134.95L209.26 132.86L209.64 132.64L209.64 134.73Z" fill="#D7D7FF" fill-opacity="1.000000" fill-rule="nonzero"/>
	<path id="Vector" d="M216.87 130.56L216.49 130.77L216.49 128.69L216.87 128.46L216.87 130.56Z" fill="#D7D7FF" fill-opacity="1.000000" fill-rule="nonzero"/>
	<path id="Vector" d="M224.1 126.38L223.72 126.59L223.72 124.51L224.1 124.3L224.1 126.38Z" fill="#D7D7FF" fill-opacity="1.000000" fill-rule="nonzero"/>
	<path id="Vector" d="M231.34 122.2L230.95 122.43L230.95 120.33L231.34 120.12L231.34 122.2Z" fill="#D7D7FF" fill-opacity="1.000000" fill-rule="nonzero"/>
	<path id="Vector" d="M202.22 87.04L200.42 88.08L200.42 87.65L202.22 86.6L202.22 87.04Z" fill="#D7D7FF" fill-opacity="1.000000" fill-rule="nonzero"/>
	<path id="Vector" d="M202.22 95.39L200.42 96.44L200.42 96L202.22 94.96L202.22 95.39Z" fill="#D7D7FF" fill-opacity="1.000000" fill-rule="nonzero"/>
	<path id="Vector" d="M202.22 103.74L200.42 104.79L200.42 104.35L202.22 103.31L202.22 103.74Z" fill="#D7D7FF" fill-opacity="1.000000" fill-rule="nonzero"/>
	<path id="Vector" d="M202.22 112.1L200.42 113.13L200.42 112.7L202.22 111.66L202.22 112.1Z" fill="#D7D7FF" fill-opacity="1.000000" fill-rule="nonzero"/>
	<path id="Vector" d="M202.22 120.44L200.42 121.49L200.42 121.05L202.22 120.02L202.22 120.44Z" fill="#D7D7FF" fill-opacity="1.000000" fill-rule="nonzero"/>
	<path id="Vector" d="M202.22 128.79L200.42 129.84L200.42 129.4L202.22 128.36L202.22 128.79Z" fill="#D7D7FF" fill-opacity="1.000000" fill-rule="nonzero"/>
	<path id="Vector" d="M85.38 72.24L0.01 121.54L0.01 184.69L85.38 135.4L85.38 72.24Z" fill="#C6E0FF" fill-opacity="1.000000" fill-rule="nonzero"/>
	<path id="Vector" d="M85.38 135.4C85.38 131.74 83.76 124.52 82.95 122.56C82.49 121.45 82 120.3 81.07 119.81C79.01 118.72 75.22 121.66 73.61 125.31C72.81 127.11 72.49 128.94 71.87 130.76C71.25 132.59 70.18 134.61 68.77 135.53C67.24 136.52 65.96 135.78 65.16 134.73C64.36 133.67 63.77 132.28 62.55 131.89C60.82 131.34 58.02 133.34 56.66 136.12C55.16 139.19 55.06 143.06 52.71 145.11C51.08 146.53 49.53 145.89 48.66 144.73C47.47 143.15 46.93 140.79 45.7 139.25C44.47 137.72 42.13 137.24 39.96 139.36C37.69 141.56 36.91 145.14 36.2 148.19C35.51 151.23 33.97 155.14 31.6 156.34C30.04 157.13 28.84 156.32 28.08 155.18C27.33 154.04 26.82 152.58 25.78 151.84C24.75 151.09 22.91 151.38 21.63 153.13C21.17 153.76 20.84 154.5 20.55 155.22C19.65 157.39 19.17 159.33 18.72 161.48C18.44 162.81 18.02 164.43 17.45 165.78C16.87 167.13 15.8 168.52 14.79 168.8C13.48 169.15 13.01 167.62 12.29 166.71C10.54 164.51 6.11 166.48 3.77 170.49C2.9 172.01 1.94 173.99 1.4 175.6C0.29 178.89 -0.12 181.55 0.02 184.71L85.4 135.41L85.38 135.4Z" fill="#0176FF" fill-opacity="1.000000" fill-rule="nonzero"/>
	<path id="Vector" d="M85.38 75.83L0.01 125.12L0.01 121.54L85.38 72.24L85.38 75.83Z" fill="#3949AB" fill-opacity="1.000000" fill-rule="nonzero"/>
	<path id="Vector" d="M36.01 110.56L5.02 128.45L5.02 127.57L36.01 109.69L36.01 110.56Z" fill="#FFFFFF" fill-opacity="1.000000" fill-rule="nonzero"/>
	<path id="Vector" d="M31.37 117.05L5.02 132.26L5.02 131.52L31.37 116.31L31.37 117.05Z" fill="#FFFFFF" fill-opacity="1.000000" fill-rule="nonzero"/>
	<path id="Vector" d="M39.37 116.31L5.02 136.13L5.02 135.39L39.37 115.57L39.37 116.31Z" fill="#FFFFFF" fill-opacity="1.000000" fill-rule="nonzero"/>
	<path id="Vector" d="M41.31 119.07L5.02 140.02L5.02 139.27L41.31 118.33L41.31 119.07Z" fill="#FFFFFF" fill-opacity="1.000000" fill-rule="nonzero"/>
	<path id="Vector" d="M31.37 128.69L5.02 143.89L5.02 143.15L31.37 127.93L31.37 128.69Z" fill="#FFFFFF" fill-opacity="1.000000" fill-rule="nonzero"/>
	<path id="Vector" d="M28.78 134.05L5.02 147.77L5.02 147.03L28.78 133.31L28.78 134.05Z" fill="#FFFFFF" fill-opacity="1.000000" fill-rule="nonzero"/>
	<path id="Vector" d="M31.37 136.44L5.02 151.64L5.02 150.9L31.37 135.7L31.37 136.44Z" fill="#FFFFFF" fill-opacity="1.000000" fill-rule="nonzero"/>
	<path id="Vector" d="M80.53 113.11L50.49 130.46L50.49 100.29L80.53 82.94L80.53 113.11Z" fill="#FFFFFF" fill-opacity="1.000000" fill-rule="nonzero"/>
	<path id="Vector" d="M67.45 91.7C69.16 91.08 70.77 91.02 72.11 91.53C73.47 92.03 74.5 93.08 75.16 94.58L65.91 103.81L67.45 91.7Z" fill="#175297" fill-opacity="1.000000" fill-rule="nonzero"/>
	<path id="Vector" d="M65.19 106.13L74.64 96.71C74.99 97.72 75.16 98.88 75.16 100.17C75.16 105.01 72.59 110.9 68.72 114.96L65.19 106.14L65.19 106.13Z" fill="#0176FF" fill-opacity="1.000000" fill-rule="nonzero"/>
	<path id="Vector" d="M64.78 118.12C59.06 121.42 54.41 118.74 54.41 112.13C54.41 105.52 59.06 97.46 64.78 94.16C65.22 93.9 65.66 93.69 66.1 93.5L64.47 106.36L68.14 115.53C67.06 116.58 65.93 117.45 64.78 118.11L64.78 118.12Z" fill="#0176FF" fill-opacity="1.000000" fill-rule="nonzero"/>
	<path id="Vector" d="M166.05 350.97L120.65 377.18C120.37 377.35 119.86 377.33 119.54 377.13L53.89 339.23C53.56 339.04 53.53 338.75 53.81 338.59L99.21 312.38C99.49 312.21 99.99 312.23 100.32 312.42L165.97 350.33C166.3 350.52 166.33 350.81 166.05 350.97Z" fill="#E1F5FE" fill-opacity="1.000000" fill-rule="nonzero"/>
	<path id="Vector" d="M102.75 316.31L118.17 325.22C118.5 325.4 118.5 325.7 118.17 325.89L77.21 349.55C76.87 349.74 76.35 349.74 76.03 349.55L60.61 340.64C60.29 340.46 60.29 340.15 60.63 339.96L101.59 316.31C101.92 316.13 102.44 316.13 102.75 316.31Z" fill="#0176FF" fill-opacity="1.000000" fill-rule="nonzero"/>
	<path id="Vector" d="M87.64 340.05L86.33 339.3C85.56 339.73 84.56 340.03 83.78 340.11L83.23 339.43C84.01 339.34 84.92 339.09 85.64 338.68C86.56 338.15 86.65 337.48 85.91 337.06C85.2 336.65 84.26 336.68 82.92 337.01C81.08 337.47 79.68 337.6 78.56 336.95C77.49 336.33 77.43 335.42 78.42 334.63L77.12 333.88L77.92 333.42L79.17 334.14C79.97 333.71 80.7 333.52 81.3 333.43L81.82 334.1C81.4 334.17 80.59 334.31 79.76 334.79C78.77 335.37 78.99 335.93 79.5 336.22C80.18 336.61 80.99 336.53 82.58 336.14C84.45 335.69 85.79 335.69 86.94 336.36C87.96 336.94 88.2 337.91 87.1 338.8L88.44 339.58L87.63 340.05L87.64 340.05Z" fill="#FFFFFF" fill-opacity="1.000000" fill-rule="nonzero"/>
	<path id="Vector" d="M94.26 336.23L92.95 335.48C92.19 335.91 91.18 336.21 90.41 336.29L89.86 335.61C90.63 335.52 91.55 335.28 92.27 334.86C93.18 334.33 93.27 333.67 92.54 333.24C91.83 332.83 90.88 332.87 89.54 333.19C87.7 333.65 86.31 333.78 85.18 333.14C84.11 332.52 84.05 331.6 85.05 330.82L83.74 330.06L84.54 329.6L85.79 330.32C86.59 329.89 87.32 329.7 87.92 329.61L88.45 330.29C88.02 330.35 87.21 330.49 86.39 330.97C85.4 331.55 85.61 332.11 86.13 332.4C86.8 332.79 87.61 332.71 89.2 332.32C91.07 331.87 92.41 331.87 93.56 332.54C94.59 333.12 94.82 334.09 93.72 334.98L95.06 335.76L94.25 336.23L94.26 336.23Z" fill="#FFFFFF" fill-opacity="1.000000" fill-rule="nonzero"/>
	<path id="Vector" d="M100.88 332.41L99.58 331.66C98.81 332.09 97.81 332.39 97.03 332.47L96.48 331.8C97.26 331.71 98.17 331.46 98.89 331.04C99.8 330.51 99.89 329.85 99.16 329.42C98.45 329.01 97.5 329.05 96.16 329.37C94.33 329.84 92.93 329.96 91.8 329.32C90.73 328.7 90.68 327.79 91.67 327L90.36 326.24L91.16 325.78L92.41 326.5C93.21 326.07 93.95 325.88 94.54 325.79L95.07 326.47C94.64 326.53 93.83 326.67 93.01 327.15C92.02 327.73 92.23 328.29 92.75 328.58C93.43 328.97 94.24 328.89 95.83 328.51C97.7 328.06 99.04 328.06 100.19 328.72C101.21 329.31 101.45 330.27 100.34 331.16L101.68 331.94L100.87 332.41L100.88 332.41Z" fill="#FFFFFF" fill-opacity="1.000000" fill-rule="nonzero"/>
	<path id="Vector" d="M129.26 332.71L121.58 337.15C121.44 337.22 121.22 337.21 121.06 337.12L116.46 334.46C116.3 334.37 116.29 334.24 116.43 334.16L124.11 329.72C124.25 329.64 124.47 329.65 124.63 329.75L129.23 332.4C129.38 332.49 129.39 332.63 129.26 332.71Z" fill="#90CAF9" fill-opacity="1.000000" fill-rule="nonzero"/>
	<path id="Vector" d="M137.02 337.19L129.34 341.63C129.2 341.71 128.98 341.7 128.82 341.61L124.22 338.95C124.07 338.86 124.06 338.72 124.19 338.66L131.87 334.22C132.01 334.14 132.23 334.15 132.39 334.24L136.99 336.9C137.14 336.99 137.16 337.12 137.02 337.2L137.02 337.19Z" fill="#90CAF9" fill-opacity="1.000000" fill-rule="nonzero"/>
	<path id="Vector" d="M144.77 341.66L137.09 346.1C136.95 346.18 136.73 346.17 136.57 346.08L131.97 343.42C131.82 343.33 131.8 343.19 131.94 343.12L139.62 338.68C139.76 338.6 139.98 338.61 140.14 338.7L144.74 341.36C144.89 341.45 144.91 341.58 144.77 341.66Z" fill="#90CAF9" fill-opacity="1.000000" fill-rule="nonzero"/>
	<path id="Vector" d="M96.72 351.5L89.03 355.93C88.9 356.01 88.67 356 88.52 355.91L83.92 353.25C83.76 353.16 83.75 353.03 83.89 352.95L91.57 348.51C91.7 348.43 91.93 348.44 92.09 348.53L96.68 351.19C96.84 351.28 96.85 351.42 96.72 351.5Z" fill="#90CAF9" fill-opacity="1.000000" fill-rule="nonzero"/>
	<path id="Vector" d="M107.56 345.23L99.88 349.67C99.75 349.75 99.52 349.74 99.36 349.65L94.77 346.99C94.61 346.9 94.6 346.77 94.73 346.69L102.42 342.25C102.55 342.17 102.78 342.18 102.93 342.27L107.53 344.93C107.69 345.02 107.7 345.15 107.56 345.23Z" fill="#90CAF9" fill-opacity="1.000000" fill-rule="nonzero"/>
	<path id="Vector" d="M118.41 338.97L110.73 343.41C110.59 343.49 110.37 343.48 110.21 343.39L105.62 340.73C105.46 340.64 105.45 340.5 105.58 340.44L113.26 336C113.4 335.92 113.62 335.93 113.78 336.02L118.38 338.68C118.54 338.77 118.55 338.9 118.41 338.98L118.41 338.97Z" fill="#90CAF9" fill-opacity="1.000000" fill-rule="nonzero"/>
	<path id="Vector" d="M104.48 355.98L96.79 360.42C96.66 360.5 96.43 360.49 96.28 360.4L91.68 357.74C91.52 357.65 91.51 357.51 91.65 357.44L99.33 353.01C99.46 352.93 99.69 352.94 99.85 353.03L104.44 355.69C104.6 355.78 104.61 355.91 104.48 355.99L104.48 355.98Z" fill="#90CAF9" fill-opacity="1.000000" fill-rule="nonzero"/>
	<path id="Vector" d="M115.33 349.72L107.64 354.15C107.51 354.23 107.28 354.22 107.12 354.13L102.53 351.47C102.37 351.38 102.36 351.25 102.5 351.18L110.18 346.74C110.31 346.66 110.54 346.68 110.7 346.77L115.29 349.42C115.45 349.51 115.46 349.65 115.33 349.73L115.33 349.72Z" fill="#90CAF9" fill-opacity="1.000000" fill-rule="nonzero"/>
	<path id="Vector" d="M126.17 343.45L118.49 347.89C118.36 347.97 118.13 347.96 117.97 347.87L113.38 345.21C113.22 345.12 113.21 344.99 113.34 344.91L121.02 340.47C121.16 340.39 121.39 340.4 121.54 340.49L126.14 343.15C126.3 343.24 126.31 343.38 126.17 343.45Z" fill="#90CAF9" fill-opacity="1.000000" fill-rule="nonzero"/>
	<path id="Vector" d="M112.23 360.45L104.55 364.89C104.41 364.97 104.18 364.96 104.03 364.87L99.43 362.21C99.27 362.12 99.26 361.98 99.4 361.9L107.08 357.47C107.21 357.39 107.44 357.4 107.6 357.49L112.19 360.15C112.35 360.24 112.36 360.37 112.23 360.44L112.23 360.45Z" fill="#90CAF9" fill-opacity="1.000000" fill-rule="nonzero"/>
	<path id="Vector" d="M123.07 354.19L115.39 358.63C115.26 358.71 115.03 358.69 114.87 358.6L110.28 355.95C110.12 355.86 110.11 355.72 110.24 355.64L117.93 351.2C118.06 351.12 118.29 351.14 118.45 351.23L123.04 353.88C123.2 353.97 123.21 354.11 123.07 354.19Z" fill="#90CAF9" fill-opacity="1.000000" fill-rule="nonzero"/>
	<path id="Vector" d="M133.92 347.93L126.24 352.36C126.11 352.44 125.88 352.43 125.72 352.34L121.13 349.68C120.97 349.59 120.96 349.46 121.09 349.38L128.77 344.94C128.91 344.86 129.14 344.87 129.29 344.96L133.89 347.62C134.05 347.71 134.06 347.85 133.92 347.93Z" fill="#90CAF9" fill-opacity="1.000000" fill-rule="nonzero"/>
	<path id="Vector" d="M119.98 364.92L112.29 369.36C112.16 369.44 111.93 369.43 111.78 369.34L107.18 366.68C107.02 366.59 107.01 366.46 107.15 366.38L114.83 361.94C114.96 361.86 115.19 361.87 115.35 361.96L119.94 364.62C120.1 364.71 120.11 364.84 119.98 364.92Z" fill="#90CAF9" fill-opacity="1.000000" fill-rule="nonzero"/>
	<path id="Vector" d="M130.82 358.66L123.14 363.1C123.01 363.18 122.78 363.17 122.62 363.08L118.03 360.42C117.87 360.33 117.86 360.19 117.99 360.11L125.68 355.68C125.81 355.6 126.04 355.61 126.2 355.7L130.79 358.36C130.95 358.45 130.96 358.58 130.82 358.66Z" fill="#90CAF9" fill-opacity="1.000000" fill-rule="nonzero"/>
	<path id="Vector" d="M141.67 352.4L133.99 356.84C133.85 356.91 133.63 356.9 133.47 356.81L128.88 354.15C128.72 354.06 128.71 353.93 128.84 353.86L136.52 349.42C136.66 349.35 136.88 349.36 137.04 349.45L141.64 352.1C141.8 352.19 141.81 352.33 141.67 352.41L141.67 352.4Z" fill="#90CAF9" fill-opacity="1.000000" fill-rule="nonzero"/>
	<path id="Vector" d="M127.73 369.41L120.05 373.84C119.91 373.92 119.68 373.91 119.53 373.82L114.93 371.16C114.77 371.07 114.76 370.94 114.9 370.86L122.58 366.42C122.71 366.34 122.94 366.35 123.1 366.44L127.69 369.1C127.85 369.19 127.86 369.33 127.73 369.41Z" fill="#90CAF9" fill-opacity="1.000000" fill-rule="nonzero"/>
	<path id="Vector" d="M138.57 363.14L130.89 367.58C130.76 367.66 130.53 367.65 130.37 367.56L125.78 364.9C125.62 364.81 125.61 364.68 125.74 364.61L133.43 360.17C133.56 360.09 133.79 360.1 133.95 360.19L138.54 362.85C138.7 362.94 138.71 363.08 138.57 363.16L138.57 363.14Z" fill="#90CAF9" fill-opacity="1.000000" fill-rule="nonzero"/>
	<path id="Vector" d="M149.42 356.88L141.74 361.32C141.6 361.4 141.38 361.39 141.22 361.3L136.63 358.64C136.47 358.55 136.46 358.41 136.59 358.33L144.27 353.9C144.41 353.82 144.64 353.83 144.79 353.92L149.39 356.58C149.55 356.67 149.56 356.8 149.42 356.87L149.42 356.88Z" fill="#90CAF9" fill-opacity="1.000000" fill-rule="nonzero"/>
	<path id="Vector" d="M160.17 350.67L152.6 355.04C152.46 355.12 152.24 355.11 152.08 355.02L139.73 347.89C139.58 347.8 139.57 347.67 139.7 347.59L147.27 343.22C147.41 343.14 147.63 343.15 147.79 343.24L160.13 350.37C160.29 350.46 160.3 350.6 160.17 350.67Z" fill="#90CAF9" fill-opacity="1.000000" fill-rule="nonzero"/>
	<path id="Vector" d="M166.24 350.69L166.24 353.73C166.24 353.83 166.17 353.93 166.04 354L120.65 380.21C120.36 380.38 119.86 380.36 119.54 380.16L53.89 342.26C53.71 342.16 53.62 342.02 53.62 341.9L53.62 338.86C53.62 338.98 53.72 339.12 53.89 339.22L57.07 341.05L119.53 377.11C119.85 377.3 120.36 377.33 120.64 377.16L162.77 352.84L166.04 350.96C166.16 350.88 166.24 350.78 166.24 350.69Z" fill="#BBDEFB" fill-opacity="1.000000" fill-rule="nonzero"/>
	<path id="Vector" d="M70.81 290.15C70.81 293.97 62.69 297.07 52.68 297.07C42.67 297.07 34.56 293.97 34.56 290.15C34.56 286.33 42.67 283.24 52.68 283.24C62.69 283.24 70.81 286.33 70.81 290.15Z" fill="#FFFFFF" fill-opacity="1.000000" fill-rule="evenodd"/>
	<path id="Vector" d="M70.81 284.91C70.81 288.73 62.69 291.83 52.68 291.83C42.67 291.83 34.56 288.73 34.56 284.91C34.56 281.09 42.67 278 52.68 278C62.69 278 70.81 281.09 70.81 284.91Z" fill="#FFFFFF" fill-opacity="1.000000" fill-rule="evenodd"/>
	<path id="Vector" d="M70.81 284.91L70.81 290.15C70.81 293.97 62.7 297.07 52.68 297.07C42.67 297.07 34.56 293.97 34.56 290.15L34.56 284.91C34.56 285.84 35.03 286.73 35.91 287.53C38.61 290.05 45.1 291.82 52.68 291.82C60.26 291.82 66.75 290.05 69.46 287.53C70.32 286.73 70.81 285.84 70.81 284.91Z" fill="url(#paint_linear_1_32925_0)" fill-opacity="1.000000" fill-rule="nonzero"/>
	<path id="Vector" d="M70.81 283.24C70.81 287.05 62.69 290.15 52.68 290.15C42.67 290.15 34.56 287.05 34.56 283.24C34.56 279.42 42.67 276.32 52.68 276.32C62.69 276.32 70.81 279.42 70.81 283.24Z" fill="#FFFFFF" fill-opacity="1.000000" fill-rule="evenodd"/>
	<path id="Vector" d="M70.81 278C70.81 281.82 62.69 284.91 52.68 284.91C42.67 284.91 34.56 281.82 34.56 278C34.56 274.18 42.67 271.08 52.68 271.08C62.69 271.08 70.81 274.18 70.81 278Z" fill="#FFFFFF" fill-opacity="1.000000" fill-rule="evenodd"/>
	<path id="Vector" d="M70.81 278L70.81 283.23C70.81 287.05 62.7 290.15 52.68 290.15C42.67 290.15 34.56 287.05 34.56 283.23L34.56 278C34.56 278.92 35.03 279.81 35.91 280.61C38.61 283.13 45.1 284.9 52.68 284.9C60.26 284.9 66.75 283.13 69.46 280.61C70.32 279.81 70.81 278.92 70.81 278Z" fill="url(#paint_linear_1_32929_0)" fill-opacity="1.000000" fill-rule="nonzero"/>
	<path id="Vector" d="M70.81 276.32C70.81 280.14 62.69 283.23 52.68 283.23C42.67 283.23 34.56 280.14 34.56 276.32C34.56 272.5 42.67 269.4 52.68 269.4C62.69 269.4 70.81 272.5 70.81 276.32Z" fill="#FFFFFF" fill-opacity="1.000000" fill-rule="evenodd"/>
	<path id="Vector" d="M70.81 271.08C70.81 274.9 62.69 278 52.68 278C42.67 278 34.56 274.9 34.56 271.08C34.56 267.26 42.67 264.16 52.68 264.16C62.69 264.16 70.81 267.26 70.81 271.08Z" fill="#FCC881" fill-opacity="1.000000" fill-rule="evenodd"/>
	<path id="Vector" d="M70.81 271.08L70.81 276.32C70.81 280.14 62.7 283.23 52.68 283.23C42.67 283.23 34.56 280.14 34.56 276.32L34.56 271.08C34.56 272 35.03 272.89 35.91 273.69C38.61 276.22 45.1 277.99 52.68 277.99C60.26 277.99 66.75 276.22 69.46 273.69C70.32 272.89 70.81 272 70.81 271.08Z" fill="#F2A233" fill-opacity="1.000000" fill-rule="nonzero"/>
	<path id="Vector" d="M70.81 269.4C70.81 273.22 62.69 276.32 52.68 276.32C42.67 276.32 34.56 273.22 34.56 269.4C34.56 265.58 42.67 262.49 52.68 262.49C62.69 262.49 70.81 265.58 70.81 269.4Z" fill="#FFFFFF" fill-opacity="1.000000" fill-rule="evenodd"/>
	<path id="Vector" d="M70.81 264.16C70.81 267.98 62.7 271.08 52.68 271.08C42.67 271.08 34.57 267.98 34.57 264.16C34.57 260.35 42.68 257.25 52.68 257.25C62.69 257.25 70.81 260.35 70.81 264.16Z" fill="#FCC881" fill-opacity="1.000000" fill-rule="nonzero"/>
	<path id="Vector" d="M70.81 264.16L70.81 269.4C70.81 273.22 62.7 276.32 52.68 276.32C42.67 276.32 34.56 273.22 34.56 269.4L34.56 264.16C34.56 265.09 35.03 265.98 35.91 266.78C38.61 269.3 45.1 271.07 52.68 271.07C60.26 271.07 66.75 269.3 69.46 266.78C70.32 265.98 70.81 265.09 70.81 264.16Z" fill="#F2A233" fill-opacity="1.000000" fill-rule="nonzero"/>
	<path id="Vector" d="M70.81 262.49C70.81 266.3 62.7 269.4 52.68 269.4C42.67 269.4 34.57 266.3 34.57 262.49C34.57 258.67 42.68 255.57 52.68 255.57C62.69 255.57 70.81 258.67 70.81 262.49Z" fill="#FFFFFF" fill-opacity="1.000000" fill-rule="nonzero"/>
	<path id="Vector" d="M70.81 257.25C70.81 261.07 62.7 264.16 52.68 264.16C42.67 264.16 34.57 261.07 34.57 257.25C34.57 253.43 42.68 250.33 52.68 250.33C62.69 250.33 70.81 253.43 70.81 257.25Z" fill="#FCC881" fill-opacity="1.000000" fill-rule="nonzero"/>
	<path id="Vector" d="M70.81 257.25L70.81 262.49C70.81 266.3 62.7 269.4 52.68 269.4C42.67 269.4 34.56 266.3 34.56 262.49L34.56 257.25C34.56 258.17 35.03 259.06 35.91 259.86C38.61 262.38 45.1 264.15 52.68 264.15C60.26 264.15 66.75 262.38 69.46 259.86C70.32 259.06 70.81 258.17 70.81 257.25Z" fill="#F2A233" fill-opacity="1.000000" fill-rule="nonzero"/>
	<path id="Vector" d="M70.81 255.57C70.81 259.39 62.7 262.49 52.68 262.49C42.67 262.49 34.57 259.39 34.57 255.57C34.57 251.75 42.68 248.65 52.68 248.65C62.69 248.65 70.81 251.75 70.81 255.57Z" fill="#FFFFFF" fill-opacity="1.000000" fill-rule="nonzero"/>
	<path id="Vector" d="M70.81 250.33C70.81 254.15 62.7 257.25 52.68 257.25C42.67 257.25 34.57 254.15 34.57 250.33C34.57 246.51 42.68 243.42 52.68 243.42C62.69 243.42 70.81 246.51 70.81 250.33Z" fill="#FCC881" fill-opacity="1.000000" fill-rule="nonzero"/>
	<path id="Vector" d="M70.81 250.33L70.81 255.57C70.81 259.39 62.7 262.49 52.68 262.49C42.67 262.49 34.56 259.39 34.56 255.57L34.56 250.33C34.56 251.26 35.03 252.15 35.91 252.95C38.61 255.47 45.1 257.24 52.68 257.24C60.26 257.24 66.75 255.47 69.46 252.95C70.32 252.15 70.81 251.26 70.81 250.33Z" fill="#F2A233" fill-opacity="1.000000" fill-rule="nonzero"/>
	<path id="Vector" d="M51.78 254.5L51.78 253.47C50.24 253.47 48.65 253.28 47.72 253.02L48.36 252.35C49.32 252.6 50.7 252.79 52.19 252.79C54.08 252.79 55.35 252.37 55.35 251.8C55.35 251.22 54.32 250.89 52.35 250.59C49.63 250.19 47.96 249.72 47.96 248.83C47.96 247.94 49.53 247.35 51.97 247.2L51.97 246.18L53.62 246.18L53.62 247.16C55.22 247.18 56.3 247.34 57.08 247.52L56.41 248.18C55.85 248.06 54.77 247.83 53.07 247.83C51.02 247.83 50.25 248.29 50.25 248.7C50.25 249.23 51.23 249.49 53.55 249.86C56.29 250.29 57.67 250.82 57.67 251.72C57.67 252.52 56.21 253.27 53.47 253.44L53.47 254.5L51.79 254.5L51.78 254.5Z" fill="#FFFFFF" fill-opacity="1.000000" fill-rule="nonzero"/>
	<path id="Vector" d="M84.21 306.12C84.21 309.94 76.1 313.04 66.1 313.04C56.1 313.04 47.99 309.94 47.99 306.12C47.99 302.31 56.1 299.21 66.1 299.21C76.1 299.21 84.21 302.31 84.21 306.12Z" fill="#FFFFFF" fill-opacity="1.000000" fill-rule="nonzero"/>
	<path id="Vector" d="M84.21 300.89C84.21 304.71 76.1 307.8 66.1 307.8C56.1 307.8 47.99 304.71 47.99 300.89C47.99 297.07 56.1 293.97 66.1 293.97C76.1 293.97 84.21 297.07 84.21 300.89Z" fill="#FCC881" fill-opacity="1.000000" fill-rule="evenodd"/>
	<path id="Vector" d="M84.22 300.89L84.22 306.12C84.22 309.94 76.11 313.04 66.1 313.04C56.09 313.04 47.98 309.94 47.98 306.12L47.98 300.89C47.98 301.81 48.45 302.7 49.33 303.5C52.03 306.02 58.52 307.79 66.1 307.79C73.68 307.79 80.17 306.02 82.87 303.5C83.74 302.7 84.22 301.81 84.22 300.89Z" fill="#F2A233" fill-opacity="1.000000" fill-rule="nonzero"/>
	<path id="Vector" d="M84.21 299.21C84.21 303.03 76.1 306.12 66.1 306.12C56.1 306.12 47.99 303.03 47.99 299.21C47.99 295.39 56.1 292.29 66.1 292.29C76.1 292.29 84.21 295.39 84.21 299.21Z" fill="#FFFFFF" fill-opacity="1.000000" fill-rule="nonzero"/>
	<path id="Vector" d="M84.21 293.97C84.21 297.79 76.1 300.89 66.1 300.89C56.1 300.89 47.99 297.79 47.99 293.97C47.99 290.15 56.1 287.05 66.1 287.05C76.1 287.05 84.21 290.15 84.21 293.97Z" fill="#FCC881" fill-opacity="1.000000" fill-rule="nonzero"/>
	<path id="Vector" d="M84.22 293.97L84.22 299.21C84.22 303.03 76.11 306.12 66.1 306.12C56.09 306.12 47.98 303.03 47.98 299.21L47.98 293.97C47.98 294.89 48.45 295.78 49.33 296.58C52.03 299.11 58.52 300.87 66.1 300.87C73.68 300.87 80.17 299.11 82.87 296.58C83.74 295.78 84.22 294.89 84.22 293.97Z" fill="#F2A233" fill-opacity="1.000000" fill-rule="nonzero"/>
	<path id="Vector" d="M84.21 292.29C84.21 296.11 76.1 299.21 66.1 299.21C56.1 299.21 47.99 296.11 47.99 292.29C47.99 288.47 56.1 285.38 66.1 285.38C76.1 285.38 84.21 288.47 84.21 292.29Z" fill="#FFFFFF" fill-opacity="1.000000" fill-rule="nonzero"/>
	<path id="Vector" d="M84.21 287.05C84.21 290.87 76.1 293.97 66.1 293.97C56.1 293.97 47.99 290.87 47.99 287.05C47.99 283.23 56.1 280.14 66.1 280.14C76.1 280.14 84.21 283.23 84.21 287.05Z" fill="#FCC881" fill-opacity="1.000000" fill-rule="nonzero"/>
	<path id="Vector" d="M84.22 287.05L84.22 292.29C84.22 296.11 76.11 299.21 66.1 299.21C56.09 299.21 47.98 296.11 47.98 292.29L47.98 287.05C47.98 287.98 48.45 288.87 49.33 289.67C52.03 292.19 58.52 293.96 66.1 293.96C73.68 293.96 80.17 292.19 82.87 289.67C83.74 288.87 84.22 287.98 84.22 287.05Z" fill="#F2A233" fill-opacity="1.000000" fill-rule="nonzero"/>
	<path id="Vector" d="M84.21 285.38C84.21 289.19 76.1 292.29 66.1 292.29C56.1 292.29 47.99 289.19 47.99 285.38C47.99 281.56 56.1 278.46 66.1 278.46C76.1 278.46 84.21 281.56 84.21 285.38Z" fill="#FFFFFF" fill-opacity="1.000000" fill-rule="nonzero"/>
	<path id="Vector" d="M84.21 280.14C84.21 283.96 76.1 287.05 66.1 287.05C56.1 287.05 47.99 283.96 47.99 280.14C47.99 276.32 56.1 273.22 66.1 273.22C76.1 273.22 84.21 276.32 84.21 280.14Z" fill="#FCC881" fill-opacity="1.000000" fill-rule="evenodd"/>
	<path id="Vector" d="M84.22 280.14L84.22 285.37C84.22 289.19 76.11 292.29 66.1 292.29C56.09 292.29 47.98 289.19 47.98 285.37L47.98 280.14C47.98 281.06 48.45 281.95 49.33 282.75C52.03 285.27 58.52 287.04 66.1 287.04C73.68 287.04 80.17 285.27 82.87 282.75C83.74 281.95 84.22 281.06 84.22 280.14Z" fill="#F2A233" fill-opacity="1.000000" fill-rule="nonzero"/>
	<path id="Vector" d="M65.2 284.31L65.2 283.28C63.66 283.28 62.07 283.09 61.13 282.83L61.77 282.15C62.73 282.4 64.12 282.59 65.6 282.59C67.5 282.59 68.77 282.18 68.77 281.6C68.77 281.03 67.73 280.7 65.76 280.4C63.05 279.99 61.38 279.53 61.38 278.64C61.38 277.75 62.95 277.15 65.39 277.01L65.39 275.98L67.03 275.98L67.03 276.96C68.63 276.98 69.72 277.14 70.49 277.32L69.83 277.99C69.27 277.86 68.18 277.64 66.48 277.64C64.43 277.64 63.67 278.1 63.67 278.5C63.67 279.03 64.65 279.29 66.97 279.66C69.7 280.09 71.09 280.62 71.09 281.52C71.09 282.32 69.63 283.08 66.89 283.25L66.89 284.31L65.21 284.31L65.2 284.31Z" fill="#FFFFFF" fill-opacity="1.000000" fill-rule="nonzero"/>
	<path id="Vector" d="M39.29 277.19C48.55 281 52.96 291.59 49.15 300.85C45.34 310.1 34.75 314.52 25.49 310.71C16.24 306.9 11.82 296.3 15.63 287.05C19.44 277.79 30.04 273.38 39.29 277.19Z" fill="#FCC881" fill-opacity="1.000000" fill-rule="evenodd"/>
	<path id="Vector" d="M31.48 304.88L31.48 302.2C29.94 302.18 28.35 301.7 27.42 301.03L28.06 299.25C29.02 299.89 30.4 300.39 31.89 300.39C33.78 300.39 35.06 299.3 35.06 297.79C35.06 296.28 34.02 295.42 32.05 294.62C29.33 293.56 27.67 292.34 27.67 290.03C27.67 287.72 29.23 286.14 31.68 285.75L31.68 283.07L33.32 283.07L33.32 285.65C34.92 285.7 36 286.12 36.78 286.58L36.11 288.34C35.55 288.02 34.47 287.44 32.77 287.44C30.72 287.44 29.95 288.66 29.95 289.72C29.95 291.11 30.93 291.79 33.25 292.75C35.99 293.87 37.38 295.25 37.38 297.62C37.38 299.71 35.91 301.69 33.17 302.14L33.17 304.9L31.5 304.9L31.48 304.88Z" fill="#FFFFFF" fill-opacity="1.000000" fill-rule="nonzero"/>
	<path id="Vector" d="M316.67 151.07L299.56 160.95L299.56 62.15L316.67 52.27L316.67 151.07Z" fill="#175297" fill-opacity="1.000000" fill-rule="nonzero"/>
	<path id="Vector" d="M299.56 160.95L282.45 151.07L282.45 52.27L299.56 62.15L299.56 160.95Z" fill="#0176FF" fill-opacity="1.000000" fill-rule="nonzero"/>
	<path id="Vector" d="M316.67 52.27L299.56 62.15L282.45 52.27L299.56 42.39L316.67 52.27Z" fill="#E1F5FE" fill-opacity="1.000000" fill-rule="nonzero"/>
	<path id="Vector" d="M338.32 164.12L321.2 173.99L321.2 94.95L338.32 85.07L338.32 164.12Z" fill="#175297" fill-opacity="1.000000" fill-rule="nonzero"/>
	<path id="Vector" d="M321.2 173.99L304.09 164.12L304.09 85.07L321.2 94.95L321.2 173.99Z" fill="#0176FF" fill-opacity="1.000000" fill-rule="nonzero"/>
	<path id="Vector" d="M338.32 85.07L321.2 94.95L304.09 85.07L321.2 75.19L338.32 85.07Z" fill="#E1F5FE" fill-opacity="1.000000" fill-rule="nonzero"/>
	<path id="Vector" d="M361.57 177.01L344.46 186.89L344.46 127.61L361.57 117.73L361.57 177.01Z" fill="#175297" fill-opacity="1.000000" fill-rule="nonzero"/>
	<path id="Vector" d="M344.46 186.89L327.35 177.01L327.35 117.73L344.46 127.61L344.46 186.89Z" fill="#0176FF" fill-opacity="1.000000" fill-rule="nonzero"/>
	<path id="Vector" d="M361.57 117.73L344.46 127.61L327.35 117.73L344.46 107.85L361.57 117.73Z" fill="#E1F5FE" fill-opacity="1.000000" fill-rule="nonzero"/>
	<path id="Vector" d="M382.98 189.91L365.85 199.79L365.85 160.26L382.98 150.38L382.98 189.91Z" fill="#175297" fill-opacity="1.000000" fill-rule="nonzero"/>
	<path id="Vector" d="M365.85 199.79L348.74 189.91L348.74 150.38L365.85 160.26L365.85 199.79Z" fill="#0176FF" fill-opacity="1.000000" fill-rule="nonzero"/>
	<path id="Vector" d="M382.98 150.38L365.85 160.26L348.74 150.38L365.85 140.5L382.98 150.38Z" fill="#E1F5FE" fill-opacity="1.000000" fill-rule="nonzero"/>
	<path id="Vector" d="M404.63 202.81L387.52 212.69L387.52 192.93L404.63 183.04L404.63 202.81Z" fill="#175297" fill-opacity="1.000000" fill-rule="nonzero"/>
	<path id="Vector" d="M387.51 212.69L370.39 202.81L370.39 183.04L387.51 192.93L387.51 212.69Z" fill="#0176FF" fill-opacity="1.000000" fill-rule="nonzero"/>
	<path id="Vector" d="M404.63 183.04L387.5 192.93L370.39 183.04L387.51 173.16L404.63 183.04Z" fill="#E1F5FE" fill-opacity="1.000000" fill-rule="nonzero"/>
	<path id="Vector" d="M50.55 224.32L10.92 247.21C9.23 248.19 7.85 247.16 7.85 244.9L7.85 200.22C7.85 197.96 9.23 195.35 10.92 194.37L50.55 171.48C52.24 170.5 53.62 171.54 53.62 173.79L53.62 218.48C53.62 220.73 52.24 223.34 50.55 224.32Z" fill="#FEB06D" fill-opacity="1.000000" fill-rule="nonzero"/>
	<path id="Vector" d="M52.13 171.16C51.67 171.05 51.13 171.16 50.55 171.48L50.26 171.65L10.92 194.36C9.23 195.34 7.86 197.95 7.86 200.21L7.86 244.89C7.86 246.04 8.22 246.89 8.8 247.29L4.42 244.62C3.73 244.27 3.29 243.38 3.29 242.11L3.29 197.42C3.29 195.17 4.66 192.56 6.34 191.58L45.08 169.18C46.57 168.33 47.78 168.91 47.78 168.91L52.13 171.14L52.13 171.16Z" fill="#FF5A71" fill-opacity="1.000000" fill-rule="nonzero"/>
	<path id="Vector" d="M37.12 200.57L39.28 198.88L38.64 195.07L36.45 196.77C36.08 195.88 35.56 195.16 34.91 194.62L36.34 191.81L33.53 190.71L32.09 193.53C31.2 193.47 30.23 193.63 29.23 193.98L29.23 191.39L25.56 193.5L25.56 196.09C24.56 196.89 23.6 197.85 22.7 198.94L21.26 197.8L18.45 202.14L19.88 203.29C19.23 204.59 18.71 205.91 18.34 207.22L16.15 208.03L15.51 212.57L17.67 211.76C17.69 212.96 17.87 214.03 18.19 214.96L16.3 217.32L18.14 219.93L20.02 217.59C20.69 218.1 21.48 218.42 22.38 218.52L21.64 221.29L25.09 220.75L25.82 217.98C26.34 217.78 26.85 217.53 27.37 217.23C27.89 216.93 28.41 216.58 28.93 216.19L29.67 218.1L33.12 214.66L32.37 212.74C33.26 211.61 34.06 210.38 34.74 209.08L36.62 209.25L38.46 204.52L36.56 204.35C36.9 203.03 37.07 201.76 37.08 200.55L37.12 200.57ZM27.72 212.52C24.25 214.71 21.4 213.07 21.58 208.97C21.73 205.45 24.15 201.28 27.11 199.38C30.58 197.18 33.43 198.83 33.25 202.94C33.1 206.46 30.68 210.64 27.71 212.53L27.72 212.52Z" fill="#FFFFFF" fill-opacity="1.000000" fill-rule="nonzero"/>
	<path id="Vector" d="M44.72 212.47L45.91 211.54L45.56 209.43L44.36 210.38C44.16 209.88 43.86 209.49 43.5 209.18L44.29 207.63L42.74 207.02L41.94 208.58C41.44 208.54 40.91 208.63 40.36 208.82L40.36 207.39L38.33 208.56L38.33 209.99C37.78 210.43 37.25 210.96 36.76 211.57L35.96 210.94L34.4 213.34L35.19 213.97C34.83 214.69 34.55 215.42 34.33 216.14L33.13 216.6L32.78 219.11L33.97 218.66C33.97 219.31 34.08 219.91 34.26 220.43L33.21 221.73L34.22 223.17L35.26 221.88C35.63 222.16 36.07 222.34 36.56 222.4L36.16 223.93L38.06 223.64L38.47 222.1C38.75 221.99 39.04 221.86 39.32 221.69C39.61 221.52 39.9 221.33 40.18 221.11L40.59 222.17L42.49 220.27L42.08 219.21C42.58 218.58 43.02 217.9 43.39 217.18L44.43 217.27L45.44 214.66L44.39 214.57C44.57 213.84 44.68 213.14 44.69 212.47L44.72 212.47ZM39.53 219.07C37.61 220.29 36.04 219.38 36.14 217.11C36.22 215.16 37.56 212.86 39.2 211.81C41.12 210.59 42.69 211.5 42.59 213.77C42.5 215.72 41.17 218.03 39.53 219.06L39.53 219.07Z" fill="#FFFFFF" fill-opacity="1.000000" fill-rule="nonzero"/>
	<path id="Vector" d="M373.68 235.34C372.27 239.79 368.58 244.04 362.63 247.47C347.01 256.49 321.7 256.49 306.07 247.47C300.13 244.04 296.44 239.79 295.02 235.35C294.57 233.96 294.36 232.56 294.36 231.15L294.36 239.53C294.36 245.44 298.27 251.36 306.07 255.86C321.7 264.89 347.01 264.89 362.63 255.86C370.44 251.36 374.35 245.44 374.35 239.53L374.35 231.15C374.35 232.55 374.12 233.95 373.68 235.34Z" fill="#1E88E5" fill-opacity="1.000000" fill-rule="nonzero"/>
	<path id="Vector" d="M373.68 235.34C372.27 239.79 368.58 244.04 362.63 247.47C347.01 256.49 321.7 256.49 306.07 247.47C300.13 244.04 296.44 239.79 295.02 235.35C294.57 233.96 294.36 232.56 294.36 231.15L294.36 239.53C294.36 245.44 298.27 251.36 306.07 255.86C321.7 264.89 347.01 264.89 362.63 255.86C370.44 251.36 374.35 245.44 374.35 239.53L374.35 231.15C374.35 232.55 374.12 233.95 373.68 235.34Z" fill="#1E88E5" fill-opacity="1.000000" fill-rule="nonzero"/>
	<path id="Vector" d="M334.36 231.15L318.07 210.06C324.02 208.53 330.53 207.87 337.03 208.11C343.53 208.36 349.83 209.53 355.37 211.5L334.36 231.15Z" fill="#1E88E5" fill-opacity="1.000000" fill-rule="nonzero"/>
	<path id="Vector" d="M355.38 211.49L355.38 219.88L334.36 239.53L334.36 231.15L348.48 217.94L355.38 211.49Z" fill="#1976D2" fill-opacity="1.000000" fill-rule="nonzero"/>
	<path id="Vector" d="M334.36 231.15L345.39 253.34C331.43 255.65 316.35 253.4 306.09 247.47C303.38 245.9 301.08 244.14 299.25 242.2L334.36 231.15Z" fill="#90CAF9" fill-opacity="1.000000" fill-rule="nonzero"/>
	<path id="Vector" d="M345.38 253.34L345.38 261.73C331.42 264.03 316.35 261.78 306.09 255.86C303.38 254.3 301.09 252.53 299.25 250.59L299.25 242.2C301.09 244.14 303.38 245.92 306.09 247.48C306.45 247.7 306.82 247.89 307.2 248.09C316.44 253.04 329.19 255.15 341.48 253.87C342.79 253.73 344.09 253.55 345.38 253.34Z" fill="#64B5F6" fill-opacity="1.000000" fill-rule="nonzero"/>
	<path id="Vector" d="M343.79 222.2L364.8 202.56C367.43 203.49 369.88 204.61 372.06 205.88C377.64 209.1 381.43 213.19 382.99 217.65L343.78 222.2L343.79 222.2Z" fill="#F48FB1" fill-opacity="1.000000" fill-rule="nonzero"/>
	<path id="Vector" d="M343.79 230.69L364.8 211.04C367.43 211.98 369.88 213.09 372.06 214.36C377.64 217.59 381.43 221.68 382.99 226.14L343.78 230.69L343.79 230.69Z" fill="#F48FB1" fill-opacity="1.000000" fill-rule="nonzero"/>
	<path id="Vector" d="M382.99 217.65L382.99 226.14L343.79 230.69L343.79 222.2L354.15 221L377.52 218.29L382.99 217.65Z" fill="#F06292" fill-opacity="1.000000" fill-rule="nonzero"/>
	<path id="Vector" d="M334.36 231.15L373.57 226.6C376.21 234.17 372.09 242.02 362.64 247.48C357.85 250.25 351.91 252.27 345.39 253.35L334.37 231.16L334.36 231.15Z" fill="#64B5F6" fill-opacity="1.000000" fill-rule="nonzero"/>
	<path id="Vector" d="M374.36 231.14L374.36 239.62C374.36 245.68 370.2 251.57 362.64 255.95C357.86 258.72 351.91 260.74 345.39 261.82L345.39 253.34C351.91 252.26 357.86 250.24 362.64 247.47C368.42 244.13 372.21 239.9 373.67 235.37C374.13 233.99 374.36 232.56 374.36 231.13L374.36 231.14Z" fill="#42A5F5" fill-opacity="1.000000" fill-rule="nonzero"/>
	<path id="Vector" d="M334.36 231.15L299.3 242.27C290.77 233.29 293.54 222.06 306.07 214.83C309.53 212.83 313.6 211.21 318.07 210.06L334.36 231.15Z" fill="#3949AB" fill-opacity="1.000000" fill-rule="nonzero"/>
	<path id="Vector" d="M299.25 242.19L299.25 250.57C295.98 247.11 294.38 243.31 294.38 239.55L294.38 231.17C294.38 232.57 294.61 233.98 295.05 235.36C295.8 237.72 297.19 240.01 299.25 242.19Z" fill="#334199" fill-opacity="1.000000" fill-rule="nonzero"/>
	<path id="Vector" d="M299.96 26.42L267.27 45.37C267.04 45.49 266.87 45.37 266.87 45.06L266.87 20.48C266.87 20.19 267.05 19.84 267.27 19.72L299.96 0.77C300.18 0.65 300.35 0.77 300.35 1.08L300.35 25.65C300.35 25.95 300.17 26.3 299.96 26.42Z" fill="#90CAF9" fill-opacity="1.000000" fill-rule="nonzero"/>
	<path id="Vector" d="M300.36 6.67L266.87 26.08L266.87 22.57L300.36 3.16L300.36 6.67Z" fill="#1976D2" fill-opacity="1.000000" fill-rule="nonzero"/>
	<path id="Vector" d="M293.62 15.91L292.48 16.57L292.48 14.28L293.62 13.61L293.62 15.91Z" fill="#FFFFFF" fill-opacity="1.000000" fill-rule="nonzero"/>
	<path id="Vector" d="M296.63 16.68L295.98 17.06L295.98 12.25L296.63 11.87L296.63 16.68Z" fill="#FFFFFF" fill-opacity="1.000000" fill-rule="nonzero"/>
	<path id="Vector" d="M294.95 14.58L293.81 15.25L293.81 13.5L294.95 12.85L294.95 14.58Z" fill="#FFFFFF" fill-opacity="1.000000" fill-rule="nonzero"/>
	<path id="Vector" d="M295.79 14.1L295.14 14.47L295.14 12.73L295.79 12.36L295.79 14.1Z" fill="#FFFFFF" fill-opacity="1.000000" fill-rule="nonzero"/>
	<path id="Vector" d="M293.62 18.42L292.48 19.09L292.48 16.79L293.62 16.12L293.62 18.42Z" fill="#FFFFFF" fill-opacity="1.000000" fill-rule="nonzero"/>
	<path id="Vector" d="M293.81 18.31L293.81 16.99L295.79 15.84L295.79 17.16L293.81 18.31Z" fill="#FFFFFF" fill-opacity="1.000000" fill-rule="nonzero"/>
	<path id="Vector" d="M293.81 16.78L293.81 15.46L295.79 14.31L295.79 15.63L293.81 16.78Z" fill="#FFFFFF" fill-opacity="1.000000" fill-rule="nonzero"/>
	<path id="Vector" d="M271.04 30.66L271.04 27.4C271.04 27.4 271.05 27.34 271.09 27.33L272.19 26.7C272.53 26.51 272.79 26.44 272.96 26.5C273.14 26.56 273.23 26.72 273.23 27.02C273.23 27.19 273.18 27.35 273.1 27.54C273.02 27.72 272.9 27.87 272.73 28.02C272.96 27.93 273.13 27.93 273.24 28.02C273.35 28.1 273.4 28.24 273.4 28.44C273.4 28.74 273.31 29.02 273.14 29.28C272.96 29.54 272.71 29.78 272.36 29.97L271.1 30.7C271.1 30.7 271.05 30.7 271.05 30.68L271.04 30.66ZM271.41 28.62L272.23 28.15C272.42 28.04 272.56 27.91 272.68 27.75C272.79 27.59 272.84 27.41 272.84 27.22C272.84 27.03 272.79 26.93 272.68 26.89C272.56 26.86 272.39 26.9 272.18 27.03L271.41 27.47L271.41 28.62ZM273.01 28.63C273.01 28.23 272.79 28.15 272.35 28.41L271.41 28.95L271.41 30.15L272.35 29.61C272.79 29.35 273.01 29.02 273.01 28.63Z" fill="#FFFFFF" fill-opacity="1.000000" fill-rule="nonzero"/>
	<path id="Vector" d="M273.77 29.08L274.87 25.28C274.91 25.17 274.97 25.08 275.06 25.03L275.19 24.97C275.28 24.91 275.35 24.92 275.38 25L276.48 27.52C276.48 27.52 276.48 27.54 276.48 27.55C276.48 27.57 276.47 27.58 276.44 27.59L276.15 27.76C276.15 27.76 276.1 27.77 276.08 27.76L275.78 27.11L274.46 27.87L274.16 28.85C274.16 28.85 274.13 28.92 274.09 28.93L273.8 29.1C273.8 29.1 273.77 29.11 273.77 29.1C273.77 29.1 273.77 29.09 273.77 29.08ZM274.56 27.47L275.67 26.83L275.11 25.54L274.54 27.47L274.56 27.47Z" fill="#FFFFFF" fill-opacity="1.000000" fill-rule="nonzero"/>
	<path id="Vector" d="M277.01 27.21L277.01 23.95C277.01 23.95 277.02 23.9 277.06 23.89L277.35 23.72C277.43 23.67 277.5 23.68 277.55 23.74L279.09 25.49L279.09 22.76C279.09 22.76 279.1 22.7 279.13 22.69L279.42 22.52C279.42 22.52 279.47 22.52 279.47 22.55L279.47 25.8C279.47 25.8 279.46 25.86 279.42 25.87L279.13 26.04C279.05 26.08 278.98 26.08 278.93 26.01L277.4 24.27L277.4 26.99C277.4 26.99 277.38 27.05 277.35 27.06L277.06 27.23C277.06 27.23 277.01 27.23 277.01 27.21Z" fill="#FFFFFF" fill-opacity="1.000000" fill-rule="nonzero"/>
	<path id="Vector" d="M280.28 25.32L280.28 22.06C280.28 22.06 280.29 22 280.32 21.99L280.62 21.82C280.62 21.82 280.66 21.82 280.66 21.85L280.66 23.31L280.98 23.13C281.23 22.98 281.42 22.76 281.55 22.43L282.17 20.97C282.17 20.97 282.21 20.9 282.23 20.89L282.57 20.7C282.57 20.7 282.62 20.69 282.6 20.73L281.96 22.24C281.8 22.61 281.63 22.87 281.46 23.01C281.66 22.93 281.84 22.98 282 23.18L282.64 23.94C282.64 23.94 282.64 23.96 282.64 23.98C282.64 23.99 282.63 24 282.6 24.02L282.26 24.21C282.26 24.21 282.22 24.21 282.19 24.21L281.57 23.47C281.44 23.31 281.25 23.3 280.99 23.45L280.64 23.65L280.64 25.11C280.64 25.11 280.63 25.17 280.59 25.18L280.3 25.35C280.3 25.35 280.26 25.35 280.26 25.33L280.28 25.32Z" fill="#FFFFFF" fill-opacity="1.000000" fill-rule="nonzero"/>
	<path id="Vector" d="M290.14 29.77L289.96 29.87L289.96 25.98L290.14 25.88L290.14 29.77Z" fill="#FFFFFF" fill-opacity="1.000000" fill-rule="nonzero"/>
	<path id="Vector" d="M290.55 29.53L290.32 29.66L290.32 25.77L290.55 25.64L290.55 29.53Z" fill="#FFFFFF" fill-opacity="1.000000" fill-rule="nonzero"/>
	<path id="Vector" d="M290.78 29.39L290.66 29.46L290.66 25.56L290.78 25.51L290.78 29.39Z" fill="#FFFFFF" fill-opacity="1.000000" fill-rule="nonzero"/>
	<path id="Vector" d="M290.98 29.28L290.87 29.35L290.87 25.45L290.98 25.38L290.98 29.28Z" fill="#FFFFFF" fill-opacity="1.000000" fill-rule="nonzero"/>
	<path id="Vector" d="M292.62 28.32L292.51 28.39L292.51 24.51L292.62 24.44L292.62 28.32Z" fill="#FFFFFF" fill-opacity="1.000000" fill-rule="nonzero"/>
	<path id="Vector" d="M292.83 28.21L292.7 28.28L292.7 24.39L292.83 24.32L292.83 28.21Z" fill="#FFFFFF" fill-opacity="1.000000" fill-rule="nonzero"/>
	<path id="Vector" d="M293.14 28.03L292.93 28.15L292.93 24.26L293.14 24.13L293.14 28.03Z" fill="#FFFFFF" fill-opacity="1.000000" fill-rule="nonzero"/>
	<path id="Vector" d="M293.32 27.93L293.26 27.96L293.26 24.08L293.32 24.03L293.32 27.93Z" fill="#FFFFFF" fill-opacity="1.000000" fill-rule="nonzero"/>
	<path id="Vector" d="M293.47 27.84L293.4 27.87L293.4 23.99L293.47 23.95L293.47 27.84Z" fill="#FFFFFF" fill-opacity="1.000000" fill-rule="nonzero"/>
	<path id="Vector" d="M293.66 27.73L293.56 27.79L293.56 23.9L293.66 23.84L293.66 27.73Z" fill="#FFFFFF" fill-opacity="1.000000" fill-rule="nonzero"/>
	<path id="Vector" d="M293.94 27.57L293.75 27.67L293.75 23.78L293.94 23.68L293.94 27.57Z" fill="#FFFFFF" fill-opacity="1.000000" fill-rule="nonzero"/>
	<path id="Vector" d="M294.82 27.06L294.58 27.2L294.58 23.31L294.82 23.18L294.82 27.06Z" fill="#FFFFFF" fill-opacity="1.000000" fill-rule="nonzero"/>
	<path id="Vector" d="M295.09 26.9L294.93 26.99L294.93 23.11L295.09 23.01L295.09 26.9Z" fill="#FFFFFF" fill-opacity="1.000000" fill-rule="nonzero"/>
	<path id="Vector" d="M295.42 26.71L295.26 26.8L295.26 22.92L295.42 22.83L295.42 26.71Z" fill="#FFFFFF" fill-opacity="1.000000" fill-rule="nonzero"/>
	<path id="Vector" d="M295.6 26.61L295.53 26.65L295.53 22.76L295.6 22.73L295.6 26.61Z" fill="#FFFFFF" fill-opacity="1.000000" fill-rule="nonzero"/>
	<path id="Vector" d="M295.77 26.51L295.7 26.56L295.7 22.67L295.77 22.62L295.77 26.51Z" fill="#FFFFFF" fill-opacity="1.000000" fill-rule="nonzero"/>
	<path id="Vector" d="M294.18 27.43L294.07 27.49L294.07 23.6L294.18 23.55L294.18 27.43Z" fill="#FFFFFF" fill-opacity="1.000000" fill-rule="nonzero"/>
	<path id="Vector" d="M294.43 27.29L294.27 27.38L294.27 23.49L294.43 23.4L294.43 27.29Z" fill="#FFFFFF" fill-opacity="1.000000" fill-rule="nonzero"/>
	<path id="Vector" d="M291.36 29.06L291.08 29.21L291.08 25.33L291.36 25.17L291.36 29.06Z" fill="#FFFFFF" fill-opacity="1.000000" fill-rule="nonzero"/>
	<path id="Vector" d="M291.79 28.81L291.51 28.98L291.51 25.08L291.79 24.92L291.79 28.81Z" fill="#FFFFFF" fill-opacity="1.000000" fill-rule="nonzero"/>
	<path id="Vector" d="M292.04 28.66L291.9 28.75L291.9 24.85L292.04 24.78L292.04 28.66Z" fill="#FFFFFF" fill-opacity="1.000000" fill-rule="nonzero"/>
	<path id="Vector" d="M296.16 26.28L295.93 26.42L295.93 22.53L296.16 22.4L296.16 26.28Z" fill="#FFFFFF" fill-opacity="1.000000" fill-rule="nonzero"/>
	<path id="Vector" d="M296.4 26.15L296.27 26.22L296.27 22.33L296.4 22.26L296.4 26.15Z" fill="#FFFFFF" fill-opacity="1.000000" fill-rule="nonzero"/>
	<path id="Vector" d="M296.59 26.04L296.48 26.1L296.48 22.22L296.59 22.15L296.59 26.04Z" fill="#FFFFFF" fill-opacity="1.000000" fill-rule="nonzero"/>
	<path id="Vector" d="M296.97 25.81L296.69 25.98L296.69 22.09L296.97 21.93L296.97 25.81Z" fill="#FFFFFF" fill-opacity="1.000000" fill-rule="nonzero"/>
	<path id="Vector" d="M297.4 25.58L297.12 25.73L297.12 21.85L297.4 21.68L297.4 25.58Z" fill="#FFFFFF" fill-opacity="1.000000" fill-rule="nonzero"/>
	<path id="Vector" d="M297.65 25.43L297.51 25.51L297.51 21.62L297.65 21.54L297.65 25.43Z" fill="#FFFFFF" fill-opacity="1.000000" fill-rule="nonzero"/>
	<path id="Vector" d="M292.37 28.48L292.16 28.59L292.16 24.71L292.37 24.6L292.37 28.48Z" fill="#FFFFFF" fill-opacity="1.000000" fill-rule="nonzero"/>
</svg>
