<svg width="16.001984" height="12.002930" viewBox="0 0 16.002 12.0029" fill="none" xmlns="http://www.w3.org/2000/svg" xmlns:xlink="http://www.w3.org/1999/xlink">
	<desc>
			Created with Pixso.
	</desc>
	<defs/>
	<path id="icon" d="M15.94 6.33L15.94 6.32C15.96 6.26 15.98 6.2 15.99 6.14C16.01 5.98 15.99 5.82 15.94 5.67C15.37 4.01 14.3 2.58 12.88 1.56C11.45 0.54 9.75 0 8 0C6.25 0 4.54 0.54 3.11 1.56C1.69 2.58 0.62 4.01 0.05 5.67C0.02 5.76 0 5.85 0 5.94L0 5.96C0 5.97 -0.01 5.99 0 6.01C0 6.03 0 6.04 0 6.05C0 6.15 0.02 6.24 0.05 6.33C0.63 7.98 1.7 9.41 3.12 10.43C4.55 11.44 6.25 11.99 8 12C9.75 11.99 11.45 11.44 12.87 10.42C14.29 9.41 15.37 7.98 15.94 6.33ZM4.27 8.8C3.28 8.09 2.52 7.12 2.06 6C2.52 4.87 3.28 3.9 4.27 3.19C5.36 2.42 6.66 2 8 2C9.33 2 10.63 2.42 11.72 3.19C12.71 3.9 13.47 4.87 13.93 6C13.47 7.12 12.71 8.09 11.72 8.8C10.63 9.58 9.33 10 8 10C6.66 10 5.36 9.58 4.27 8.8ZM6.88 7.66C7.21 7.88 7.6 8 8 8C8.26 8 8.52 7.95 8.76 7.85C9 7.75 9.22 7.6 9.41 7.41C9.59 7.23 9.74 7.01 9.84 6.76C9.94 6.52 10 6.26 10 6C10 5.6 9.88 5.22 9.66 4.89C9.44 4.56 9.13 4.3 8.76 4.15C8.39 4 7.99 3.96 7.6 4.04C7.22 4.11 6.86 4.3 6.58 4.58C6.3 4.86 6.11 5.22 6.03 5.61C5.96 6 6 6.4 6.15 6.76C6.3 7.13 6.55 7.44 6.88 7.66Z" fill="#9FA1AD" fill-opacity="1.000000" fill-rule="evenodd"/>
</svg>
