<svg width="449.626678" height="511.135864" viewBox="0 0 449.627 511.136" fill="none" xmlns="http://www.w3.org/2000/svg" xmlns:xlink="http://www.w3.org/1999/xlink">
	<desc>
			Created with Pixso.
	</desc>
	<defs/>
	<path id="Vector" d="M408.74 93.76C408.74 93.76 417.15 100.21 440.92 151.64C440.92 151.64 425.62 165.87 414.78 160.95C414.78 160.95 401.62 142.56 400.83 140.35C400.83 140.35 398.28 108.69 408.74 93.76Z" fill="#366FB5" fill-opacity="1.000000" fill-rule="nonzero"/>
	<path id="Vector" d="M436.91 154.04C435.04 155.38 427.19 159.82 424.53 160.47C421.96 161.09 419.4 161.24 417.52 160.94C414.9 160.53 413.57 159.27 415.25 157.26C419.49 152.24 430.62 148.78 434.69 149.34C437.35 149.7 439.18 150.43 439.18 150.43C439.78 151.36 438.74 152.74 436.91 154.04Z" fill="#18365C" fill-opacity="1.000000" fill-rule="nonzero"/>
	<path id="Vector" d="M436.74 189.93C436.74 189.93 423.24 170.02 417.5 160.92C416.41 159.19 415.6 157.9 415.24 157.25C419.47 152.22 430.6 148.76 434.67 149.32L436.5 149.66C436.5 149.66 444.12 172.88 446.66 178.95C446.66 178.95 438.96 188.35 436.74 189.93Z" fill="#ED8A6D" fill-opacity="1.000000" fill-rule="nonzero"/>
	<path id="Vector" d="M328.92 93.76C328.92 93.76 320.51 100.21 296.75 151.64C296.75 151.64 312.04 165.87 322.88 160.95C322.88 160.95 336.05 142.56 336.84 140.35C336.84 140.35 339.39 108.69 328.92 93.76Z" fill="#366FB5" fill-opacity="1.000000" fill-rule="nonzero"/>
	<path id="Vector" d="M300.76 154.04C302.64 155.38 310.47 159.82 313.15 160.47C315.71 161.09 318.28 161.24 320.16 160.94C322.77 160.53 324.11 159.27 322.42 157.26C318.19 152.24 307.06 148.78 302.99 149.34C300.33 149.7 298.49 150.43 298.49 150.43C297.9 151.36 298.93 152.74 300.77 154.04L300.76 154.04Z" fill="#18365C" fill-opacity="1.000000" fill-rule="nonzero"/>
	<path id="Vector" d="M300.92 189.93C300.92 189.93 314.42 170.02 320.16 160.92C321.25 159.19 322.06 157.9 322.42 157.25C318.19 152.22 307.06 148.76 302.99 149.32L301.16 149.66C301.16 149.66 293.54 172.87 291.01 178.95C291.01 178.95 298.7 188.35 300.92 189.93Z" fill="#ED8A6D" fill-opacity="1.000000" fill-rule="nonzero"/>
	<path id="Vector" d="M393.87 477.28C394.62 479.81 392 489.64 394.14 495.55C396.04 500.72 403.3 507.48 403.3 507.48C416.5 513.98 425.4 510.46 426.82 507.19C428.25 503.93 424.76 497.64 418.85 491.66C412.94 485.69 409.56 474.65 409.56 474.65L408.01 469.19C407.86 465.8 404.77 466.57 404.77 466.57C402.41 467.21 400.58 467.26 399.19 467.01C399.19 467.01 397.18 467.53 397.99 472.92C397.99 472.92 395.12 467.68 393.6 465.3C393.6 465.3 391.49 469.19 393.87 477.28Z" fill="#0C0F10" fill-opacity="1.000000" fill-rule="nonzero"/>
	<path id="Vector" d="M343.87 475.88C343.12 478.42 345.73 488.24 343.59 494.15C341.71 499.33 334.44 506.08 334.44 506.08C321.24 512.58 312.34 509.06 310.93 505.8C309.5 502.53 312.99 496.24 318.9 490.26C324.81 484.29 328.19 473.25 328.19 473.25L329.74 467.79C329.9 464.4 332.98 465.19 332.98 465.19C335.35 465.81 337.17 465.86 338.57 465.62C338.57 465.62 340.57 466.13 339.77 471.54C339.77 471.54 342.64 466.3 344.15 463.92C344.15 463.92 346.27 467.8 343.88 475.9L343.87 475.88Z" fill="#0C0F10" fill-opacity="1.000000" fill-rule="nonzero"/>
	<path id="Vector" d="M330.05 219.01C330.05 219.01 323.87 250.94 327.22 469.44C327.22 469.44 333.63 475 347.25 471.66C347.25 471.66 360.83 356.72 367.69 270.21C367.69 270.21 378.49 387.03 388.04 473.33C388.04 473.33 399.41 477.26 409.83 470.49C409.83 470.49 415.19 303.13 407.99 219.01C407.99 219.01 378.78 222.33 368.98 222.33C359.2 222.33 330.03 219.01 330.03 219.01L330.05 219.01Z" fill="#20353F" fill-opacity="1.000000" fill-rule="nonzero"/>
	<path id="Vector" d="M329.53 220.31C329.53 220.31 368.04 229.91 408.25 219.55L408.94 226.45C408.94 226.45 371.75 238.57 328.95 226.63L329.53 220.31Z" fill="#0C0F10" fill-opacity="1.000000" fill-rule="nonzero"/>
	<path id="Vector" d="M353.01 232.64L348.68 232.16L348.68 222.99L353.01 223.46L353.01 232.64Z" fill="#2F525F" fill-opacity="1.000000" fill-rule="nonzero"/>
	<path id="Vector" d="M364.61 223.93L373.39 223.93C374.26 223.93 374.97 224.63 374.97 225.51L374.97 230.58C374.97 231.45 374.26 232.16 373.39 232.16L364.61 232.16C363.74 232.16 363.03 231.45 363.03 230.58L363.03 225.51C363.03 224.63 363.74 223.93 364.61 223.93Z" fill="#FFFFFF" fill-opacity="1.000000" fill-rule="evenodd"/>
	<path id="Vector" d="M366.17 225.4L371.81 225.4C372.37 225.4 372.82 225.86 372.82 226.42L372.82 229.68C372.82 230.24 372.37 230.7 371.81 230.7L366.17 230.7C365.61 230.7 365.16 230.24 365.16 229.68L365.16 226.42C365.16 225.86 365.61 225.4 366.17 225.4Z" fill="#0C0F10" fill-opacity="1.000000" fill-rule="nonzero"/>
	<path id="Vector" d="M391.67 231.31L387.33 232.05L387.33 222.86L391.67 222.12L391.67 231.31Z" fill="#2F525F" fill-opacity="1.000000" fill-rule="nonzero"/>
	<path id="Vector" d="M387.71 88.87C386.4 88.54 384.96 87.81 384.96 87.81C378.12 74.29 379.34 44.39 379.34 44.39C379.34 44.39 356.96 58.04 356.76 61.16C356 73.64 354.42 85.21 352.42 89.45C352.2 89.9 351.35 90.4 350.09 90.93L350.09 117.49L387.05 111.88L387.69 88.88L387.71 88.87Z" fill="#EE794E" fill-opacity="1.000000" fill-rule="nonzero"/>
	<path id="Vector" d="M356.76 61.16C356.32 68.46 355.59 75.46 354.66 80.85C361.92 86.97 373.22 93.27 384.47 86.8C378.17 72.86 379.34 44.39 379.34 44.39C379.34 44.39 356.96 58.04 356.76 61.16Z" fill="#E05E35" fill-opacity="1.000000" fill-rule="nonzero"/>
	<path id="Vector" d="M330.29 214.45C331.75 211.13 330.99 207.44 331.43 200.18C332.64 180.03 323.62 151.83 323.59 146.25C323.49 120.17 328.94 93.77 328.94 93.77C330.62 92.29 350.18 86.41 353.43 85.44C357.82 96.92 368.75 106.44 368.75 106.44C368.78 106.42 368.83 106.39 368.86 106.38C368.91 106.39 368.94 106.42 368.97 106.44C368.97 106.44 379.9 96.93 384.29 85.44C387.55 86.41 407.1 92.3 408.78 93.77C408.78 93.77 414.25 120.17 414.13 146.25C414.1 151.83 405.08 180.03 406.29 200.18C406.73 207.44 406.92 210.11 407.34 213.71C407.34 213.71 409.01 216.67 407.98 219.02C407.98 219.02 368.97 229.17 330.03 219.02C330.03 219.02 329.14 217.03 330.27 214.45L330.29 214.45Z" fill="#366FB5" fill-opacity="1.000000" fill-rule="nonzero"/>
	<path id="Vector" d="M445.87 176.94C445.87 176.94 451.48 187.7 448.98 193.01C446.47 198.31 394.31 197.92 394.31 197.92C394.31 197.92 394.1 194.7 394.28 191.31C394.28 191.31 432.78 178.95 445.87 176.94Z" fill="#F29B7C" fill-opacity="1.000000" fill-rule="nonzero"/>
	<path id="Vector" d="M337.11 154.38L399.85 154.38L399.85 199.48L337.11 199.48L337.11 154.38Z" fill="#5E89AA" fill-opacity="1.000000" fill-rule="evenodd"/>
	<path id="Vector" d="M337.11 154.38L399.85 154.38L399.85 157.02L337.11 157.02L337.11 154.38Z" fill="#7FBBE2" fill-opacity="1.000000" fill-rule="evenodd"/>
	<path id="Vector" d="M339.93 199.97L399.87 199.97L399.87 207.18L339.93 207.18L339.93 199.97Z" fill="#5E89AA" fill-opacity="1.000000" fill-rule="evenodd"/>
	<path id="Vector" d="M339.93 203.76L399.87 203.76L399.87 207.19L339.93 207.19L339.93 203.76Z" fill="#40718E" fill-opacity="1.000000" fill-rule="evenodd"/>
	<path id="Vector" d="M391.67 44.89C391.94 36.94 391.55 30.8 391.55 30.8C390.82 18.26 380.1 15.92 369.45 16.22C358.81 15.92 348.07 18.26 347.36 30.8C347.36 30.8 346.96 36.92 347.24 44.89C341.03 40.18 340.1 47.37 342.12 53.18C343.88 58.16 347.01 59.33 348.51 59.3C348.7 60.44 348.89 61.58 349.12 62.69C350.84 71.16 361.07 81.78 366.74 84.13C366.74 84.13 367.42 84.48 369.45 84.48C371.47 84.48 372.17 84.13 372.17 84.13C377.84 81.78 388.07 71.16 389.79 62.69C390.01 61.58 390.21 60.44 390.39 59.3C391.91 59.33 393.75 59.32 395.51 54.35C397.53 48.54 397.9 40.18 391.69 44.89L391.67 44.89Z" fill="#F29B7C" fill-opacity="1.000000" fill-rule="nonzero"/>
	<path id="Vector" d="M392.28 44.04C392.28 44.04 390.35 50.4 388.91 47.66C387.77 45.48 387.69 27.84 387.69 27.84C383.47 22.1 377.9 29.18 370.65 30.75C356.67 33.81 348.94 25.12 348.94 25.12C347.16 38.15 349.39 46.81 348.47 46.94C347.53 47.05 345.26 43.86 345.26 43.86C335.47 7.13 363.78 7.13 363.78 7.13C363.78 7.13 375.68 9.18 382.23 1.14C386.39 -3.96 393.99 9.37 391.11 13.08C391.11 13.08 393.52 12.27 394.8 10.98C396.09 9.69 396.41 18.7 395.12 22.4C395.12 22.4 396.15 29.83 396.09 31.89C396.04 33.12 395.65 40.44 392.28 44.06L392.28 44.04Z" fill="#DB3C23" fill-opacity="1.000000" fill-rule="nonzero"/>
	<path id="Vector" d="M385.26 37.3C382.35 36.6 371.2 37.92 368.71 38C366.22 37.92 355.06 36.62 352.16 37.3C349.24 38 348.28 40.99 348.28 40.99L368.72 42.01L389.16 40.99C389.16 40.99 388.19 38 385.29 37.3L385.26 37.3Z" fill="#213242" fill-opacity="1.000000" fill-rule="nonzero"/>
	<path id="Vector" d="M389.7 44.54C389.7 45.3 389.01 45.93 388.18 45.93L349.23 45.93C348.39 45.93 347.71 45.3 347.71 44.54L347.71 41.1C347.71 40.34 348.39 39.71 349.23 39.71L388.18 39.71C389.01 39.71 389.7 40.34 389.7 41.1L389.7 44.54Z" fill="#E7EEF7" fill-opacity="1.000000" fill-rule="nonzero"/>
	<path id="Vector" d="M351.67 40.97L385.75 40.97C388.2 40.97 390.18 42.96 390.18 45.41L390.18 53.03C390.18 55.48 388.2 57.47 385.75 57.47L351.67 57.47C349.22 57.47 347.24 55.48 347.24 53.03L347.24 45.41C347.24 42.96 349.22 40.97 351.67 40.97Z" fill="#6185A8" fill-opacity="1.000000" fill-rule="evenodd"/>
	<path id="Vector" d="M351.67 43.18L385.75 43.18C388.2 43.18 390.18 45.16 390.18 47.61L390.18 55.23C390.18 57.68 388.2 59.67 385.75 59.67L351.67 59.67C349.22 59.67 347.24 57.68 347.24 55.23L347.24 47.61C347.24 45.16 349.22 43.18 351.67 43.18Z" fill="#E7EEF7" fill-opacity="1.000000" fill-rule="evenodd"/>
	<path id="Vector" d="M388.48 54.47C388.48 56.43 386.66 58.03 384.4 58.03L353.02 58.03C350.78 58.03 348.94 56.43 348.94 54.47L348.94 48.37C348.94 46.41 350.76 44.82 353.02 44.82L384.4 44.82C386.64 44.82 388.48 46.41 388.48 48.37L388.48 54.47Z" fill="#213242" fill-opacity="1.000000" fill-rule="nonzero"/>
	<path id="Vector" d="M291.8 176.94C291.8 176.94 286.18 187.7 288.68 193.01C291.19 198.31 344.4 207.95 344.4 207.95C344.4 207.95 344.61 204.72 344.43 201.35C344.43 201.35 303.32 176.26 291.8 176.94Z" fill="#F29B7C" fill-opacity="1.000000" fill-rule="nonzero"/>
	<path id="Vector" d="M342.94 200.45C342.94 200.45 351.63 199.78 353.02 200.03C354.42 200.27 357.09 200.76 358.78 201.23C360.46 201.71 361.31 202.08 361.13 202.3C360.95 202.55 359.87 204.23 355.89 203.87C351.91 203.5 351.4 204.22 350.87 204.16C350.87 204.16 355.39 206.5 358.05 207.12C360.71 207.76 370.71 205.6 374.21 207.94C376.2 209.26 362.88 212.07 359.49 211.83C356.12 211.58 344.79 211.07 339.96 207.1L342.95 200.44L342.94 200.45Z" fill="#F29B7C" fill-opacity="1.000000" fill-rule="nonzero"/>
	<path id="Vector" d="M143.09 73.94C143.09 73.94 140.13 109.42 143.09 115.75L155.11 115.75L162.33 92.09L152.08 75.35L143.09 73.96L143.09 73.94Z" fill="#211713" fill-opacity="1.000000" fill-rule="nonzero"/>
	<path id="Vector" d="M190.25 73.94C190.25 73.94 194.91 99.74 177.44 101.28L177.44 90.93L186.71 72.38L190.25 73.94Z" fill="#211713" fill-opacity="1.000000" fill-rule="nonzero"/>
	<path id="Vector" d="M200.23 115.2C200.23 115.2 210.96 122.02 231.57 130.01C231.57 130.01 234.15 148.24 226.06 154.3C226.06 154.3 205.65 153.19 198.44 152.77C198.44 152.77 194.69 128.41 200.23 115.2Z" fill="#009CD2" fill-opacity="1.000000" fill-rule="nonzero"/>
	<path id="Vector" d="M231.08 134.5C231.08 136.82 230.96 143.38 230.17 145.97C229.4 148.46 228.34 150.66 227.29 152.04C225.83 153.95 224.42 154.32 223.9 151.75C222.61 145.31 224.86 136.61 227.06 133.59C228.5 131.62 229.81 130.52 229.81 130.52C230.67 130.58 231.08 132.24 231.1 134.52L231.08 134.5Z" fill="#066B84" fill-opacity="1.000000" fill-rule="nonzero"/>
	<path id="Vector" d="M254.01 155.64C254.01 155.64 235.72 152.62 227.29 152.03C225.68 151.9 224.49 151.81 223.9 151.74C222.61 145.3 224.86 136.6 227.06 133.58L228.11 132.25C228.11 132.25 246.44 139.56 251.49 141.02C251.49 141.02 254.01 152.88 254.01 155.62L254.01 155.64Z" fill="#ED8A6D" fill-opacity="1.000000" fill-rule="nonzero"/>
	<path id="Vector" d="M250.51 120.03C250.51 120.03 245.01 146.07 245.77 147.77C246.53 149.47 249.57 156.05 255.43 155.62C255.43 155.62 257.43 153.95 261.12 151.71C261.12 151.71 263.38 149.73 263.38 145.84C263.38 142.43 258.08 121.15 258.08 121.15L250.51 120.01L250.51 120.03Z" fill="#F29B7C" fill-opacity="1.000000" fill-rule="nonzero"/>
	<path id="Vector" d="M249.56 123.51C249.56 123.51 245.68 120.87 243.22 117.45C240.76 114.03 236.98 110.72 235.82 109.58C233.54 107.34 235.64 106.74 237.52 107.68C239.66 108.76 244.16 111.66 245.66 111.1C247.18 110.52 247.3 105.45 246.74 102.04C246.18 98.62 244.22 88.99 245.48 87.79C246.36 86.96 247.56 87.61 247.94 88.73C248.32 89.87 250.38 102.37 251.16 101.81C251.51 101.55 252.1 84.72 252.1 84.72C252.1 84.72 252.33 82.36 254.38 82.86C255.11 83.04 255.32 84 255.32 85.13C255.32 86.27 255 100.79 255.32 101.81C255.32 101.81 256.55 101.44 257.6 97.65C258.6 93.99 260.53 95.19 261.1 95.75C261.68 96.31 260.54 99.29 260.35 101.19C260.16 103.08 259.97 104.19 260.35 104.28C260.73 104.37 263.96 99.41 265.1 98.97C265.84 98.66 267.3 99.36 266.92 100.97C266.54 102.58 264.61 105.44 264.51 106.47C264.51 106.47 263.37 122.87 258.83 123.72C258.83 123.72 253.66 125.21 249.55 123.51L249.56 123.51Z" fill="#F7B692" fill-opacity="1.000000" fill-rule="nonzero"/>
	<path id="Vector" d="M132.39 115.7C132.39 115.7 118.59 128.61 99.22 146.39C99.22 146.39 105.69 162.75 116.5 164.42C116.5 164.42 132.78 155.44 134.83 154.71C134.83 154.71 138.39 130.02 132.39 115.72L132.39 115.7Z" fill="#009CD2" fill-opacity="1.000000" fill-rule="nonzero"/>
	<path id="Vector" d="M101.98 150.43C103.16 152.65 106.25 156.46 108.33 158.52C110.33 160.51 112.47 162.06 114.19 162.85C116.56 163.95 118.09 163.57 117.27 160.85C115.22 154.03 109.01 149.26 105.35 147.48C102.97 146.33 101.16 145.95 101.16 145.95C100.36 146.45 100.81 148.24 101.96 150.43L101.98 150.43Z" fill="#066B84" fill-opacity="1.000000" fill-rule="nonzero"/>
	<path id="Vector" d="M90.85 182.34C90.85 182.34 105.72 169.7 114.17 162.87C115.52 161.77 116.74 161.24 117.26 160.86C115.21 154.05 109 149.28 105.34 147.5L103.67 146.77C103.67 146.77 89.86 163.1 85.79 167.07C85.79 167.07 89.42 179.69 90.83 182.34L90.85 182.34Z" fill="#ED8A6D" fill-opacity="1.000000" fill-rule="nonzero"/>
	<path id="Vector" d="M76.04 146.51C76.04 146.51 92.56 170.07 92.72 172.09C92.87 174.11 95.33 180.47 89.5 183.06C89.5 183.06 88.62 183.34 83.94 183.06C83.94 183.06 80.77 182.34 78.79 178.62C77.06 175.35 70.12 150.9 70.12 150.9L76.03 146.51L76.04 146.51Z" fill="#F29B7C" fill-opacity="1.000000" fill-rule="nonzero"/>
	<path id="Vector" d="M78.73 149.35C78.73 149.35 80.9 144.81 81.71 140.33C82.75 134.56 82.54 134.68 83.06 133.03C84.09 129.73 81.54 129.5 80.2 131.37C78.7 133.5 77.41 137.77 75.68 137.99C73.95 138.22 71.67 130.96 70.47 127.43C69.27 123.87 68.04 119.83 66.23 119.33C64.97 118.98 64.14 120.21 64.37 121.49C64.58 122.76 67.04 129.57 66.32 129.37C65.88 129.25 60.87 120.67 60.87 120.67C60.87 120.67 59.14 118.41 57.44 119.92C56.83 120.47 56.99 121.9 57.56 122.99C58.14 124.08 61.94 130.46 62.16 131.6C62.16 131.6 60.8 131.87 57.87 128.78C55.04 125.79 53.8 127.93 53.55 128.76C53.3 129.6 55.63 132.07 56.79 133.77C57.94 135.49 58.94 136.23 58.63 136.52C58.31 136.81 52.69 133.71 51.37 133.86C50.5 133.96 49.47 135.37 50.64 136.72C51.82 138.07 55.13 139.8 55.76 140.76C55.76 140.76 66.26 155.56 71.05 154.06C71.05 154.06 75.68 153.13 78.75 149.4L78.73 149.35Z" fill="#F7B692" fill-opacity="1.000000" fill-rule="nonzero"/>
	<path id="Vector" d="M150.07 475.14C150.07 475.14 148.26 487.64 150.5 494.24C150.5 494.24 150.54 505.98 150.07 509.18C150.07 509.18 143.39 513.25 132.64 509.55L132.64 507.51C132.64 507.51 138.77 494.73 139.24 491.3C139.79 487.35 139.32 475.18 139.3 473.15C139.3 473.15 138.89 472.04 139.61 471.11C139.61 471.11 146.3 473.79 150.68 472.13C150.68 472.13 151.47 472.68 150.06 475.14L150.07 475.14Z" fill="#0C0F10" fill-opacity="1.000000" fill-rule="nonzero"/>
	<path id="Vector" d="M185.54 475.14C185.54 475.14 187.35 487.64 185.12 494.24C185.12 494.24 185.07 505.98 185.54 509.18C185.54 509.18 192.23 513.25 202.98 509.55L202.98 507.51C202.98 507.51 196.84 494.73 196.37 491.3C195.82 487.35 196.3 475.18 196.31 473.15C196.31 473.15 196.72 472.04 196.01 471.11C196.01 471.11 189.31 473.79 184.94 472.13C184.94 472.13 184.15 472.68 185.56 475.14L185.54 475.14Z" fill="#0C0F10" fill-opacity="1.000000" fill-rule="nonzero"/>
	<path id="Vector" d="M137.89 224.28C137.89 224.28 118.68 245.87 136.13 474.61C136.13 474.61 136.13 480.62 150.91 478.62C152.03 478.46 160.35 416.23 167.5 316.42C167.56 315.59 169.52 314.86 169.71 316.59C171.77 336.91 183.66 476.05 184.71 477.05C186.79 479.04 192.24 480.97 198.6 477.05C198.6 477.05 216.34 243 197.63 224.28L137.89 224.28Z" fill="#175297" fill-opacity="1.000000" fill-rule="nonzero"/>
	<path id="Vector" d="M186.71 112.45C185.42 112.13 183.19 111.95 183.19 111.95C177.1 98.69 178.18 69.37 178.18 69.37C178.18 69.37 158.2 82.76 158.03 85.82C157.34 98.06 155.93 109.42 154.14 113.56C153.96 114 151.68 114.5 150.44 115.02L150.44 141.06L186.7 135.55L186.7 112.45L186.71 112.45Z" fill="#EE794E" fill-opacity="1.000000" fill-rule="nonzero"/>
	<path id="Vector" d="M158.04 85.82C157.75 90.97 157.34 95.95 156.83 100.3C162.13 104.8 172.77 112.21 181.87 108.46C179.71 101.75 178.77 92.74 178.39 85.07L161.37 81.88C159.42 83.6 158.1 85.04 158.06 85.82L158.04 85.82Z" fill="#E05E35" fill-opacity="1.000000" fill-rule="nonzero"/>
	<path id="Vector" d="M188.63 64.31C188.88 56.89 188.5 51.16 188.5 51.16C187.84 39.46 177.83 37.29 167.88 37.56C157.95 37.29 147.94 39.46 147.26 51.16C147.26 51.16 146.9 56.87 147.14 64.31C141.34 59.93 140.63 67.17 142.52 72.59C144.16 77.24 146.93 77.78 148.34 77.75C148.51 78.82 148.69 79.88 148.9 80.91C150.51 88.82 160.06 98.72 165.35 100.93C165.35 100.93 165.98 101.26 167.88 101.26C169.78 101.26 170.42 100.93 170.42 100.93C175.7 98.74 185.26 88.82 186.86 80.91C187.08 79.88 187.26 78.82 187.43 77.75C188.84 77.78 191.28 78.12 192.92 73.49C194.81 68.07 194.43 59.93 188.63 64.31Z" fill="#F4A785" fill-opacity="1.000000" fill-rule="nonzero"/>
	<path id="Vector" d="M145.32 63.36C145.32 63.36 147.43 66.33 148.31 66.24C149.17 66.12 149.43 68.6 151.09 56.43C151.09 56.43 154.26 48.11 166.77 47.37C172.12 47.05 181.28 48.16 184.09 54.49C184.09 54.49 185 64.88 186.06 66.9C187.41 69.46 189.2 63.53 189.2 63.53C189.2 63.53 194.03 30.62 167.87 31.67C167.87 31.67 139.68 29.8 145.32 63.36Z" fill="#211713" fill-opacity="1.000000" fill-rule="nonzero"/>
	<path id="Vector" d="M184.09 111.65C175.84 109.86 167.88 108.49 167.88 108.49C167.88 108.49 159.79 109.83 151.09 111.57L151.09 135.55L184.09 135.55L184.09 111.65Z" fill="#EE794E" fill-opacity="1.000000" fill-rule="nonzero"/>
	<path id="Vector" d="M202.08 229.76C200.93 225.07 199.41 219.69 197.9 212.31C194.53 195.76 200.24 175.2 200.24 175.2C206.26 171.05 208.97 165.89 208.93 155.65C208.9 150.67 201.34 115.72 201.34 115.72C199.65 114.37 189.66 112.33 182.69 110.8C179.09 119.86 171.68 128.29 168.57 128.29C165.45 128.29 158.67 119.8 155.04 110.8C149.46 111.37 134.03 114.38 132.39 115.7C132.39 115.7 126.2 149.57 126.78 154.52C127.7 162.25 129.51 171.07 135.52 175.21C135.52 175.21 141.23 195.77 137.86 212.33C136.36 219.71 134.84 225.08 133.69 229.77C133.69 229.77 133.41 231.54 134.87 232.31C142.16 236.23 177.42 243.27 201.41 232.6C202.34 232.19 202.08 229.77 202.08 229.77L202.08 229.76Z" fill="#009CD2" fill-opacity="1.000000" fill-rule="nonzero"/>
	<path id="Vector" d="M167.76 31.99C167.76 31.99 166.32 46.79 166.78 47.37C167.23 47.95 167.84 48.01 168.58 47.61C168.58 47.61 168.64 33.02 167.76 31.99Z" fill="#F4A785" fill-opacity="1.000000" fill-rule="nonzero"/>
	<path id="Vector" d="M142.11 69.74C142.02 68.87 141.95 68 141.87 67.15L141.67 64.57C141.6 63.71 141.55 62.84 141.49 61.98L141.34 59.39L141.34 59.58L141.22 58.07C141.19 57.82 141.19 57.6 141.17 57.37L141.13 56.69L141.05 55.32L141.02 54.64L141.02 54.31L140.99 54.14L140.99 54.09L140.99 53.21L140.96 52.88C140.96 52.76 140.96 52.62 140.96 52.49C140.98 51.95 140.99 51.41 141.05 50.91L141.13 50.15L141.23 49.39C141.29 48.87 141.42 48.39 141.51 47.87C141.93 45.86 142.63 43.91 143.54 42.05C143.75 41.58 144.03 41.14 144.27 40.69C144.54 40.25 144.8 39.81 145.09 39.37C145.38 38.94 145.67 38.51 145.99 38.1C146.14 37.89 146.29 37.69 146.46 37.48L146.96 36.89C148.31 35.31 149.86 33.91 151.54 32.71C153.25 31.51 155.08 30.53 157.03 29.77C158.97 29.01 161 28.51 163.07 28.25C163.33 28.22 163.59 28.19 163.84 28.16L164.62 28.1C165.14 28.05 165.65 28.05 166.17 28.05C166.44 28.05 166.65 28.05 166.88 28.05L168.93 28.05L170.3 28.08L171.74 28.08L172.42 28.13L172.79 28.13L173.2 28.17L174.02 28.25C174.28 28.28 174.53 28.33 174.79 28.36C176.84 28.64 178.86 29.18 180.78 29.95C182.69 30.72 184.51 31.73 186.18 32.94C187.84 34.16 189.37 35.55 190.68 37.12C192 38.68 193.14 40.4 194.03 42.24C194.93 44.07 195.61 46 196.04 47.98C196.45 49.95 196.64 51.98 196.57 53.99L196.45 56.72L196.42 57.41L196.42 57.95L196.39 58L196.39 58.16L196.26 59.53L196.26 59.44C196.23 60.31 196.19 61.17 196.14 62.02L196.02 64.6C195.98 65.47 195.93 66.33 195.89 67.18C195.84 68.05 195.79 68.92 195.73 69.77L192.64 69.77C192.56 68.92 192.51 68.07 192.45 67.2C192.39 66.33 192.33 65.47 192.29 64.62L192.13 62.04C192.09 61.17 192.03 60.31 192 59.46L192 57.8C192 57.8 191.98 57.94 192 57.86L192 57.42L191.95 56.74L191.83 54.02C191.74 52.39 191.48 50.78 191.03 49.24C190.59 47.69 189.95 46.21 189.16 44.82C188.38 43.42 187.41 42.14 186.33 40.97C185.26 39.81 184.04 38.79 182.72 37.92C181.41 37.04 180 36.33 178.53 35.8C178.16 35.64 177.78 35.55 177.42 35.42C177.04 35.3 176.66 35.2 176.3 35.11C175.54 34.95 174.76 34.79 173.99 34.72C173.79 34.7 173.59 34.67 173.41 34.66L172.88 34.63L172.61 34.63L172.55 34.6L166.93 34.6C166.7 34.61 166.46 34.61 166.27 34.63C165.88 34.64 165.5 34.64 165.1 34.69L164.53 34.73C164.33 34.75 164.15 34.78 163.95 34.81C162.42 35.01 160.9 35.4 159.46 35.96C158.01 36.53 156.62 37.24 155.34 38.14C154.06 39.02 152.87 40.03 151.82 41.19C150.75 42.34 149.83 43.6 149.07 44.97L148.78 45.48C148.69 45.65 148.61 45.83 148.52 46.02C148.34 46.37 148.19 46.73 148.04 47.09C147.87 47.46 147.75 47.82 147.6 48.19C147.47 48.57 147.34 48.93 147.23 49.31C147.13 49.69 147.02 50.07 146.93 50.47L146.79 51.04L146.68 51.63C146.61 52.04 146.56 52.39 146.52 52.77C146.52 52.86 146.49 52.96 146.49 53.06L146.46 53.4L146.41 54.08L146.27 56.74L146.23 57.42C146.23 57.65 146.2 57.89 146.2 58.07L146.15 59.29L146.15 59.47L145.97 62.05C145.91 62.92 145.83 63.78 145.76 64.63L145.53 67.22C145.44 68.08 145.36 68.93 145.26 69.8L142.16 69.8L142.11 69.74Z" fill="#E7EEF7" fill-opacity="1.000000" fill-rule="nonzero"/>
	<path id="Vector" d="M144.76 68.14C144.7 67.35 144.65 66.56 144.6 65.77L144.48 63.4C144.44 62.61 144.41 61.82 144.38 61.03L144.27 58.67L144.27 58.79C144.24 58.35 144.21 57.89 144.18 57.45C144.16 57.22 144.16 57.03 144.15 56.81L144.12 56.19L144.03 53.65L144.03 52.71C144.03 52.61 144.03 52.49 144.03 52.36C144.06 51.89 144.07 51.42 144.12 50.98L144.19 50.3L144.3 49.63C144.36 49.17 144.47 48.73 144.56 48.29C144.94 46.52 145.58 44.79 146.4 43.16C147.2 41.52 148.25 40 149.43 38.62C150.63 37.22 152 35.99 153.5 34.95C155.01 33.88 156.63 33.02 158.35 32.35C160.06 31.68 161.85 31.24 163.68 31.01C163.9 30.98 164.13 30.95 164.36 30.94L165.04 30.89C165.5 30.85 165.95 30.85 166.41 30.85C166.65 30.85 166.85 30.85 167.05 30.85L171.47 30.85C171.89 30.88 172.27 30.88 172.77 30.94L173.49 31C173.71 31.03 173.94 31.06 174.17 31.09C175.98 31.33 177.77 31.8 179.45 32.49C181.16 33.17 182.76 34.04 184.25 35.1C185.73 36.16 187.08 37.39 188.25 38.79C189.42 40.17 190.45 41.67 191.25 43.3C192.06 44.92 192.68 46.62 193.06 48.39C193.44 50.15 193.64 51.94 193.59 53.73L193.52 56.24L193.52 56.86L193.49 57.18L193.49 57.54L193.38 58.79L193.38 58.73L193.23 63.46C193.2 64.25 193.17 65.04 193.14 65.83L193.05 68.2L191.04 68.2L190.92 65.85C190.87 65.06 190.84 64.27 190.81 63.48L190.62 58.74L190.62 57.24C190.62 57.24 190.62 57.31 190.62 57.27L190.62 56.86L190.59 56.24L190.51 53.75C190.45 52.2 190.22 50.68 189.81 49.19C189.42 47.72 188.81 46.29 188.08 44.97C187.35 43.63 186.44 42.4 185.42 41.28C184.4 40.15 183.24 39.17 181.99 38.33C180.75 37.48 179.39 36.78 177.98 36.25C176.57 35.72 175.11 35.37 173.61 35.2L173.05 35.14L172.51 35.11C172.2 35.08 171.73 35.08 171.33 35.08L167.02 35.08C166.81 35.08 166.59 35.08 166.41 35.1C166.03 35.1 165.67 35.1 165.29 35.14L164.72 35.19L164.16 35.27C162.67 35.46 161.22 35.83 159.84 36.39C158.45 36.94 157.1 37.62 155.89 38.48C154.66 39.33 153.52 40.32 152.52 41.45C151.51 42.55 150.62 43.78 149.9 45.11C149.72 45.44 149.54 45.77 149.39 46.11C149.22 46.44 149.07 46.79 148.93 47.14C148.78 47.49 148.66 47.84 148.52 48.2C148.42 48.57 148.28 48.92 148.19 49.28C148.1 49.65 147.99 50.01 147.91 50.39L147.79 50.95L147.7 51.51C147.63 51.89 147.61 52.26 147.57 52.61C147.57 52.7 147.53 52.79 147.53 52.88L147.53 53.2L147.47 53.82L147.38 56.28L147.35 56.9C147.35 57.12 147.34 57.33 147.34 57.51C147.34 57.89 147.34 58.29 147.34 58.67L147.34 58.79L147.22 61.16C147.17 61.95 147.14 62.74 147.08 63.52L146.93 65.89C146.87 66.68 146.82 67.47 146.75 68.26L144.74 68.26L144.76 68.14Z" fill="#364D60" fill-opacity="1.000000" fill-rule="nonzero"/>
	<path id="Vector" d="M184.57 60.32C181.76 59.65 171.01 60.93 168.61 60.99C166.21 60.93 155.46 59.65 152.65 60.32C149.84 60.99 148.92 63.87 148.92 63.87L168.61 64.86L188.31 63.87C188.31 63.87 187.37 60.99 184.57 60.32Z" fill="#213242" fill-opacity="1.000000" fill-rule="nonzero"/>
	<path id="Vector" d="M188.84 67.31C188.84 68.05 188.19 68.64 187.38 68.64L149.83 68.64C149.02 68.64 148.37 68.05 148.37 67.31L148.37 63.98C148.37 63.24 149.02 62.64 149.83 62.64L187.38 62.64C188.19 62.64 188.84 63.24 188.84 63.98L188.84 67.31Z" fill="#E7EEF7" fill-opacity="1.000000" fill-rule="nonzero"/>
	<path id="Vector" d="M152.18 63.87L185.04 63.87C187.4 63.87 189.31 65.78 189.31 68.14L189.31 75.49C189.31 77.85 187.4 79.76 185.04 79.76L152.18 79.76C149.83 79.76 147.91 77.85 147.91 75.49L147.91 68.14C147.91 65.78 149.83 63.87 152.18 63.87Z" fill="#6185A8" fill-opacity="1.000000" fill-rule="evenodd"/>
	<path id="Vector" d="M152.2 66L185.04 66C187.4 66 189.31 67.91 189.31 70.27L189.31 77.62C189.31 79.97 187.4 81.88 185.04 81.88L152.2 81.88C149.84 81.88 147.93 79.97 147.93 77.62L147.93 70.27C147.93 67.91 149.84 66 152.2 66Z" fill="#E7EEF7" fill-opacity="1.000000" fill-rule="nonzero"/>
	<path id="Vector" d="M187.67 76.87C187.67 78.76 185.91 80.29 183.74 80.29L153.49 80.29C151.32 80.29 149.55 78.76 149.55 76.87L149.55 71C149.55 69.11 151.32 67.58 153.49 67.58L183.74 67.58C185.91 67.58 187.67 69.11 187.67 71L187.67 76.87Z" fill="#213242" fill-opacity="1.000000" fill-rule="nonzero"/>
	<path id="Vector" d="M197.39 76.74C197.39 77.4 196.86 77.94 196.19 77.94C195.52 77.94 194.99 77.4 194.99 76.74L194.99 67.99C194.99 67.32 195.52 66.79 196.19 66.79C196.86 66.79 197.39 67.32 197.39 67.99L197.39 76.74Z" fill="#213242" fill-opacity="1.000000" fill-rule="nonzero"/>
	<path id="Vector" d="M191.57 65.26L194.64 65.26C195.38 65.26 195.98 65.85 195.98 66.59L195.98 78.15C195.98 78.88 195.38 79.48 194.64 79.48L191.57 79.48C190.83 79.48 190.24 78.89 190.24 78.15L190.24 66.59C190.24 65.86 190.83 65.26 191.57 65.26Z" fill="#364D60" fill-opacity="1.000000" fill-rule="nonzero"/>
	<path id="Vector" d="M139.78 76.74C139.78 77.4 140.31 77.94 140.98 77.94C141.64 77.94 142.17 77.4 142.17 76.74L142.17 67.99C142.17 67.32 141.64 66.79 140.98 66.79C140.31 66.79 139.78 67.32 139.78 67.99L139.78 76.74Z" fill="#213242" fill-opacity="1.000000" fill-rule="nonzero"/>
	<path id="Vector" d="M142.51 65.26L145.58 65.26C146.32 65.26 146.91 65.85 146.91 66.59L146.91 78.15C146.91 78.88 146.32 79.48 145.58 79.48L142.51 79.48C141.78 79.48 141.17 78.89 141.17 78.15L141.17 66.59C141.17 65.86 141.76 65.26 142.51 65.26Z" fill="#364D60" fill-opacity="1.000000" fill-rule="nonzero"/>
	<path id="Vector" d="M144.01 111.37C144.01 111.37 150.83 119.74 152.04 129.03C153.26 138.33 153.72 142.72 155.34 142.31C156.96 141.9 158.13 133.65 158.59 128.67C159.06 123.69 158.91 109.37 155.17 101.26L144 111.37L144.01 111.37Z" fill="#211713" fill-opacity="1.000000" fill-rule="nonzero"/>
	<g opacity="0.300000" style="mix-blend-mode:multiply">
		<path id="Vector" d="M166.84 71.86C74.9 71.86 0.37 64.59 0.37 55.6L0.37 170.34C0.37 179.33 74.9 186.62 166.84 186.62C258.77 186.62 333.3 179.33 333.3 170.34L333.3 55.6C333.3 64.59 258.77 71.86 166.84 71.86Z" fill="#00A6AF" fill-opacity="1.000000" fill-rule="nonzero"/>
		<path id="Vector" d="M0.37 55.6L0.37 170.34C0.37 179.33 74.9 186.62 166.84 186.62C258.77 186.62 333.3 179.33 333.3 170.34L333.3 55.6C333.3 64.59 258.77 71.86 166.84 71.86C74.9 71.86 0.37 64.59 0.37 55.6Z" stroke="#00A6AF" stroke-opacity="1.000000" stroke-width="0.759264" stroke-linejoin="round"/>
	</g>
	<path id="Vector" d="M0.37 55.6L0.37 170.34C0.37 179.33 74.9 186.62 166.84 186.62C258.77 186.62 333.3 179.33 333.3 170.34L333.3 55.6C333.3 64.59 258.77 71.86 166.84 71.86C74.9 71.86 0.37 64.59 0.37 55.6Z" stroke="#00A6AF" stroke-opacity="1.000000" stroke-width="0.759264"/>
	<path id="Vector" d="M112.47 124.68L108.02 127.44C105.26 118.62 97.01 112.19 87.3 112.19C77.58 112.19 70.04 118.07 66.96 126.3L62.38 123.99C61.15 127.06 60.46 130.42 60.46 133.91C60.46 148.7 72.5 160.74 87.3 160.74C102.09 160.74 114.13 148.7 114.13 133.91C114.13 130.66 113.55 127.55 112.49 124.66L112.47 124.68ZM87.28 113.26C98.67 113.26 107.95 122.54 107.95 133.92C107.95 145.31 98.67 154.59 87.28 154.59C75.89 154.59 66.61 145.31 66.61 133.92C66.61 122.54 75.89 113.26 87.28 113.26ZM65.96 129.76C66.01 129.49 66.07 129.22 66.14 128.94C66.08 129.22 66.02 129.49 65.96 129.76Z" fill="#00A6AF" fill-opacity="1.000000" fill-rule="nonzero"/>
	<path id="Vector" d="M87.3 96.72C66.75 96.72 50.09 113.38 50.09 133.92C50.09 154.47 66.75 171.13 87.3 171.13C107.84 171.13 124.5 154.47 124.5 133.92C124.5 113.38 107.84 96.72 87.3 96.72ZM87.3 166.39C69.36 166.39 54.83 151.86 54.83 133.92C54.83 115.99 69.36 101.46 87.3 101.46C105.23 101.46 119.76 115.99 119.76 133.92C119.76 151.86 105.23 166.39 87.3 166.39Z" fill="#00A6AF" fill-opacity="1.000000" fill-rule="nonzero"/>
	<path id="Vector" d="M87.3 104.12C70.87 104.12 57.49 117.49 57.49 133.92C57.49 150.36 70.87 163.73 87.3 163.73C103.73 163.73 117.1 150.36 117.1 133.92C117.1 117.49 103.73 104.12 87.3 104.12ZM87.3 162.29C71.65 162.29 58.93 149.57 58.93 133.92C58.93 118.28 71.65 105.56 87.3 105.56C102.94 105.56 115.66 118.28 115.66 133.92C115.66 149.57 102.94 162.29 87.3 162.29Z" fill="#00A6AF" fill-opacity="1.000000" fill-rule="nonzero"/>
	<path id="Vector" d="M88.72 145.8L89.44 151.84C91.09 151.65 92.72 151.22 94.25 150.57L91.9 144.95C90.88 145.37 89.8 145.66 88.71 145.78L88.72 145.8Z" fill="#00A6AF" fill-opacity="1.000000" fill-rule="nonzero"/>
	<path id="Vector" d="M93.14 144.34L96.13 149.64C97.59 148.82 98.91 147.8 100.1 146.62L95.77 142.32C94.99 143.11 94.1 143.78 93.14 144.33L93.14 144.34Z" fill="#00A6AF" fill-opacity="1.000000" fill-rule="nonzero"/>
	<path id="Vector" d="M87.3 145.88C86.19 145.88 85.08 145.72 84.03 145.42L82.37 151.28C83.97 151.74 85.64 151.97 87.31 151.97L87.4 151.97L87.36 145.88L87.31 145.88L87.3 145.88Z" fill="#00A6AF" fill-opacity="1.000000" fill-rule="nonzero"/>
	<path id="Vector" d="M96.68 141.32L101.46 145.09C102.5 143.76 103.35 142.32 103.97 140.79L98.34 138.48C97.91 139.5 97.36 140.45 96.66 141.34L96.68 141.32Z" fill="#00A6AF" fill-opacity="1.000000" fill-rule="nonzero"/>
	<path id="Vector" d="M75.42 135.32L69.38 136.02C69.57 137.67 69.98 139.3 70.64 140.85L76.26 138.51C75.83 137.49 75.56 136.41 75.42 135.32Z" fill="#00A6AF" fill-opacity="1.000000" fill-rule="nonzero"/>
	<path id="Vector" d="M76.85 139.74L71.53 142.72C72.35 144.17 73.36 145.51 74.54 146.68L78.84 142.37C78.05 141.58 77.38 140.7 76.85 139.74Z" fill="#00A6AF" fill-opacity="1.000000" fill-rule="nonzero"/>
	<path id="Vector" d="M79.87 143.29L76.09 148.06C77.39 149.1 78.85 149.95 80.39 150.58L82.71 144.96C81.69 144.54 80.74 143.98 79.87 143.29Z" fill="#00A6AF" fill-opacity="1.000000" fill-rule="nonzero"/>
	<path id="Vector" d="M90.53 122.43L92.18 116.57C90.61 116.13 88.95 115.9 87.26 115.9L87.26 121.99L87.31 121.99C88.4 121.99 89.5 122.14 90.53 122.43Z" fill="#00A6AF" fill-opacity="1.000000" fill-rule="nonzero"/>
	<path id="Vector" d="M81.45 123.49L78.47 118.18C77.01 119 75.68 120 74.51 121.18L78.82 125.48C79.61 124.69 80.49 124.02 81.45 123.49Z" fill="#00A6AF" fill-opacity="1.000000" fill-rule="nonzero"/>
	<path id="Vector" d="M85.88 122.06L85.17 116.02C83.51 116.22 81.89 116.64 80.34 117.28L82.68 122.9C83.7 122.47 84.77 122.2 85.87 122.06L85.88 122.06Z" fill="#00A6AF" fill-opacity="1.000000" fill-rule="nonzero"/>
	<path id="Vector" d="M77.91 126.53L73.14 122.75C72.11 124.05 71.26 125.51 70.62 127.05L76.26 129.37C76.68 128.35 77.24 127.4 77.93 126.53L77.91 126.53Z" fill="#00A6AF" fill-opacity="1.000000" fill-rule="nonzero"/>
	<path id="Vector" d="M75.34 133.92C75.34 132.82 75.5 131.72 75.8 130.66L69.94 129C69.48 130.6 69.26 132.25 69.26 133.92L75.34 133.92Z" fill="#00A6AF" fill-opacity="1.000000" fill-rule="nonzero"/>
	<path id="Vector" d="M99.23 133.92C99.23 135.02 99.08 136.11 98.79 137.16L104.65 138.8C105.09 137.22 105.32 135.58 105.32 133.92L105.32 133.86L99.23 133.86L99.23 133.92Z" fill="#00A6AF" fill-opacity="1.000000" fill-rule="nonzero"/>
	<path id="Vector" d="M99.15 132.51L105.2 131.8C105 130.14 104.58 128.52 103.94 126.97L98.32 129.32C98.74 130.34 99.03 131.42 99.15 132.51Z" fill="#00A6AF" fill-opacity="1.000000" fill-rule="nonzero"/>
	<path id="Vector" d="M97.71 128.09L103.01 125.12C102.19 123.66 101.18 122.34 100.01 121.15L95.71 125.47C96.5 126.24 97.17 127.14 97.71 128.09Z" fill="#00A6AF" fill-opacity="1.000000" fill-rule="nonzero"/>
	<path id="Vector" d="M94.69 124.54L98.46 119.76C97.15 118.72 95.69 117.87 94.16 117.24L91.84 122.87C92.85 123.3 93.81 123.86 94.69 124.54Z" fill="#00A6AF" fill-opacity="1.000000" fill-rule="nonzero"/>
	<path id="Vector" d="M87.3 144.42C93.08 144.42 97.77 139.71 97.77 133.94C97.77 128.17 93.07 123.46 87.3 123.46C81.52 123.46 76.82 128.17 76.82 133.94C76.82 139.71 81.52 144.42 87.3 144.42ZM87.3 125.48C91.96 125.48 95.75 129.28 95.75 133.94C95.75 138.6 91.96 142.4 87.3 142.4C82.63 142.4 78.84 138.6 78.84 133.94C78.84 129.28 82.63 125.48 87.3 125.48Z" fill="#00A6AF" fill-opacity="1.000000" fill-rule="nonzero"/>
	<path id="Vector" d="M259.16 154.83L249.93 154.83L245.31 146.85L249.93 138.86L259.16 138.86L263.78 146.85L259.16 154.83ZM250.16 154.44L258.93 154.44L263.32 146.85L258.93 139.25L250.16 139.25L245.77 146.85L250.16 154.44Z" fill="#00A6AF" fill-opacity="1.000000" fill-rule="nonzero"/>
	<path id="Vector" d="M259.16 137.95L249.93 137.95L245.31 129.96L249.93 121.97L259.16 121.97L263.78 129.96L259.16 137.95ZM250.16 137.55L258.93 137.55L263.32 129.96L258.93 122.37L250.16 122.37L245.77 129.96L250.16 137.55Z" fill="#00A6AF" fill-opacity="1.000000" fill-rule="nonzero"/>
	<path id="Vector" d="M259.16 120.93L249.93 120.93L245.31 112.94L249.93 104.95L259.16 104.95L263.78 112.94L259.16 120.93ZM250.16 120.53L258.93 120.53L263.32 112.94L258.93 105.35L250.16 105.35L245.77 112.94L250.16 120.53Z" fill="#00A6AF" fill-opacity="1.000000" fill-rule="nonzero"/>
	<path id="Vector" d="M250.05 103.64L245.56 95.84L250.05 88.05L259.06 88.05L263.55 95.84L259.06 103.64L250.05 103.64Z" fill="#00A6AF" fill-opacity="1.000000" fill-rule="nonzero"/>
	<path id="Vector" d="M279.43 154.64L274.92 146.83L279.43 139.04L288.44 139.04L292.93 146.83L288.44 154.64L279.43 154.64Z" fill="#00A6AF" fill-opacity="1.000000" fill-rule="nonzero"/>
	<path id="Vector" d="M288.54 137.95L279.31 137.95L274.7 129.96L279.31 121.97L288.54 121.97L293.16 129.96L288.54 137.95ZM279.54 137.55L288.32 137.55L292.71 129.96L288.32 122.37L279.54 122.37L275.15 129.96L279.54 137.55Z" fill="#00A6AF" fill-opacity="1.000000" fill-rule="nonzero"/>
	<path id="Vector" d="M279.43 120.73L274.92 112.92L279.43 105.13L288.44 105.13L292.93 112.92L288.44 120.73L279.43 120.73Z" fill="#00A6AF" fill-opacity="1.000000" fill-rule="nonzero"/>
	<path id="Vector" d="M279.43 103.64L274.92 95.84L279.43 88.05L288.44 88.05L292.93 95.84L288.44 103.64L279.43 103.64Z" fill="#00A6AF" fill-opacity="1.000000" fill-rule="nonzero"/>
	<path id="Vector" d="M264.75 163.08L260.24 155.28L264.75 147.49L273.74 147.49L278.25 155.28L273.74 163.08L264.75 163.08Z" fill="#00A6AF" fill-opacity="1.000000" fill-rule="nonzero"/>
	<path id="Vector" d="M273.86 146.45L264.63 146.45L260.01 138.47L264.63 130.48L273.86 130.48L278.48 138.47L273.86 146.45ZM264.86 146.06L273.63 146.06L278.02 138.47L273.63 130.86L264.86 130.86L260.47 138.47L264.86 146.06Z" fill="#00A6AF" fill-opacity="1.000000" fill-rule="nonzero"/>
	<path id="Vector" d="M264.75 128.91L260.24 121.12L264.75 113.32L273.74 113.32L278.25 121.12L273.74 128.91L264.75 128.91Z" fill="#00A6AF" fill-opacity="1.000000" fill-rule="nonzero"/>
	<path id="Vector" d="M273.86 112.48L264.63 112.48L260.01 104.5L264.63 96.51L273.86 96.51L278.48 104.5L273.86 112.48ZM264.86 112.09L273.63 112.09L278.02 104.5L273.63 96.9L264.86 96.9L260.47 104.5L264.86 112.09Z" fill="#00A6AF" fill-opacity="1.000000" fill-rule="nonzero"/>
	<path id="Vector" d="M273.86 95.4L264.63 95.4L260.01 87.41L264.63 79.42L273.86 79.42L278.48 87.41L273.86 95.4ZM264.86 95L273.63 95L278.02 87.41L273.63 79.82L264.86 79.82L260.47 87.41L264.86 95Z" fill="#00A6AF" fill-opacity="1.000000" fill-rule="nonzero"/>
	<path id="Vector" d="M148.63 166.62L129.88 166.62L129.88 151.02L148.63 151.02L148.63 166.62ZM130.27 166.21L148.22 166.21L148.22 151.42L130.27 151.42L130.27 166.21Z" fill="#00A6AF" fill-opacity="1.000000" fill-rule="nonzero"/>
	<path id="Vector" d="M130.07 158.81L148.43 158.81L148.43 166.41L130.07 166.41L130.07 158.81Z" fill="#00A6AF" fill-opacity="1.000000" fill-rule="evenodd"/>
	<path id="Vector" d="M168.99 166.62L150.24 166.62L150.24 151.02L168.99 151.02L168.99 166.62ZM150.63 166.21L168.58 166.21L168.58 151.42L150.63 151.42L150.63 166.21Z" fill="#00A6AF" fill-opacity="1.000000" fill-rule="nonzero"/>
	<path id="Vector" d="M150.44 154.11L168.79 154.11L168.79 166.41L150.44 166.41L150.44 154.11Z" fill="#00A6AF" fill-opacity="1.000000" fill-rule="evenodd"/>
	<path id="Vector" d="M189.37 166.62L170.62 166.62L170.62 151.02L189.37 151.02L189.37 166.62ZM171.01 166.21L188.96 166.21L188.96 151.42L171.01 151.42L171.01 166.21Z" fill="#00A6AF" fill-opacity="1.000000" fill-rule="nonzero"/>
	<path id="Vector" d="M170.81 161.77L189.17 161.77L189.17 166.42L170.81 166.42L170.81 161.77Z" fill="#00A6AF" fill-opacity="1.000000" fill-rule="evenodd"/>
	<path id="Vector" d="M209.73 166.62L190.98 166.62L190.98 151.02L209.73 151.02L209.73 166.62ZM191.37 166.21L209.32 166.21L209.32 151.42L191.37 151.42L191.37 166.21Z" fill="#00A6AF" fill-opacity="1.000000" fill-rule="nonzero"/>
	<path id="Vector" d="M191.18 157.33L209.54 157.33L209.54 166.41L191.18 166.41L191.18 157.33Z" fill="#00A6AF" fill-opacity="1.000000" fill-rule="evenodd"/>
	<path id="Vector" d="M230.11 166.62L211.36 166.62L211.36 151.02L230.11 151.02L230.11 166.62ZM211.75 166.21L229.7 166.21L229.7 151.42L211.75 151.42L211.75 166.21Z" fill="#00A6AF" fill-opacity="1.000000" fill-rule="nonzero"/>
	<path id="Vector" d="M211.56 154.91L229.92 154.91L229.92 166.41L211.56 166.41L211.56 154.91Z" fill="#00A6AF" fill-opacity="1.000000" fill-rule="evenodd"/>
	<path id="Vector" d="M15.21 73.85L17.58 73.85L17.58 160.7L15.21 160.7L15.21 73.85Z" fill="#00A6AF" fill-opacity="1.000000" fill-rule="evenodd"/>
	<path id="Vector" d="M11.55 156.43L21.22 156.43L21.22 160.71L11.55 160.71L11.55 156.43Z" fill="#00A6AF" fill-opacity="1.000000" fill-rule="evenodd"/>
	<path id="Vector" d="M20.33 128.75L44.62 128.75L44.62 131.95L20.33 131.95L20.33 128.75Z" fill="#00A6AF" fill-opacity="1.000000" fill-rule="evenodd"/>
	<path id="Vector" d="M20.04 123.19L36.56 123.19L36.56 126.39L20.04 126.39L20.04 123.19Z" fill="#00A6AF" fill-opacity="1.000000" fill-rule="evenodd"/>
	<path id="Vector" d="M20.04 117.25L47.04 117.25L47.04 120.46L20.04 120.46L20.04 117.25Z" fill="#00A6AF" fill-opacity="1.000000" fill-rule="evenodd"/>
	<path id="Vector" d="M20.04 111.31L32.48 111.31L32.48 114.52L20.04 114.52L20.04 111.31Z" fill="#00A6AF" fill-opacity="1.000000" fill-rule="evenodd"/>
	<path id="Vector" d="M20.04 99.44L36.7 99.44L36.7 102.64L20.04 102.64L20.04 99.44Z" fill="#00A6AF" fill-opacity="1.000000" fill-rule="evenodd"/>
	<path id="Vector" d="M20.04 93.52L32.19 93.52L32.19 96.72L20.04 96.72L20.04 93.52Z" fill="#00A6AF" fill-opacity="1.000000" fill-rule="evenodd"/>
	<path id="Vector" d="M20.04 87.58L47.04 87.58L47.04 90.78L20.04 90.78L20.04 87.58Z" fill="#00A6AF" fill-opacity="1.000000" fill-rule="evenodd"/>
	<path id="Vector" d="M20.04 81.64L44.62 81.64L44.62 84.85L20.04 84.85L20.04 81.64Z" fill="#00A6AF" fill-opacity="1.000000" fill-rule="evenodd"/>
	<path id="Vector" d="M324.41 109.87L298.52 109.87L298.52 102.9L324.41 102.9L324.41 109.87ZM299.05 109.35L323.9 109.35L323.9 103.43L299.05 103.43L299.05 109.35Z" fill="#00A6AF" fill-opacity="1.000000" fill-rule="nonzero"/>
	<path id="Vector" d="M298.8 103.16L310.69 103.16L310.69 109.61L298.8 109.61L298.8 103.16Z" fill="#00A6AF" fill-opacity="1.000000" fill-rule="evenodd"/>
	<path id="Vector" d="M324.41 119.73L298.52 119.73L298.52 112.76L324.41 112.76L324.41 119.73ZM299.05 119.21L323.9 119.21L323.9 113.29L299.05 113.29L299.05 119.21Z" fill="#00A6AF" fill-opacity="1.000000" fill-rule="nonzero"/>
	<path id="Vector" d="M298.8 113.01L317.53 113.01L317.53 119.47L298.8 119.47L298.8 113.01Z" fill="#00A6AF" fill-opacity="1.000000" fill-rule="evenodd"/>
	<path id="Vector" d="M324.41 129.57L298.52 129.57L298.52 122.6L324.41 122.6L324.41 129.57ZM299.05 129.05L323.9 129.05L323.9 123.13L299.05 123.13L299.05 129.05Z" fill="#00A6AF" fill-opacity="1.000000" fill-rule="nonzero"/>
	<path id="Vector" d="M298.8 122.85L304.75 122.85L304.75 129.31L298.8 129.31L298.8 122.85Z" fill="#00A6AF" fill-opacity="1.000000" fill-rule="evenodd"/>
	<path id="Vector" d="M324.41 139.42L298.52 139.42L298.52 132.45L324.41 132.45L324.41 139.42ZM299.05 138.91L323.9 138.91L323.9 132.98L299.05 132.98L299.05 138.91Z" fill="#00A6AF" fill-opacity="1.000000" fill-rule="nonzero"/>
	<path id="Vector" d="M298.8 132.71L321.03 132.71L321.03 139.16L298.8 139.16L298.8 132.71Z" fill="#00A6AF" fill-opacity="1.000000" fill-rule="evenodd"/>
</svg>
