<svg width="725.009644" height="711.048584" viewBox="0 0 725.01 711.049" fill="none" xmlns="http://www.w3.org/2000/svg" xmlns:xlink="http://www.w3.org/1999/xlink">
	<desc>
			Created with Pixso.
	</desc>
	<defs/>
	<path id="Vector" d="M22.29 459.73C18.86 459.9 15.92 457.24 15.75 453.8C15.59 450.36 18.24 447.42 21.68 447.25C25.12 447.09 28.07 449.74 28.23 453.19C28.4 456.63 25.74 459.57 22.29 459.75L22.29 459.73Z" fill="#FFFFFF" fill-opacity="1.000000" fill-rule="nonzero"/>
	<path id="Vector" d="M284.17 703.41C283.07 703.46 282.05 703.24 281.05 702.73C279.57 701.97 278.47 700.67 277.95 699.08C277.44 697.49 277.58 695.8 278.35 694.31C279.36 692.34 281.38 691.03 283.62 690.91C284.73 690.86 285.75 691.08 286.74 691.59C288.23 692.36 289.32 693.66 289.83 695.25C290.35 696.85 290.2 698.54 289.45 700.01C288.44 702 286.42 703.29 284.17 703.41Z" fill="#FFFFFF" fill-opacity="1.000000" fill-rule="nonzero"/>
	<path id="Vector" d="M432.89 705.78C432.7 705.78 432.49 705.79 432.29 705.78C428.79 705.59 426.16 702.63 426.34 699.18C426.51 695.98 429.05 693.43 432.22 693.27C432.45 693.27 432.7 693.27 432.93 693.27C434.57 693.36 436.1 694.09 437.22 695.35C438.33 696.59 438.89 698.19 438.8 699.86C438.62 703.06 436.08 705.61 432.89 705.76L432.89 705.78Z" fill="#FFFFFF" fill-opacity="1.000000" fill-rule="nonzero"/>
	<path id="Vector" d="M670.9 538.38C669.06 538.47 667.43 537.84 666.15 536.55C663.7 534.09 663.71 530.12 666.16 527.68C667.25 526.61 668.69 525.98 670.24 525.9C672.07 525.81 673.71 526.44 675 527.74C677.44 530.18 677.42 534.15 674.98 536.58C673.89 537.67 672.44 538.31 670.9 538.38Z" fill="#FFFFFF" fill-opacity="1.000000" fill-rule="nonzero"/>
	<path id="Vector" d="M719.05 397.59C718.2 397.63 717.34 397.49 716.49 397.17C713.28 395.92 711.68 392.29 712.92 389.08C713.82 386.79 715.98 385.21 718.47 385.1C719.34 385.06 720.18 385.2 721 385.51C724.23 386.76 725.83 390.4 724.58 393.62C723.7 395.91 721.52 397.47 719.05 397.59Z" fill="#FFFFFF" fill-opacity="1.000000" fill-rule="nonzero"/>
	<path id="Vector" d="M705.86 249.35C702.41 249.52 699.47 246.85 699.3 243.42C699.14 239.98 701.8 237.04 705.24 236.86C708.67 236.69 711.62 239.36 711.8 242.82C711.96 246.25 709.31 249.18 705.88 249.35L705.87 249.35L705.86 249.35Z" fill="#FFFFFF" fill-opacity="1.000000" fill-rule="nonzero"/>
	<path id="Vector" d="M676.53 180.52C673.6 180.66 670.93 178.71 670.18 175.87C669.31 172.53 671.3 169.1 674.65 168.22C675.06 168.11 675.48 168.05 675.91 168.02C678.84 167.88 681.52 169.84 682.28 172.69C682.7 174.29 682.47 175.97 681.64 177.42C680.8 178.86 679.46 179.89 677.83 180.33C677.4 180.44 676.95 180.5 676.51 180.53L676.53 180.52Z" fill="#FFFFFF" fill-opacity="1.000000" fill-rule="nonzero"/>
	<path id="Vector" d="M633.58 119.3C631.11 119.42 628.79 118.08 627.68 115.87C626.13 112.8 627.37 109.02 630.46 107.46C631.22 107.07 632.06 106.84 632.93 106.8C635.41 106.67 637.73 108.03 638.85 110.24C639.59 111.71 639.72 113.4 639.2 114.99C638.67 116.58 637.57 117.87 636.09 118.63C635.31 119.03 634.45 119.26 633.59 119.3L633.58 119.3Z" fill="#FFFFFF" fill-opacity="1.000000" fill-rule="nonzero"/>
	<path id="Vector" d="M578.83 68.35C576.77 68.45 574.92 67.63 573.63 66.03C571.48 63.35 571.91 59.39 574.6 57.23C575.63 56.41 576.86 55.93 578.17 55.87C580.23 55.77 582.09 56.6 583.4 58.2C584.43 59.48 584.89 61.11 584.71 62.76C584.54 64.43 583.73 65.91 582.42 66.95C581.37 67.8 580.13 68.27 578.81 68.34L578.83 68.35Z" fill="#FFFFFF" fill-opacity="1.000000" fill-rule="nonzero"/>
	<path id="Vector" d="M514.65 29.92C513.12 30 511.61 29.5 510.4 28.52C507.74 26.36 507.36 22.4 509.53 19.72C510.66 18.35 512.27 17.53 514.06 17.44C515.61 17.36 517.14 17.86 518.34 18.85C519.62 19.89 520.41 21.39 520.58 23.04C520.75 24.71 520.26 26.32 519.21 27.61C518.1 29 516.42 29.83 514.65 29.92Z" fill="#FFFFFF" fill-opacity="1.000000" fill-rule="nonzero"/>
	<path id="Vector" d="M223.84 25.33C220.64 25.49 217.85 23.21 217.35 20.03C216.83 16.63 219.18 13.42 222.6 12.88C222.79 12.85 223.02 12.83 223.24 12.82C226.43 12.66 229.19 14.92 229.68 18.08C230.22 21.52 227.87 24.73 224.46 25.27C224.3 25.3 224.06 25.32 223.83 25.33L223.84 25.33Z" fill="#FFFFFF" fill-opacity="1.000000" fill-rule="nonzero"/>
	<path id="Vector" d="M102.23 110.88C99.97 110.99 97.82 109.89 96.61 108.02C94.75 105.14 95.6 101.24 98.49 99.37C99.4 98.78 100.45 98.43 101.52 98.38C103.75 98.27 105.89 99.37 107.09 101.24C108.97 104.15 108.13 108.04 105.24 109.93C104.34 110.51 103.29 110.84 102.21 110.89L102.23 110.88Z" fill="#FFFFFF" fill-opacity="1.000000" fill-rule="nonzero"/>
	<path id="Vector" d="M180.5 661.7C178.72 661.79 177.04 661.14 175.78 659.87C174.61 658.69 173.97 657.11 173.97 655.43C173.97 653.76 174.62 652.19 175.81 651.01C176.74 650.08 177.93 649.48 179.23 649.27C179.47 649.23 179.7 649.21 179.93 649.19C181.71 649.1 183.38 649.76 184.64 651.04C185.83 652.24 186.46 653.77 186.46 655.47C186.46 657.14 185.81 658.71 184.62 659.88C183.67 660.82 182.49 661.43 181.19 661.62C180.96 661.66 180.73 661.69 180.5 661.7Z" fill="#FFFFFF" fill-opacity="1.000000" fill-rule="nonzero"/>
	<path id="Vector" d="M248.32 693.18C247 693.25 245.72 692.9 244.61 692.18C241.72 690.3 240.91 686.42 242.8 683.52C243.76 682.05 245.32 681.03 247.08 680.77C247.28 680.73 247.51 680.7 247.73 680.7C249.05 680.64 250.33 680.98 251.44 681.71C254.32 683.6 255.14 687.49 253.26 690.38C252.26 691.89 250.79 692.85 248.98 693.13C248.77 693.17 248.54 693.18 248.32 693.19L248.32 693.18Z" fill="#FFFFFF" fill-opacity="1.000000" fill-rule="nonzero"/>
	<path id="Vector" d="M395.97 711.03C395.53 711.06 395.1 711.03 394.65 710.95C393 710.69 391.55 709.8 390.58 708.44C389.59 707.08 389.21 705.43 389.47 703.79C389.9 701.1 391.99 699.01 394.68 698.6C394.87 698.58 395.09 698.55 395.29 698.54C395.74 698.51 396.19 698.54 396.64 698.62C400.03 699.17 402.36 702.38 401.81 705.79C401.37 708.48 399.29 710.56 396.61 710.98C396.39 711.02 396.19 711.03 395.97 711.04L395.97 711.03Z" fill="#FFFFFF" fill-opacity="1.000000" fill-rule="nonzero"/>
	<path id="Vector" d="M469.39 696.62C465.87 696.8 462.93 694.12 462.76 690.68C462.59 687.47 464.84 684.67 467.99 684.19C468.21 684.15 468.45 684.14 468.7 684.12C470.33 684.05 471.93 684.61 473.18 685.74C474.42 686.87 475.15 688.39 475.22 690.06C475.38 693.26 473.12 696.07 469.96 696.55C469.8 696.58 469.62 696.6 469.42 696.62L469.39 696.62Z" fill="#FFFFFF" fill-opacity="1.000000" fill-rule="nonzero"/>
	<path id="Vector" d="M650.11 569.38C648.09 569.48 646.16 568.61 644.91 567.06C642.74 564.37 643.17 560.41 645.86 558.24C646.7 557.57 647.7 557.12 648.77 556.95C649 556.92 649.21 556.9 649.44 556.89C651.45 556.78 653.4 557.65 654.64 559.21C655.69 560.5 656.16 562.14 655.98 563.81C655.8 565.47 655 566.96 653.69 568.01C652.83 568.7 651.83 569.16 650.76 569.31C650.54 569.35 650.32 569.38 650.11 569.38Z" fill="#FFFFFF" fill-opacity="1.000000" fill-rule="nonzero"/>
	<path id="Vector" d="M688.42 505.16C686.87 505.24 685.41 504.75 684.2 503.76C681.52 501.58 681.11 497.62 683.29 494.95C684.25 493.77 685.63 492.97 687.15 492.74C687.4 492.7 687.63 492.68 687.86 492.67C689.41 492.59 690.87 493.08 692.08 494.06C694.74 496.24 695.15 500.19 692.98 502.86C692 504.06 690.63 504.85 689.1 505.09C688.87 505.13 688.63 505.15 688.39 505.16L688.42 505.16Z" fill="#FFFFFF" fill-opacity="1.000000" fill-rule="nonzero"/>
	<path id="Vector" d="M712.64 434.36C711.54 434.42 710.48 434.18 709.47 433.67C706.42 432.11 705.2 428.32 706.76 425.25C707.7 423.43 709.34 422.26 711.39 421.94C711.6 421.9 711.82 421.87 712.04 421.87C713.13 421.82 714.19 422.05 715.18 422.56C718.25 424.13 719.46 427.92 717.89 431.01C716.98 432.79 715.3 433.99 713.29 434.31C713.08 434.34 712.86 434.36 712.63 434.38L712.64 434.36Z" fill="#FFFFFF" fill-opacity="1.000000" fill-rule="nonzero"/>
	<path id="Vector" d="M692.94 214.05C689.74 214.2 686.95 211.94 686.45 208.77C685.92 205.38 688.27 202.16 691.67 201.63C691.89 201.61 692.11 201.58 692.31 201.57C695.47 201.42 698.32 203.74 698.82 206.86C699.07 208.5 698.67 210.14 697.69 211.5C696.7 212.85 695.26 213.73 693.62 213.99C693.39 214.02 693.17 214.04 692.94 214.05Z" fill="#FFFFFF" fill-opacity="1.000000" fill-rule="nonzero"/>
	<path id="Vector" d="M656.58 148.68C653.91 148.8 651.37 147.15 650.43 144.65C649.21 141.44 650.84 137.81 654.07 136.58C654.46 136.43 654.89 136.32 655.32 136.25C655.52 136.22 655.74 136.2 655.94 136.18C658.62 136.06 661.17 137.71 662.13 140.22C662.71 141.77 662.66 143.46 661.99 144.99C661.31 146.51 660.06 147.68 658.5 148.27C658.09 148.42 657.66 148.53 657.22 148.6C657.01 148.64 656.8 148.65 656.58 148.66L656.58 148.68Z" fill="#FFFFFF" fill-opacity="1.000000" fill-rule="nonzero"/>
	<path id="Vector" d="M607.44 92.3C605.21 92.41 603.07 91.31 601.87 89.45C600 86.56 600.83 82.67 603.74 80.79C604.46 80.33 605.27 80.02 606.13 79.88C606.35 79.84 606.57 79.83 606.8 79.82C609.04 79.7 611.18 80.8 612.39 82.67C613.29 84.06 613.58 85.72 613.24 87.36C612.88 89 611.92 90.4 610.51 91.31C609.77 91.78 608.95 92.1 608.1 92.23C607.87 92.27 607.65 92.3 607.44 92.3Z" fill="#FFFFFF" fill-opacity="1.000000" fill-rule="nonzero"/>
	<path id="Vector" d="M547.6 47.39C545.84 47.48 544.16 46.82 542.89 45.55C540.47 43.11 540.49 39.13 542.93 36.69C543.85 35.76 545.04 35.17 546.34 34.97C546.58 34.93 546.81 34.91 547.04 34.89C548.82 34.8 550.5 35.46 551.78 36.74C552.93 37.9 553.57 39.47 553.57 41.15C553.57 42.82 552.92 44.39 551.74 45.55C550.79 46.5 549.6 47.1 548.3 47.31C548.06 47.35 547.82 47.37 547.59 47.39L547.6 47.39Z" fill="#FFFFFF" fill-opacity="1.000000" fill-rule="nonzero"/>
	<path id="Vector" d="M258.85 12.5C255.42 12.66 252.48 10 252.31 6.55C252.16 3.35 254.42 0.55 257.6 0.07C257.82 0.03 258.03 0.01 258.25 0C259.92 -0.07 261.5 0.49 262.73 1.6C263.97 2.72 264.69 4.26 264.78 5.93C264.93 9.15 262.68 11.94 259.52 12.44C259.3 12.48 259.08 12.5 258.85 12.51L258.85 12.5Z" fill="#FFFFFF" fill-opacity="1.000000" fill-rule="nonzero"/>
	<path id="Vector" d="M190.1 41.86C187.13 42.02 184.51 40.09 183.75 37.2C182.88 33.88 184.87 30.43 188.21 29.54C188.41 29.49 188.64 29.43 188.85 29.4C189.07 29.36 189.29 29.34 189.51 29.33C192.45 29.19 195.04 31.09 195.81 33.97C196.69 37.33 194.7 40.77 191.36 41.66C191.21 41.7 190.98 41.75 190.75 41.79C190.52 41.82 190.3 41.85 190.07 41.85L190.1 41.86Z" fill="#FFFFFF" fill-opacity="1.000000" fill-rule="nonzero"/>
	<path id="Vector" d="M128.97 84.9C126.5 85.03 124.19 83.67 123.07 81.47C121.52 78.39 122.76 74.63 125.85 73.05C126.43 72.76 127.05 72.55 127.69 72.45C127.91 72.41 128.12 72.4 128.35 72.38C130.8 72.27 133.1 73.61 134.22 75.81C135.78 78.89 134.55 82.67 131.48 84.24C130.89 84.53 130.28 84.74 129.63 84.84C129.42 84.88 129.2 84.89 128.97 84.9Z" fill="#FFFFFF" fill-opacity="1.000000" fill-rule="nonzero"/>
	<path id="Vector" d="M78.12 139.71C76.1 139.81 74.15 138.94 72.9 137.39C70.75 134.71 71.18 130.76 73.86 128.59C74.7 127.89 75.71 127.44 76.78 127.28C76.99 127.25 77.21 127.23 77.42 127.21C79.41 127.11 81.36 127.98 82.6 129.53C84.78 132.24 84.36 136.2 81.67 138.36C80.84 139.03 79.82 139.48 78.76 139.64C78.54 139.68 78.33 139.69 78.1 139.71L78.12 139.71Z" fill="#FFFFFF" fill-opacity="1.000000" fill-rule="nonzero"/>
	<path id="Vector" d="M6.54 349.01C5.9 349.04 5.24 348.98 4.59 348.8C1.29 347.9 -0.68 344.44 0.21 341.11C0.85 338.74 2.84 336.96 5.28 336.58C5.49 336.56 5.7 336.53 5.91 336.52C6.55 336.5 7.21 336.56 7.85 336.74C11.2 337.65 13.18 341.08 12.27 344.41C11.63 346.78 9.62 348.57 7.18 348.95C6.96 348.98 6.75 349 6.54 349.01Z" fill="#FFFFFF" fill-opacity="1.000000" fill-rule="nonzero"/>
	<path id="Vector" d="M13.2 423.54C12.99 423.54 12.76 423.54 12.54 423.54C9.12 423.34 6.47 420.37 6.66 416.93C6.82 414.02 9.03 411.57 11.91 411.11C12.12 411.08 12.32 411.06 12.53 411.04C12.77 411.04 13.01 411.04 13.26 411.04C14.92 411.13 16.44 411.86 17.57 413.12C18.68 414.36 19.25 415.96 19.16 417.64C19 420.58 16.78 423.02 13.88 423.47C13.67 423.51 13.45 423.52 13.23 423.54L13.2 423.54Z" fill="#FFFFFF" fill-opacity="1.000000" fill-rule="nonzero"/>
</svg>
