<svg width="15.714279" height="15.714355" viewBox="0 0 15.7143 15.7144" fill="none" xmlns="http://www.w3.org/2000/svg" xmlns:xlink="http://www.w3.org/1999/xlink">
	<desc>
			Created with Pixso.
	</desc>
	<defs/>
	<path id="↳ Icon Color" d="M10.45 15.71L8.57 15.71C8.17 15.71 7.85 15.39 7.85 15C7.85 14.6 8.17 14.28 8.57 14.28L10.42 14.28C11.24 14.28 11.8 14.28 12.24 14.24C12.67 14.21 12.92 14.14 13.11 14.05C13.51 13.84 13.84 13.51 14.05 13.11C14.14 12.92 14.21 12.67 14.24 12.24C14.28 11.8 14.28 11.24 14.28 10.42L14.28 5.28C14.28 4.47 14.28 3.9 14.24 3.46C14.21 3.03 14.14 2.78 14.05 2.59C13.84 2.19 13.51 1.86 13.11 1.66C12.92 1.56 12.67 1.5 12.24 1.46C11.8 1.42 11.24 1.42 10.42 1.42L8.57 1.42C8.17 1.42 7.85 1.1 7.85 0.71C7.85 0.31 8.17 0 8.57 0L10.45 0L10.45 0C11.23 0 11.85 0 12.36 0.04C12.88 0.08 13.34 0.17 13.76 0.38C14.43 0.73 14.98 1.27 15.32 1.94C15.54 2.37 15.63 2.83 15.67 3.35C15.71 3.85 15.71 4.48 15.71 5.25L15.71 10.45C15.71 11.23 15.71 11.85 15.67 12.36C15.63 12.88 15.54 13.34 15.32 13.76C14.98 14.43 14.43 14.98 13.76 15.32C13.34 15.54 12.88 15.63 12.36 15.67C11.85 15.71 11.23 15.71 10.45 15.71ZM0 7.85C0 7.46 0.31 7.14 0.71 7.14L7.56 7.14L5.92 5.5C5.64 5.22 5.64 4.77 5.92 4.49C6.2 4.21 6.65 4.21 6.93 4.49L9.79 7.35C9.79 7.35 9.79 7.35 9.79 7.35C9.86 7.42 9.91 7.5 9.94 7.58C9.98 7.66 9.99 7.75 10 7.85C10 7.85 10 7.85 10 7.85C10 7.85 10 7.85 10 7.85C9.99 8.05 9.92 8.22 9.79 8.35C9.79 8.35 9.79 8.36 9.79 8.36L6.93 11.21C6.65 11.49 6.2 11.49 5.92 11.21C5.64 10.94 5.64 10.48 5.92 10.2L7.56 8.57L0.71 8.57C0.31 8.57 0 8.25 0 7.85Z" fill="#262931" fill-opacity="1.000000" fill-rule="evenodd"/>
</svg>
